<?xml version="1.0" encoding="UTF-8" standalone="no"?><!DOCTYPE svg PUBLIC "-//W3C//DTD SVG 1.1//EN" "http://www.w3.org/Graphics/SVG/1.1/DTD/svg11.dtd"><svg width="100%" height="100%" viewBox="0 0 209 250" version="1.1" xmlns="http://www.w3.org/2000/svg" xmlns:xlink="http://www.w3.org/1999/xlink" xml:space="preserve" xmlns:serif="http://www.serif.com/" style="fill-rule:evenodd;clip-rule:evenodd;stroke-linejoin:round;stroke-miterlimit:2;"><path d="M135.391,187.5l20.859,0l0,-114.583l-20.859,0l0,114.583Zm-41.641,0l20.833,0l0,-114.583l-20.833,0l0,114.583Zm-41.667,0l20.834,0l0,-114.583l-20.834,0l0,114.583Zm35.808,-166.667l32.552,0l7.474,7.474l3.255,2.943l45.911,0l0,187.5c0,5.781 -4.661,10.417 -10.442,10.417l-124.974,0c-5.782,0 -10.443,-4.636 -10.443,-10.417l0,-187.5l45.911,0l3.256,-2.943l7.5,-7.474Zm-8.802,-20.833l-3.256,2.917l-7.474,7.5l-68.359,0l0,20.833l10.391,0l0,187.5c0,17.135 14.114,31.25 31.276,31.25l124.974,0c17.161,0 31.276,-14.115 31.276,-31.25l0,-187.5l10.416,0l0,-20.833l-68.359,0l-7.5,-7.5l-3.255,-2.917l-50.13,0Z" style="fill:#bba8a5;fill-rule:nonzero;"/></svg>