<?xml version="1.0" encoding="UTF-8" standalone="no"?><!DOCTYPE svg PUBLIC "-//W3C//DTD SVG 1.1//EN" "http://www.w3.org/Graphics/SVG/1.1/DTD/svg11.dtd"><svg width="100%" height="100%" viewBox="0 0 16 16" version="1.1" xmlns="http://www.w3.org/2000/svg" xmlns:xlink="http://www.w3.org/1999/xlink" xml:space="preserve" xmlns:serif="http://www.serif.com/" style="fill-rule:evenodd;clip-rule:evenodd;stroke-linejoin:round;stroke-miterlimit:2;"><path d="M0,15.962l0,-15.303l7.654,0l0,1.5l-6.154,0l0,12.303l11.915,0l0,-6.055l1.5,0l0,7.555l-14.915,0Z" style="fill:#a087a4;"/><path d="M13.323,0c-0.331,0 -0.662,0.127 -0.915,0.379l-6.116,6.117l-1.361,4.536l4.536,-1.588l5.92,-6.117c0.491,-0.507 0.484,-1.314 -0.015,-1.813l-1.134,-1.135c-0.253,-0.252 -0.584,-0.379 -0.915,-0.379m0,1c0.055,0 0.137,0.016 0.208,0.086l1.134,1.135c0.113,0.112 0.114,0.297 0.003,0.411l-5.755,5.947l-2.461,0.861l0.725,-2.416l5.938,-5.938c0.071,-0.07 0.152,-0.086 0.208,-0.086" style="fill:#a087a4;fill-rule:nonzero;"/><path d="M14.227,3.874l-0.707,0.707l-2.333,-2.333l0.707,-0.707c0.778,0.778 1.555,1.555 2.333,2.333Z" style="fill:#a087a4;"/><path d="M13.06,5.041l-0.707,0.707l-2.333,-2.333l0.707,-0.707c0.778,0.778 1.556,1.555 2.333,2.333Z" style="fill:#a087a4;"/></svg>