<?xml version="1.0" encoding="UTF-8" standalone="no"?><!DOCTYPE svg PUBLIC "-//W3C//DTD SVG 1.1//EN" "http://www.w3.org/Graphics/SVG/1.1/DTD/svg11.dtd"><svg width="100%" height="100%" viewBox="0 0 137 73" version="1.1" xmlns="http://www.w3.org/2000/svg" xmlns:xlink="http://www.w3.org/1999/xlink" xml:space="preserve" xmlns:serif="http://www.serif.com/" style="fill-rule:evenodd;clip-rule:evenodd;stroke-linejoin:round;stroke-miterlimit:2;"><rect x="0" y="0" width="136.525" height="72.031" style="fill:#243f9c;"/><path d="M68.238,56.505l0.944,2.806l2.887,-0.006l-2.05,1.556l0.563,3.006l-2.344,-1.706l-2.356,1.663l0.569,-2.963l-2.025,-1.562l2.881,0l0.931,-2.794Z" style="fill:#fcec00;fill-rule:nonzero;"/><path d="M68.238,7.784l0.944,2.806l2.887,-0.006l-2.05,1.556l0.563,3.006l-2.344,-1.706l-2.356,1.662l0.569,-2.962l-2.025,-1.563l2.881,0l0.931,-2.793Z" style="fill:#fcec00;fill-rule:nonzero;"/><path d="M79.969,10.918l0.95,2.806l2.887,-0.006l-2.05,1.55l0.563,3.013l-2.35,-1.707l-2.357,1.663l0.575,-2.969l-2.025,-1.556l2.882,0l0.925,-2.794Z" style="fill:#fcec00;fill-rule:nonzero;"/><path d="M55.933,10.918l0.944,2.806l2.887,-0.006l-2.043,1.55l0.562,3.013l-2.35,-1.707l-2.356,1.663l0.575,-2.969l-2.031,-1.556l2.887,0l0.925,-2.794Z" style="fill:#fcec00;fill-rule:nonzero;"/><path d="M79.969,53.215l0.95,2.806l2.887,-0.006l-2.05,1.55l0.563,3.012l-2.35,-1.706l-2.357,1.663l0.575,-2.969l-2.025,-1.556l2.882,0l0.925,-2.794Z" style="fill:#fcec00;fill-rule:nonzero;"/><path d="M55.933,53.215l0.944,2.806l2.887,-0.006l-2.043,1.55l0.562,3.012l-2.35,-1.706l-2.356,1.663l0.575,-2.969l-2.031,-1.556l2.887,0l0.925,-2.794Z" style="fill:#fcec00;fill-rule:nonzero;"/><path d="M46.943,20.113l0.95,2.806l2.888,-0.006l-2.05,1.55l0.562,3.013l-2.35,-1.707l-2.356,1.663l0.575,-2.969l-2.025,-1.556l2.881,0l0.925,-2.794Z" style="fill:#fcec00;fill-rule:nonzero;"/><path d="M89.253,20.113l0.95,2.806l2.881,-0.006l-2.044,1.55l0.563,3.013l-2.35,-1.707l-2.357,1.663l0.575,-2.969l-2.025,-1.556l2.882,0l0.925,-2.794Z" style="fill:#fcec00;fill-rule:nonzero;"/><path d="M46.943,44.429l0.95,2.807l2.888,0l-2.05,1.55l0.562,3.006l-2.35,-1.706l-2.356,1.662l0.575,-2.962l-2.025,-1.563l2.881,0l0.925,-2.794Z" style="fill:#fcec00;fill-rule:nonzero;"/><path d="M89.253,44.429l0.95,2.807l2.881,0l-2.044,1.55l0.563,3.006l-2.35,-1.706l-2.357,1.662l0.575,-2.962l-2.025,-1.563l2.882,0l0.925,-2.794Z" style="fill:#fcec00;fill-rule:nonzero;"/><path d="M44.154,32.179l0.943,2.807l2.888,-0.007l-2.044,1.557l0.563,3.006l-2.35,-1.706l-2.357,1.662l0.569,-2.962l-2.025,-1.563l2.888,0l0.925,-2.794Z" style="fill:#fcec00;fill-rule:nonzero;"/><path d="M92.347,32.179l0.95,2.807l2.887,-0.007l-2.05,1.557l0.563,3.006l-2.35,-1.706l-2.356,1.662l0.575,-2.962l-2.025,-1.563l2.881,0l0.925,-2.794Z" style="fill:#fcec00;fill-rule:nonzero;"/></svg>