<?xml version="1.0" encoding="UTF-8" standalone="no"?><!DOCTYPE svg PUBLIC "-//W3C//DTD SVG 1.1//EN" "http://www.w3.org/Graphics/SVG/1.1/DTD/svg11.dtd"><svg width="100%" height="100%" viewBox="0 0 45 45" version="1.1" xmlns="http://www.w3.org/2000/svg" xmlns:xlink="http://www.w3.org/1999/xlink" xml:space="preserve" xmlns:serif="http://www.serif.com/" style="fill-rule:evenodd;clip-rule:evenodd;stroke-miterlimit:10;"><rect id="Artboard1" x="0" y="0" width="44.848" height="44.848" style="fill:none;"/><clipPath id="_clip1"><rect id="Artboard11" serif:id="Artboard1" x="0" y="0" width="44.848" height="44.848"/></clipPath><g clip-path="url(#_clip1)"><g><path d="M39.67,32.285l-9.725,6.966c-0.455,0.336 -1.023,0.483 -1.583,0.407l-14.022,-2.126l-5.202,3.89l-4.343,-7.78l10.54,-6.921c0.392,-0.242 0.852,-0.353 1.312,-0.316l10.132,0.271c0.924,-0.037 1.703,0.681 1.741,1.606c0.038,0.924 -0.681,1.704 -1.605,1.741l-6.695,0.724l1.945,3.89l7.644,0.316l0.136,-0.09l7.735,-5.337c0.782,-0.538 1.852,-0.341 2.39,0.442l0.007,0.01c0.539,0.751 0.367,1.796 -0.384,2.335c-0.007,0.006 -0.015,0.012 -0.023,0.017l0,-0.045Zm1.131,-2.805l-0.046,0c-0.832,-1.161 -2.44,-1.443 -3.618,-0.633l-7.599,5.202l-6.785,-0.271l-1.131,-2.262l5.383,-0.588c1.403,-0.24 2.347,-1.572 2.107,-2.976c-0.198,-1.161 -1.159,-2.041 -2.333,-2.135l-10.132,-0.272c-0.651,-0.047 -1.299,0.112 -1.855,0.452l-11.218,7.373l5.293,9.409l5.699,-4.297l13.66,2.035c0.796,0.122 1.608,-0.073 2.262,-0.543l9.725,-6.92c1.14,-0.83 1.402,-2.422 0.588,-3.574Z" style="fill:#a3859e;fill-rule:nonzero;stroke:#a3859e;stroke-width:1px;"/><path d="M18.456,7.678c0.542,-2.85 2.578,-4.704 5.156,-4.704c1.493,0 3.121,0.633 4.704,1.809l0.272,0.181l0.271,-0.181c1.583,-1.176 3.212,-1.764 4.66,-1.764c2.578,0 4.568,1.855 5.156,4.659c0.859,4.342 -1.9,10.223 -9.951,13.525l-0.226,0c-8.143,-3.212 -10.902,-9.092 -10.042,-13.525m10.087,14.429l0.452,-0.09c8.549,-3.483 11.444,-9.816 10.539,-14.52c-0.678,-3.257 -3.03,-5.382 -6.061,-5.382c-1.769,0.081 -3.472,0.696 -4.885,1.764c-1.431,-1.104 -3.17,-1.736 -4.976,-1.81c-3.031,0 -5.383,2.126 -6.016,5.428c-0.904,4.75 1.99,11.082 10.54,14.52l0.407,0.09Z" style="fill:#a3859e;fill-rule:nonzero;"/><path d="M18.456,7.678c0.542,-2.85 2.578,-4.704 5.156,-4.704c1.493,0 3.121,0.633 4.704,1.809l0.272,0.181l0.271,-0.181c1.583,-1.176 3.212,-1.764 4.66,-1.764c2.578,0 4.568,1.855 5.156,4.659c0.859,4.342 -1.9,10.223 -9.951,13.525l-0.226,0c-8.143,-3.212 -10.902,-9.092 -10.042,-13.525Zm10.087,14.429l0.452,-0.09c8.549,-3.483 11.444,-9.816 10.539,-14.52c-0.678,-3.257 -3.03,-5.382 -6.061,-5.382c-1.769,0.081 -3.472,0.696 -4.885,1.764c-1.431,-1.104 -3.17,-1.736 -4.976,-1.81c-3.031,0 -5.383,2.126 -6.016,5.428c-0.904,4.75 1.99,11.082 10.54,14.52l0.407,0.09Z" style="fill:none;fill-rule:nonzero;stroke:#a3859e;stroke-width:1px;"/></g></g></svg>