<?xml version="1.0" encoding="UTF-8" standalone="no"?><!DOCTYPE svg PUBLIC "-//W3C//DTD SVG 1.1//EN" "http://www.w3.org/Graphics/SVG/1.1/DTD/svg11.dtd"><svg width="100%" height="100%" viewBox="0 0 45 45" version="1.1" xmlns="http://www.w3.org/2000/svg" xmlns:xlink="http://www.w3.org/1999/xlink" xml:space="preserve" xmlns:serif="http://www.serif.com/" style="fill-rule:evenodd;clip-rule:evenodd;stroke-miterlimit:10;"><rect id="Artboard1" x="0" y="0" width="44.848" height="44.848" style="fill:none;"/><clipPath id="_clip1"><rect id="Artboard11" serif:id="Artboard1" x="0" y="0" width="44.848" height="44.848"/></clipPath><g clip-path="url(#_clip1)"><g><path d="M32.522,28.626c-0.185,-0.018 -0.371,-0.027 -0.56,-0.027c-3.776,0 -6.837,3.061 -6.837,6.837c0,0.692 0.102,1.358 0.296,1.985l-19.372,0l1.323,-26.906l24.259,0l0.891,18.111Z" style="fill:none;fill-rule:nonzero;stroke:#a3859e;stroke-width:2px;"/><path d="M38.799,35.436c0,3.775 -3.061,6.836 -6.837,6.836c-3.083,0 -5.694,-2.042 -6.541,-4.851c-0.194,-0.627 -0.296,-1.293 -0.296,-1.985c0,-3.776 3.061,-6.837 6.837,-6.837c0.19,0 0.375,0.009 0.56,0.027c3.516,0.282 6.277,3.224 6.277,6.81Z" style="fill:none;fill-rule:nonzero;stroke:#a3859e;stroke-width:2px;"/><path d="M26.095,14.044l0,-5.292c-0.228,-3.448 -3.088,-6.176 -6.594,-6.176c-3.505,0 -6.365,2.728 -6.594,6.176l0,5.292" style="fill:none;fill-rule:nonzero;stroke:#a3859e;stroke-width:2px;"/><path d="M28.213,35.657l2.426,2.426l5.072,-5.072" style="fill:none;fill-rule:nonzero;stroke:#a3859e;stroke-width:2px;"/></g></g></svg>