<?xml version="1.0" encoding="UTF-8" standalone="no"?><!DOCTYPE svg PUBLIC "-//W3C//DTD SVG 1.1//EN" "http://www.w3.org/Graphics/SVG/1.1/DTD/svg11.dtd"><svg width="100%" height="100%" viewBox="0 0 45 45" version="1.1" xmlns="http://www.w3.org/2000/svg" xmlns:xlink="http://www.w3.org/1999/xlink" xml:space="preserve" xmlns:serif="http://www.serif.com/" style="fill-rule:evenodd;clip-rule:evenodd;stroke-miterlimit:10;"><rect id="Artboard1" x="0" y="0" width="44.848" height="44.848" style="fill:none;"/><clipPath id="_clip1"><rect id="Artboard11" serif:id="Artboard1" x="0" y="0" width="44.848" height="44.848"/></clipPath><g clip-path="url(#_clip1)"><g><path d="M16.367,33.1l2.098,4.196l4.895,1.399m7.693,-23.078l6.993,5.594m1.958,-3.748c0.056,0.616 -0.133,1.224 -0.531,1.693l-1.595,1.923l-14.476,17.413c-0.056,0.063 -0.118,0.119 -0.195,0.161c-0.007,0.007 -0.015,0.007 -0.022,0.014l-8.51,4.273c-0.147,0.07 -0.322,0.091 -0.483,0.042c-0.357,-0.098 -0.566,-0.476 -0.469,-0.833l2.546,-9.063c0.021,-0.091 0.07,-0.174 0.133,-0.252l16.091,-19.322c0.819,-0.986 2.28,-1.133 3.287,-0.336l3.371,2.72c0.483,0.385 0.791,0.952 0.853,1.567Z" style="fill:none;fill-rule:nonzero;stroke:#a3859e;stroke-width:2px;"/><path d="M24.881,36.685l1,0" style="fill:none;fill-rule:nonzero;stroke:#a3859e;stroke-width:2px;"/><path d="M27.592,36.685l2.567,0" style="fill:none;fill-rule:nonzero;stroke:#a3859e;stroke-width:2px;stroke-dasharray:1.71,1.71;"/><path d="M31.014,36.685l1,0l0,-0.345l-0.04,-0.654" style="fill:none;fill-rule:nonzero;stroke:#a3859e;stroke-width:2px;"/><path d="M31.855,33.686l-0.181,-3" style="fill:none;fill-rule:nonzero;stroke:#a3859e;stroke-width:2px;stroke-dasharray:2,2;"/><path d="M31.614,29.685l-0.06,-0.998" style="fill:none;fill-rule:nonzero;stroke:#a3859e;stroke-width:2px;"/><path d="M30.769,15.634l-0.12,-1.997" style="fill:none;fill-rule:nonzero;stroke:#a3859e;stroke-width:2px;"/><path d="M30.537,11.776l-0.12,-1.996l-2,0" style="fill:none;fill-rule:nonzero;stroke:#a3859e;stroke-width:2px;"/><path d="M26.39,9.78l-17.22,0" style="fill:none;fill-rule:nonzero;stroke:#a3859e;stroke-width:2px;stroke-dasharray:4.05,2.03;"/><path d="M8.157,9.78l-2,0l-0.099,1.998" style="fill:none;fill-rule:nonzero;stroke:#a3859e;stroke-width:2px;"/><path d="M5.972,13.539l-0.997,20.267" style="fill:none;fill-rule:nonzero;stroke:#a3859e;stroke-width:2px;stroke-dasharray:3.53,1.76;"/><path d="M4.932,34.688l-0.098,1.998l2,0" style="fill:none;fill-rule:nonzero;stroke:#a3859e;stroke-width:2px;"/><path d="M8.411,36.685l3.943,0" style="fill:none;fill-rule:nonzero;stroke:#a3859e;stroke-width:2px;stroke-dasharray:3.15,1.58;"/><path d="M13.142,36.685l2,0" style="fill:none;fill-rule:nonzero;stroke:#a3859e;stroke-width:2px;"/><path d="M24.881,13.308l0,-2" style="fill:none;fill-rule:nonzero;stroke:#a3859e;stroke-width:2px;"/><path d="M24.881,9.274l0,-1.258c-0.228,-3.448 -3.088,-6.176 -6.594,-6.176c-3.505,0 -6.365,2.728 -6.594,6.176l0,2.275" style="fill:none;fill-rule:nonzero;stroke:#a3859e;stroke-width:2px;stroke-dasharray:4.07,2.03;"/><path d="M11.693,11.308l0,2" style="fill:none;fill-rule:nonzero;stroke:#a3859e;stroke-width:2px;"/></g></g></svg>