<?xml version="1.0" encoding="UTF-8" standalone="no"?><!DOCTYPE svg PUBLIC "-//W3C//DTD SVG 1.1//EN" "http://www.w3.org/Graphics/SVG/1.1/DTD/svg11.dtd"><svg width="100%" height="100%" viewBox="0 0 45 45" version="1.1" xmlns="http://www.w3.org/2000/svg" xmlns:xlink="http://www.w3.org/1999/xlink" xml:space="preserve" xmlns:serif="http://www.serif.com/" style="fill-rule:evenodd;clip-rule:evenodd;stroke-linejoin:round;stroke-miterlimit:2;"><rect id="Artboard1" x="0" y="0" width="44.848" height="44.848" style="fill:none;"/><g id="Artboard11" serif:id="Artboard1"><g><path d="M36.615,39.783l-23.965,0l0,-2.846l20.181,0c0.348,0 0.631,-0.254 0.631,-0.569l0,-27.318l3.153,0l0,30.733Zm-28.38,-3.984l0,-30.733l23.965,0l0,30.733l-20.181,0l-3.784,0Zm29.01,-27.887l-3.783,0l0,-3.415c0,-0.314 -0.283,-0.569 -0.631,-0.569l-25.227,0c-0.348,0 -0.631,0.255 -0.631,0.569l0,31.871c0,0.315 0.283,0.569 0.631,0.569l3.784,0l0,3.415c0,0.315 0.283,0.569 0.631,0.569l25.226,0c0.349,0 0.631,-0.254 0.631,-0.569l0,-31.871c0,-0.314 -0.282,-0.569 -0.631,-0.569" style="fill:#a3859e;fill-rule:nonzero;"/><path d="M12.649,10.757l9.46,0c0.348,0 0.63,-0.254 0.63,-0.569c0,-0.315 -0.282,-0.569 -0.63,-0.569l-9.46,0c-0.348,0 -0.631,0.254 -0.631,0.569c0,0.315 0.283,0.569 0.631,0.569" style="fill:#a3859e;fill-rule:nonzero;"/><path d="M12.649,14.741l15.136,0c0.348,0 0.631,-0.254 0.631,-0.569c0,-0.315 -0.283,-0.569 -0.631,-0.569l-15.136,0c-0.348,0 -0.631,0.254 -0.631,0.569c0,0.315 0.283,0.569 0.631,0.569" style="fill:#a3859e;fill-rule:nonzero;"/><path d="M12.649,18.725l15.136,0c0.348,0 0.631,-0.254 0.631,-0.569c0,-0.315 -0.283,-0.569 -0.631,-0.569l-15.136,0c-0.348,0 -0.631,0.254 -0.631,0.569c0,0.315 0.283,0.569 0.631,0.569" style="fill:#a3859e;fill-rule:nonzero;"/><path d="M25.295,30.325l-5.078,2.546l-5.078,-2.546l-0.558,-5.538l5.636,-2.034l5.636,2.034l-0.558,5.538Zm1.463,-6.437l-6.307,-2.277c-0.151,-0.055 -0.318,-0.055 -0.468,0l-6.307,2.277c-0.259,0.093 -0.419,0.329 -0.394,0.58l0.631,6.26c0.019,0.187 0.139,0.355 0.321,0.446l5.676,2.845c0.096,0.048 0.201,0.072 0.307,0.072c0.105,0 0.211,-0.024 0.307,-0.072l5.675,-2.845c0.182,-0.091 0.303,-0.259 0.322,-0.446l0.631,-6.26c0.025,-0.251 -0.135,-0.487 -0.394,-0.58" style="fill:#a3859e;fill-rule:nonzero;"/><path d="M19.586,24.985l0,1.708l-1.513,-1.025c-0.279,-0.188 -0.674,-0.138 -0.883,0.114c-0.209,0.251 -0.153,0.608 0.126,0.797l1.85,1.252l-1.85,1.252c-0.279,0.188 -0.335,0.545 -0.126,0.797c0.124,0.149 0.313,0.227 0.505,0.227c0.131,0 0.264,-0.037 0.378,-0.114l1.513,-1.024l0,1.707c0,0.315 0.283,0.569 0.631,0.569c0.348,0 0.631,-0.254 0.631,-0.569l0,-1.707l1.513,1.024c0.114,0.077 0.246,0.114 0.378,0.114c0.192,0 0.381,-0.078 0.505,-0.227c0.209,-0.252 0.153,-0.609 -0.126,-0.797l-1.85,-1.252l1.85,-1.252c0.279,-0.189 0.335,-0.546 0.126,-0.797c-0.209,-0.252 -0.603,-0.302 -0.883,-0.114l-1.513,1.025l0,-1.708c0,-0.314 -0.283,-0.569 -0.631,-0.569c-0.348,0 -0.631,0.255 -0.631,0.569" style="fill:#a3859e;fill-rule:nonzero;"/></g></g></svg>