<?xml version="1.0" encoding="UTF-8" standalone="no"?><!DOCTYPE svg PUBLIC "-//W3C//DTD SVG 1.1//EN" "http://www.w3.org/Graphics/SVG/1.1/DTD/svg11.dtd"><svg width="100%" height="100%" viewBox="0 0 142 80" version="1.1" xmlns="http://www.w3.org/2000/svg" xmlns:xlink="http://www.w3.org/1999/xlink" xml:space="preserve" xmlns:serif="http://www.serif.com/" style="fill-rule:evenodd;clip-rule:evenodd;stroke-linejoin:round;stroke-miterlimit:2;"><g><rect x="2.258" y="0.002" width="136.525" height="79.637" style="fill:#fff;"/><path d="M93.672,28.794l45.112,-25.257l0,-3.537l-3.112,0l-51.438,28.794l9.438,0Z" style="fill:#dc0032;fill-rule:nonzero;"/><path d="M91.542,52.442l47.244,26.431l0,-5.281l-37.8,-21.15l-9.444,0Z" style="fill:#dc0032;fill-rule:nonzero;"/><path d="M2.259,6.064l40.413,22.732l9.444,0l-49.857,-28.019l0,5.287Z" style="fill:#dc0032;fill-rule:nonzero;"/><path d="M49.971,52.442l-47.713,26.731l0,0.463l8.625,0l48.538,-27.194l-9.45,0Z" style="fill:#dc0032;fill-rule:nonzero;"/><path d="M129.439,0.001l-47.794,0l0,26.768l47.794,-26.768Z" style="fill:#0d1e7e;fill-rule:nonzero;"/><path d="M60.536,0.001l-47.606,0l47.606,26.768l0,-26.768Z" style="fill:#0d1e7e;fill-rule:nonzero;"/><path d="M138.783,28.794l0,-18.269l-32.425,18.269l32.425,0Z" style="fill:#0d1e7e;fill-rule:nonzero;"/><path d="M138.783,70.514l0,-18.075l-32.425,0l32.425,18.075Z" style="fill:#0d1e7e;fill-rule:nonzero;"/><path d="M15.626,79.636l44.913,0l0,-25.162l-44.913,25.162Z" style="fill:#0d1e7e;fill-rule:nonzero;"/><path d="M81.642,79.636l45.05,0l-45.05,-25.162l0,25.162Z" style="fill:#0d1e7e;fill-rule:nonzero;"/><path d="M2.259,52.442l0,18.887l33.557,-18.887l-33.557,0Z" style="fill:#0d1e7e;fill-rule:nonzero;"/><path d="M2.259,28.794l33.557,0l-33.557,-18.919l0,18.919Z" style="fill:#0d1e7e;fill-rule:nonzero;"/><path d="M64.759,0.001l0,33.525l-62.5,0l0,14.193l62.5,0l0,31.919l12.657,0l0,-31.919l61.368,0l0,-14.193l-61.368,0l0,-33.525l-12.657,0Z" style="fill:#dc0032;fill-rule:nonzero;"/></g></svg>