<?xml version="1.0" encoding="UTF-8" standalone="no"?><!DOCTYPE svg PUBLIC "-//W3C//DTD SVG 1.1//EN" "http://www.w3.org/Graphics/SVG/1.1/DTD/svg11.dtd"><svg width="100%" height="100%" viewBox="0 0 143 81" version="1.1" xmlns="http://www.w3.org/2000/svg" xmlns:xlink="http://www.w3.org/1999/xlink" xml:space="preserve" xmlns:serif="http://www.serif.com/" style="fill-rule:evenodd;clip-rule:evenodd;stroke-linejoin:round;stroke-miterlimit:2;"><g><rect x="0" y="0" width="142.677" height="81" style="fill:#a087a4;"/><path d="M37.523,48.91l0,0.788l-2.681,0l0,1.92l2.277,0l0,0.788l-2.277,0l0,2.504l-0.951,0l0,-6l3.632,0Z" style="fill:#fff;fill-rule:nonzero;"/><path d="M42.729,54.094l2.418,0l0,0.817l-3.364,0l0,-6.001l0.946,0l0,5.184Z" style="fill:#fff;fill-rule:nonzero;"/><path d="M52.907,48.91l0,0.788l-2.681,0l0,1.808l2.144,0l0,0.762l-2.144,0l0,1.855l2.685,0l-0.004,0.787l-3.632,0l0,-6l3.632,0Z" style="fill:#fff;fill-rule:nonzero;"/><path d="M59.548,54.123c0.224,0 0.424,-0.039 0.601,-0.116c0.176,-0.078 0.326,-0.187 0.449,-0.325c0.122,-0.14 0.216,-0.307 0.281,-0.502c0.065,-0.196 0.097,-0.414 0.097,-0.653l0,-3.617l0.942,0l0,3.617c0,0.353 -0.055,0.679 -0.164,0.979c-0.109,0.301 -0.266,0.559 -0.471,0.778c-0.205,0.217 -0.454,0.389 -0.746,0.512c-0.293,0.123 -0.622,0.186 -0.989,0.186c-0.366,0 -0.696,-0.063 -0.988,-0.186c-0.293,-0.123 -0.542,-0.295 -0.746,-0.512c-0.205,-0.219 -0.363,-0.477 -0.472,-0.778c-0.109,-0.3 -0.164,-0.626 -0.164,-0.979l0,-3.617l0.946,0l0,3.613c0,0.239 0.032,0.456 0.098,0.652c0.064,0.196 0.157,0.365 0.279,0.504c0.121,0.141 0.27,0.25 0.446,0.328c0.177,0.077 0.377,0.116 0.601,0.116" style="fill:#fff;fill-rule:nonzero;"/><path d="M67.494,51.785l0.744,0c0.216,0 0.405,-0.027 0.567,-0.081c0.162,-0.054 0.296,-0.13 0.404,-0.227c0.108,-0.097 0.188,-0.213 0.243,-0.348c0.054,-0.135 0.081,-0.284 0.081,-0.448c0,-0.328 -0.105,-0.577 -0.316,-0.75c-0.21,-0.172 -0.529,-0.258 -0.954,-0.258l-0.769,0l0,2.112Zm0,0.708l0,2.417l-0.946,0l0,-6l1.715,0c0.382,0 0.712,0.041 0.989,0.121c0.276,0.081 0.503,0.195 0.681,0.344c0.178,0.148 0.309,0.327 0.394,0.535c0.085,0.209 0.128,0.44 0.128,0.696c0,0.209 -0.03,0.403 -0.091,0.584c-0.061,0.18 -0.148,0.344 -0.264,0.491c-0.114,0.147 -0.255,0.275 -0.423,0.384c-0.169,0.108 -0.36,0.193 -0.573,0.254c0.119,0.072 0.22,0.174 0.303,0.304l1.573,2.287l-0.844,0c-0.168,0 -0.289,-0.066 -0.365,-0.2l-1.359,-2.02c-0.045,-0.07 -0.096,-0.12 -0.149,-0.15c-0.054,-0.031 -0.135,-0.047 -0.243,-0.047l-0.526,0Z" style="fill:#fff;fill-rule:nonzero;"/><path d="M79.146,51.911c0,-0.345 -0.045,-0.654 -0.136,-0.929c-0.09,-0.275 -0.219,-0.507 -0.387,-0.696c-0.169,-0.189 -0.373,-0.334 -0.614,-0.435c-0.239,-0.102 -0.509,-0.153 -0.808,-0.153l-1.249,0l0,4.425l1.249,0c0.299,0 0.569,-0.049 0.808,-0.15c0.241,-0.1 0.445,-0.245 0.614,-0.435c0.168,-0.19 0.297,-0.422 0.387,-0.696c0.091,-0.273 0.136,-0.584 0.136,-0.931m0.967,0c0,0.445 -0.071,0.851 -0.211,1.219c-0.14,0.368 -0.337,0.684 -0.592,0.948c-0.255,0.264 -0.56,0.468 -0.918,0.614c-0.357,0.146 -0.754,0.219 -1.191,0.219l-2.201,0l0,-6l2.201,0c0.437,0 0.834,0.073 1.191,0.219c0.358,0.145 0.663,0.35 0.918,0.614c0.255,0.264 0.452,0.58 0.592,0.948c0.14,0.368 0.211,0.774 0.211,1.219" style="fill:#fff;fill-rule:nonzero;"/><path d="M88.1,48.91l0,0.788l-2.682,0l0,1.808l2.144,0l0,0.762l-2.144,0l0,1.855l2.686,0l-0.004,0.787l-3.632,0l0,-6l3.632,0Z" style="fill:#fff;fill-rule:nonzero;"/><path d="M93.389,54.094l2.419,0l0,0.817l-3.365,0l0,-6.001l0.946,0l0,5.184Z" style="fill:#fff;fill-rule:nonzero;"/><rect x="99.937" y="48.911" width="0.95" height="6" style="fill:#fff;"/><path d="M108.631,49.936c-0.029,0.05 -0.061,0.087 -0.093,0.11c-0.032,0.024 -0.072,0.036 -0.121,0.036c-0.051,0 -0.108,-0.022 -0.172,-0.067c-0.063,-0.044 -0.141,-0.094 -0.234,-0.148c-0.093,-0.054 -0.203,-0.104 -0.33,-0.15c-0.126,-0.046 -0.278,-0.069 -0.452,-0.069c-0.162,0 -0.305,0.021 -0.427,0.063c-0.123,0.042 -0.227,0.1 -0.31,0.175c-0.084,0.075 -0.146,0.163 -0.188,0.264c-0.041,0.102 -0.063,0.212 -0.063,0.332c0,0.153 0.039,0.28 0.118,0.381c0.078,0.101 0.181,0.188 0.309,0.26c0.128,0.073 0.275,0.136 0.439,0.19c0.165,0.055 0.333,0.112 0.503,0.173c0.171,0.061 0.339,0.131 0.504,0.208c0.164,0.078 0.311,0.177 0.439,0.296c0.128,0.12 0.231,0.265 0.309,0.438c0.079,0.172 0.118,0.382 0.118,0.629c0,0.266 -0.045,0.517 -0.134,0.75c-0.089,0.233 -0.218,0.437 -0.386,0.61c-0.169,0.174 -0.377,0.311 -0.623,0.411c-0.247,0.1 -0.528,0.15 -0.844,0.15c-0.185,0 -0.367,-0.02 -0.544,-0.057c-0.175,-0.037 -0.344,-0.089 -0.505,-0.158c-0.161,-0.068 -0.31,-0.151 -0.451,-0.248c-0.14,-0.097 -0.265,-0.205 -0.376,-0.325l0.275,-0.466c0.024,-0.039 0.055,-0.07 0.093,-0.092c0.038,-0.022 0.08,-0.034 0.125,-0.034c0.063,0 0.131,0.03 0.207,0.09c0.076,0.06 0.167,0.125 0.273,0.196c0.106,0.071 0.235,0.136 0.386,0.196c0.151,0.06 0.332,0.089 0.542,0.089c0.342,0 0.607,-0.086 0.795,-0.258c0.187,-0.172 0.281,-0.41 0.281,-0.712c0,-0.17 -0.039,-0.308 -0.117,-0.415c-0.078,-0.107 -0.182,-0.197 -0.31,-0.269c-0.128,-0.072 -0.274,-0.133 -0.438,-0.183c-0.165,-0.05 -0.332,-0.104 -0.502,-0.161c-0.17,-0.056 -0.337,-0.123 -0.501,-0.199c-0.165,-0.077 -0.312,-0.177 -0.44,-0.301c-0.128,-0.123 -0.23,-0.276 -0.308,-0.458c-0.079,-0.182 -0.118,-0.409 -0.118,-0.681c0,-0.217 0.041,-0.427 0.124,-0.629c0.082,-0.203 0.202,-0.383 0.359,-0.54c0.158,-0.156 0.352,-0.283 0.585,-0.377c0.231,-0.094 0.495,-0.142 0.792,-0.142c0.335,0 0.641,0.054 0.92,0.163c0.279,0.108 0.519,0.262 0.722,0.462l-0.231,0.467Z" style="fill:#fff;fill-rule:nonzero;"/><path d="M71.296,41.57c0,0 -0.001,-0.001 -0.002,-0.002c-0.001,0.003 0,0.005 0.002,0.002" style="fill:#fff;fill-rule:nonzero;"/><path d="M71.296,30.863c-1.299,0 -2.353,1.072 -2.353,2.982c0,1.254 0.372,2.492 0.819,3.825c0.232,0.693 0.485,1.344 0.718,1.899c0.419,1 0.77,1.938 0.814,1.999c0.021,-0.084 0.811,-1.983 1.47,-3.898c0.476,-1.385 0.886,-2.659 0.886,-3.825c0,-1.91 -1.054,-2.982 -2.354,-2.982" style="fill:#fff;fill-rule:nonzero;"/><path d="M81.519,33.507c-0.871,0 -1.672,-0.308 -2.309,-0.823c-0.665,-0.467 -1.379,-1.193 -2.156,-1.942c-2.79,-2.874 -5.236,-0.708 -5.738,-0.247c1.612,-0.103 2.52,1.414 3.276,2.55c2.292,3.448 5.712,3.284 5.712,3.284c2.421,0 4.383,-2.021 4.383,-4.514c0,-0.037 -0.002,-0.073 -0.003,-0.109c-0.662,1.082 -1.831,1.801 -3.165,1.801" style="fill:#fff;fill-rule:nonzero;"/><path d="M60.987,33.507c0.871,0 1.672,-0.308 2.309,-0.823c0.666,-0.467 1.379,-1.193 2.156,-1.942c2.79,-2.874 5.236,-0.708 5.739,-0.247c-1.613,-0.103 -2.521,1.414 -3.277,2.55c-2.292,3.448 -5.712,3.284 -5.712,3.284c-2.42,0 -4.383,-2.021 -4.383,-4.514c0,-0.037 0.002,-0.073 0.003,-0.109c0.662,1.082 1.832,1.801 3.165,1.801" style="fill:#fff;fill-rule:nonzero;"/><path d="M65.436,23.364c2.074,0 3.952,1.95 3.952,4.43c0,0.001 0.001,0.003 0.001,0.004l-0.001,0c0,1.752 1.884,1.962 1.906,1.965l0.002,0c0.024,-0.003 1.908,-0.213 1.908,-1.965l-0.001,0c0,-0.001 0,-0.003 0.001,-0.004c0,-2.48 1.877,-4.43 3.952,-4.43c0.348,0 0.687,0.056 1.009,0.159c0.008,0 0.015,0.001 0.022,0.004c-0.242,-0.287 -0.509,-0.535 -0.794,-0.739c-0.29,-0.207 -0.599,-0.369 -0.923,-0.479c-0.468,-0.178 -0.969,-0.274 -1.489,-0.274c-1.497,0 -2.829,0.793 -3.686,2.028c-0.855,-1.235 -2.187,-2.028 -3.684,-2.028c-0.521,0 -1.022,0.096 -1.489,0.274c-0.325,0.11 -0.634,0.272 -0.923,0.479c-0.286,0.204 -0.552,0.452 -0.794,0.739c0.006,-0.003 0.013,-0.004 0.021,-0.004c0.323,-0.103 0.661,-0.159 1.01,-0.159" style="fill:#fff;fill-rule:nonzero;"/><path d="M71.383,23.456c0.555,-0.801 1.29,-1.248 2.08,-1.603c-0.33,-2.092 -2.08,-3.54 -2.08,-3.54c0,0 -1.75,1.448 -2.081,3.54c0.815,0.455 1.525,0.802 2.081,1.603" style="fill:#fff;fill-rule:nonzero;"/><path d="M46.087,61.284l0,1.473l0.852,0c0.299,0 0.525,-0.066 0.676,-0.199c0.153,-0.132 0.229,-0.319 0.229,-0.56c0,-0.11 -0.021,-0.209 -0.062,-0.297c-0.041,-0.089 -0.099,-0.164 -0.176,-0.226c-0.077,-0.062 -0.171,-0.109 -0.284,-0.142c-0.111,-0.033 -0.239,-0.049 -0.381,-0.049l-0.854,0Zm0,-0.186l0.736,0c0.158,0 0.291,-0.021 0.403,-0.062c0.111,-0.041 0.202,-0.095 0.273,-0.163c0.071,-0.068 0.124,-0.144 0.157,-0.23c0.034,-0.086 0.051,-0.174 0.051,-0.264c0,-0.236 -0.073,-0.415 -0.218,-0.536c-0.144,-0.121 -0.368,-0.182 -0.671,-0.182l-0.731,0l0,1.437Zm-0.245,1.862l0,-3.499l0.976,0c0.195,0 0.362,0.02 0.503,0.059c0.142,0.04 0.259,0.098 0.352,0.175c0.093,0.076 0.162,0.17 0.208,0.28c0.046,0.111 0.068,0.236 0.068,0.376c0,0.093 -0.015,0.182 -0.047,0.267c-0.031,0.086 -0.076,0.165 -0.135,0.238c-0.06,0.072 -0.132,0.136 -0.217,0.189c-0.086,0.053 -0.184,0.094 -0.294,0.122c0.267,0.041 0.473,0.133 0.616,0.275c0.145,0.141 0.216,0.329 0.216,0.561c0,0.149 -0.025,0.282 -0.076,0.401c-0.052,0.119 -0.126,0.219 -0.224,0.301c-0.097,0.083 -0.218,0.146 -0.359,0.19c-0.143,0.043 -0.305,0.065 -0.486,0.065l-1.101,0Z" style="fill:#fff;fill-rule:nonzero;"/><path d="M50.954,59.461l0,0.21l-1.788,0l0,1.415l1.488,0l0,0.205l-1.488,0l0,1.459l1.788,0l0,0.21l-2.035,0l0,-3.499l2.035,0Z" style="fill:#fff;fill-rule:nonzero;"/><path d="M52.927,61.793c0,0.196 -0.023,0.369 -0.07,0.52c-0.048,0.149 -0.115,0.275 -0.202,0.377c-0.087,0.103 -0.194,0.18 -0.32,0.232c-0.125,0.052 -0.266,0.078 -0.423,0.078c-0.072,0 -0.145,-0.007 -0.218,-0.018c-0.074,-0.011 -0.15,-0.029 -0.228,-0.055c0.003,-0.022 0.006,-0.045 0.008,-0.068c0.003,-0.024 0.004,-0.046 0.006,-0.07c0.003,-0.015 0.01,-0.027 0.018,-0.039c0.009,-0.012 0.025,-0.018 0.047,-0.018c0.014,0 0.031,0.003 0.051,0.009c0.02,0.006 0.044,0.012 0.072,0.019c0.029,0.006 0.06,0.012 0.096,0.018c0.036,0.006 0.078,0.009 0.126,0.009c0.122,0 0.231,-0.02 0.329,-0.059c0.098,-0.04 0.181,-0.101 0.25,-0.182c0.068,-0.082 0.121,-0.185 0.157,-0.309c0.036,-0.125 0.054,-0.271 0.054,-0.439l0,-2.337l0.247,0l0,2.332Z" style="fill:#fff;fill-rule:nonzero;"/><path d="M55.971,59.461l0,0.21l-1.788,0l0,1.415l1.487,0l0,0.205l-1.487,0l0,1.459l1.788,0l0,0.21l-2.036,0l0,-3.499l2.036,0Z" style="fill:#fff;fill-rule:nonzero;"/><path d="M56.309,59.461l0.204,0c0.047,0 0.076,0.022 0.089,0.067l0.856,2.876c0.01,0.033 0.019,0.068 0.026,0.106c0.008,0.038 0.014,0.077 0.023,0.119c0.008,-0.042 0.016,-0.081 0.024,-0.119c0.007,-0.038 0.017,-0.073 0.029,-0.106l0.96,-2.876c0.006,-0.018 0.018,-0.034 0.033,-0.047c0.017,-0.014 0.035,-0.02 0.058,-0.02l0.067,0c0.023,0 0.041,0.006 0.056,0.019c0.013,0.012 0.025,0.028 0.033,0.048l0.96,2.876c0.012,0.033 0.021,0.068 0.03,0.103c0.009,0.037 0.017,0.076 0.026,0.117c0.007,-0.04 0.014,-0.078 0.021,-0.115c0.006,-0.037 0.014,-0.072 0.024,-0.105l0.857,-2.876c0.005,-0.018 0.016,-0.034 0.032,-0.047c0.017,-0.014 0.036,-0.02 0.059,-0.02l0.187,0l-1.068,3.499l-0.221,0l-1.003,-3.037c-0.012,-0.039 -0.024,-0.082 -0.034,-0.126c-0.01,0.044 -0.02,0.087 -0.033,0.126l-1.006,3.037l-0.219,0l-1.07,-3.499Z" style="fill:#fff;fill-rule:nonzero;"/><path d="M63.545,59.461l0,0.21l-1.787,0l0,1.415l1.487,0l0,0.205l-1.487,0l0,1.459l1.787,0l0,0.21l-2.035,0l0,-3.499l2.035,0Z" style="fill:#fff;fill-rule:nonzero;"/><path d="M64.592,62.745l1.61,0l0,0.215l-1.855,0l0,-3.499l0.245,0l0,3.284Z" style="fill:#fff;fill-rule:nonzero;"/><path d="M68.838,59.461l0,0.21l-1.788,0l0,1.415l1.488,0l0,0.205l-1.488,0l0,1.459l1.788,0l0,0.21l-2.035,0l0,-3.499l2.035,0Z" style="fill:#fff;fill-rule:nonzero;"/><path d="M72.244,61.209c0,-0.244 -0.033,-0.461 -0.099,-0.653c-0.065,-0.191 -0.158,-0.352 -0.277,-0.484c-0.119,-0.132 -0.263,-0.233 -0.431,-0.302c-0.168,-0.069 -0.354,-0.104 -0.559,-0.104l-0.991,0l0,3.088l0.991,0c0.205,0 0.391,-0.034 0.559,-0.104c0.168,-0.068 0.312,-0.169 0.431,-0.301c0.119,-0.132 0.212,-0.293 0.277,-0.485c0.066,-0.191 0.099,-0.409 0.099,-0.655m0.254,0c0,0.271 -0.039,0.514 -0.117,0.729c-0.079,0.217 -0.19,0.401 -0.332,0.552c-0.142,0.152 -0.313,0.268 -0.511,0.349c-0.198,0.081 -0.419,0.121 -0.66,0.121l-1.238,0l0,-3.499l1.238,0c0.241,0 0.462,0.04 0.66,0.121c0.198,0.081 0.369,0.197 0.511,0.349c0.142,0.152 0.253,0.335 0.332,0.551c0.078,0.216 0.117,0.458 0.117,0.727" style="fill:#fff;fill-rule:nonzero;"/><path d="M74.459,61.284l0,1.473l0.853,0c0.298,0 0.524,-0.066 0.676,-0.199c0.152,-0.132 0.228,-0.319 0.228,-0.56c0,-0.11 -0.021,-0.209 -0.061,-0.297c-0.041,-0.089 -0.099,-0.164 -0.176,-0.226c-0.078,-0.062 -0.171,-0.109 -0.284,-0.142c-0.112,-0.033 -0.239,-0.049 -0.382,-0.049l-0.854,0Zm0,-0.186l0.737,0c0.157,0 0.29,-0.021 0.402,-0.062c0.111,-0.041 0.203,-0.095 0.273,-0.163c0.071,-0.068 0.124,-0.144 0.157,-0.23c0.035,-0.086 0.051,-0.174 0.051,-0.264c0,-0.236 -0.072,-0.415 -0.218,-0.536c-0.144,-0.121 -0.368,-0.182 -0.67,-0.182l-0.732,0l0,1.437Zm-0.245,1.862l0,-3.499l0.977,0c0.194,0 0.362,0.02 0.502,0.059c0.143,0.04 0.26,0.098 0.353,0.175c0.093,0.076 0.162,0.17 0.207,0.28c0.046,0.111 0.068,0.236 0.068,0.376c0,0.093 -0.015,0.182 -0.047,0.267c-0.031,0.086 -0.076,0.165 -0.135,0.238c-0.059,0.072 -0.131,0.136 -0.217,0.189c-0.086,0.053 -0.184,0.094 -0.294,0.122c0.268,0.041 0.473,0.133 0.617,0.275c0.144,0.141 0.216,0.329 0.216,0.561c0,0.149 -0.025,0.282 -0.077,0.401c-0.051,0.119 -0.125,0.219 -0.223,0.301c-0.098,0.083 -0.218,0.146 -0.36,0.19c-0.143,0.043 -0.304,0.065 -0.485,0.065l-1.102,0Z" style="fill:#fff;fill-rule:nonzero;"/><path d="M80.065,61.209c0,-0.244 -0.032,-0.463 -0.098,-0.657c-0.066,-0.196 -0.158,-0.36 -0.277,-0.495c-0.119,-0.136 -0.263,-0.239 -0.432,-0.311c-0.168,-0.072 -0.353,-0.107 -0.558,-0.107c-0.202,0 -0.386,0.035 -0.554,0.107c-0.167,0.072 -0.31,0.175 -0.432,0.311c-0.121,0.135 -0.214,0.299 -0.281,0.495c-0.066,0.194 -0.099,0.413 -0.099,0.657c0,0.246 0.033,0.465 0.099,0.659c0.067,0.194 0.16,0.359 0.281,0.493c0.122,0.136 0.265,0.239 0.432,0.309c0.168,0.072 0.352,0.107 0.554,0.107c0.205,0 0.39,-0.035 0.558,-0.107c0.169,-0.07 0.313,-0.173 0.432,-0.309c0.119,-0.134 0.211,-0.299 0.277,-0.493c0.066,-0.194 0.098,-0.413 0.098,-0.659m0.255,0c0,0.271 -0.039,0.516 -0.118,0.736c-0.078,0.22 -0.189,0.408 -0.331,0.564c-0.142,0.156 -0.313,0.276 -0.511,0.361c-0.198,0.085 -0.419,0.127 -0.66,0.127c-0.239,0 -0.457,-0.042 -0.656,-0.127c-0.198,-0.085 -0.369,-0.205 -0.511,-0.361c-0.143,-0.156 -0.253,-0.344 -0.332,-0.564c-0.079,-0.22 -0.119,-0.465 -0.119,-0.736c0,-0.269 0.04,-0.513 0.119,-0.733c0.079,-0.22 0.189,-0.408 0.332,-0.564c0.142,-0.156 0.313,-0.277 0.511,-0.362c0.199,-0.086 0.417,-0.129 0.656,-0.129c0.241,0 0.462,0.042 0.66,0.127c0.198,0.085 0.369,0.206 0.511,0.363c0.142,0.156 0.253,0.345 0.331,0.565c0.079,0.22 0.118,0.464 0.118,0.733" style="fill:#fff;fill-rule:nonzero;"/><path d="M81.437,61.19l0.59,0c0.149,0 0.285,-0.019 0.403,-0.056c0.12,-0.037 0.221,-0.09 0.303,-0.159c0.083,-0.07 0.145,-0.153 0.188,-0.25c0.043,-0.097 0.065,-0.207 0.065,-0.329c0,-0.249 -0.079,-0.434 -0.238,-0.554c-0.158,-0.12 -0.388,-0.18 -0.691,-0.18l-0.621,0l0,1.528Zm0,0.188l0,1.583l-0.245,0l0,-3.5l0.866,0c0.393,0 0.686,0.079 0.879,0.234c0.193,0.156 0.29,0.384 0.29,0.686c0,0.134 -0.022,0.256 -0.067,0.366c-0.044,0.11 -0.109,0.207 -0.193,0.291c-0.084,0.083 -0.185,0.152 -0.303,0.205c-0.119,0.053 -0.252,0.089 -0.402,0.105c0.039,0.025 0.073,0.058 0.104,0.099l1.169,1.514l-0.214,0c-0.026,0 -0.048,-0.006 -0.066,-0.015c-0.018,-0.01 -0.037,-0.027 -0.054,-0.05l-1.087,-1.419c-0.028,-0.037 -0.057,-0.062 -0.088,-0.077c-0.031,-0.015 -0.079,-0.022 -0.145,-0.022l-0.444,0Z" style="fill:#fff;fill-rule:nonzero;"/><path d="M85.793,59.887c-0.015,0.028 -0.035,0.042 -0.062,0.042c-0.022,0 -0.048,-0.015 -0.082,-0.046c-0.033,-0.031 -0.077,-0.064 -0.133,-0.101c-0.056,-0.038 -0.126,-0.072 -0.211,-0.103c-0.084,-0.031 -0.188,-0.047 -0.312,-0.047c-0.123,0 -0.232,0.018 -0.326,0.055c-0.094,0.036 -0.173,0.085 -0.236,0.148c-0.063,0.063 -0.112,0.135 -0.145,0.218c-0.032,0.082 -0.049,0.168 -0.049,0.259c0,0.119 0.025,0.217 0.074,0.295c0.048,0.077 0.113,0.143 0.193,0.197c0.08,0.055 0.171,0.101 0.272,0.137c0.103,0.038 0.207,0.074 0.315,0.111c0.107,0.036 0.212,0.076 0.313,0.119c0.102,0.045 0.193,0.099 0.273,0.165c0.08,0.066 0.144,0.147 0.194,0.244c0.048,0.096 0.072,0.216 0.072,0.359c0,0.147 -0.024,0.285 -0.072,0.415c-0.05,0.129 -0.12,0.241 -0.213,0.337c-0.093,0.096 -0.206,0.171 -0.341,0.226c-0.134,0.055 -0.288,0.083 -0.461,0.083c-0.223,0 -0.417,-0.041 -0.578,-0.122c-0.162,-0.082 -0.303,-0.193 -0.424,-0.335l0.067,-0.109c0.018,-0.025 0.041,-0.037 0.066,-0.037c0.015,0 0.034,0.01 0.056,0.03c0.022,0.02 0.05,0.043 0.082,0.073c0.031,0.028 0.07,0.06 0.115,0.094c0.045,0.033 0.097,0.065 0.157,0.093c0.058,0.029 0.126,0.054 0.204,0.074c0.077,0.02 0.164,0.029 0.261,0.029c0.135,0 0.255,-0.021 0.361,-0.063c0.106,-0.042 0.195,-0.099 0.268,-0.172c0.073,-0.072 0.129,-0.159 0.167,-0.258c0.038,-0.1 0.058,-0.207 0.058,-0.32c0,-0.124 -0.025,-0.226 -0.073,-0.306c-0.049,-0.079 -0.114,-0.146 -0.194,-0.2c-0.08,-0.054 -0.171,-0.099 -0.273,-0.135c-0.102,-0.036 -0.206,-0.072 -0.314,-0.106c-0.107,-0.035 -0.212,-0.074 -0.313,-0.116c-0.102,-0.043 -0.193,-0.098 -0.273,-0.165c-0.08,-0.067 -0.145,-0.15 -0.193,-0.25c-0.049,-0.1 -0.074,-0.224 -0.074,-0.375c0,-0.116 0.022,-0.229 0.065,-0.338c0.043,-0.109 0.107,-0.205 0.19,-0.288c0.084,-0.084 0.186,-0.15 0.309,-0.201c0.122,-0.049 0.262,-0.075 0.419,-0.075c0.177,0 0.335,0.029 0.475,0.087c0.14,0.057 0.267,0.146 0.384,0.264l-0.058,0.114Z" style="fill:#fff;fill-rule:nonzero;"/><path d="M88.692,59.461l0,0.21l-1.788,0l0,1.415l1.488,0l0,0.205l-1.488,0l0,1.459l1.788,0l0,0.21l-2.036,0l0,-3.499l2.036,0Z" style="fill:#fff;fill-rule:nonzero;"/><path d="M91.712,59.461l0,0.215l-1.193,0l0,3.284l-0.245,0l0,-3.284l-1.2,0l0,-0.215l2.638,0Z" style="fill:#fff;fill-rule:nonzero;"/><path d="M94.518,59.461l0,0.215l-1.193,0l0,3.284l-0.245,0l0,-3.284l-1.2,0l0,-0.215l2.638,0Z" style="fill:#fff;fill-rule:nonzero;"/><path d="M95.112,61.689l1.521,0l-0.693,-1.768c-0.011,-0.028 -0.022,-0.06 -0.033,-0.095c-0.012,-0.035 -0.023,-0.073 -0.034,-0.112c-0.011,0.039 -0.023,0.077 -0.033,0.112c-0.012,0.035 -0.023,0.068 -0.035,0.098l-0.693,1.765Zm2.273,1.271l-0.19,0c-0.022,0 -0.04,-0.006 -0.055,-0.018c-0.014,-0.012 -0.025,-0.028 -0.033,-0.048l-0.401,-1.017l-1.668,0l-0.399,1.017c-0.006,0.018 -0.017,0.033 -0.033,0.046c-0.016,0.014 -0.036,0.02 -0.057,0.02l-0.188,0l1.39,-3.499l0.244,0l1.39,3.499Z" style="fill:#fff;fill-rule:nonzero;"/></g></svg>