<?xml version="1.0" encoding="UTF-8" standalone="no"?><!DOCTYPE svg PUBLIC "-//W3C//DTD SVG 1.1//EN" "http://www.w3.org/Graphics/SVG/1.1/DTD/svg11.dtd"><svg width="100%" height="100%" viewBox="0 0 137 92" version="1.1" xmlns="http://www.w3.org/2000/svg" xmlns:xlink="http://www.w3.org/1999/xlink" xml:space="preserve" xmlns:serif="http://www.serif.com/" style="fill-rule:evenodd;clip-rule:evenodd;stroke-linejoin:round;stroke-miterlimit:2;"><g><rect x="0" y="0" width="136.525" height="91.019" style="fill:#006c35;"/><path d="M85.896,66.651l0.006,0c1.669,0.081 3.232,0.018 4.888,0.1c0.262,0.218 0.131,0.737 -0.044,0.825c-0.006,0.006 -0.019,0.012 -0.025,0.012l-0.019,0l-0.025,0c-0.537,-0.012 -0.856,-0.025 -1.393,-0.037c0,-0.025 -0.007,-0.057 -0.013,-0.082c-0.125,-0.381 -1.056,-0.35 -1.275,-0.056c0,0.006 -0.006,0.013 -0.012,0.019c0,0.006 -0.007,0.012 -0.007,0.019c-0.006,0.012 -0.012,0.025 -0.012,0.031c-0.006,0.012 -0.006,0.031 -0.006,0.044c0,0.012 -0.007,0.031 -0.007,0.037c-0.731,0.094 -1.387,-0.019 -2.118,-0.044c-0.213,-0.268 -0.188,-0.75 0.062,-0.868m-0.769,-4.113c-0.006,0 -0.006,0.006 -0.006,0.006c-1.081,0.275 -1.05,1.394 -0.356,1.888c-11.394,0 -28.881,-0.194 -32.625,-0.194c-2.1,0 -8.738,-0.25 -8.863,-0.25c1.419,2.081 3.482,2.506 6.182,2.55c5.056,0 28.506,-0.062 35.181,-0.062c-0.469,0.843 0.044,2.2 0.412,2.443c0.013,0.007 0.025,0.013 0.032,0.019c0.012,0.006 0.031,0.013 0.05,0.019l0.012,0c0.444,0.106 0.638,-0.219 0.788,-0.45c0.712,0.062 4.75,0.119 5.118,-0.006c0,0 0,-0.007 0.007,-0.007c0.25,0.369 0.493,0.719 0.968,0.657c0.832,-0.182 1.494,-0.269 1.513,-1.957c0,0 -0.088,-2.881 -1.975,-2.7c-0.45,0.069 -1.7,0.194 -1.7,0.194c-1.456,-0.169 -2.519,-0.187 -4.144,-0.25c0.144,-0.187 0.413,-0.962 0.081,-1.244c-0.081,-0.068 -0.206,-0.112 -0.381,-0.1l-0.006,0c0,0 -0.006,0.007 -0.013,0l-0.006,0c0,-0.006 -0.012,-0.006 -0.012,-0.006c-0.013,-0.006 -0.025,-0.019 -0.032,-0.031c0,0 -0.012,-0.006 -0.012,-0.013c-0.088,-0.118 -0.125,-0.412 -0.181,-0.487l-0.007,-0.006l-0.006,-0.007c0,0 -0.006,-0.006 -0.012,-0.006l-0.007,0Zm9.744,-19.731c-0.137,0.006 -0.275,0.019 -0.487,0.037c-0.219,0.05 -0.294,0.144 -0.338,0.419c0.019,0.406 0.269,0.388 0.525,0.55c0.144,0.188 0.244,0.363 -0.012,0.675c-0.244,0.219 -0.419,0.344 -0.663,0.563c-0.112,0.2 -0.181,0.5 0.169,0.593c0.644,0.182 2.144,-0.793 2.144,-0.812c0.243,-0.181 0.168,-0.531 0.15,-0.531c-0.15,-0.163 -0.463,-0.063 -0.682,-0.088c-0.1,0 -0.437,-0.05 -0.275,-0.35c0.132,-0.181 0.182,-0.294 0.269,-0.519c0.1,-0.225 0.013,-0.375 -0.35,-0.5c-0.181,-0.031 -0.312,-0.043 -0.45,-0.037m-23.331,-0.869c-0.081,-0.006 -0.163,0.006 -0.25,0.05c-0.019,0 -0.763,0.506 -1.006,0.856c-0.144,0.113 -0.132,0.213 -0.088,0.407c0.119,0.262 0.319,0.181 0.55,0.056c0.306,-0.044 0.45,0.162 0.431,0.525c-0.143,0.456 0.057,0.625 0.057,0.656c0,0.025 0.293,0.281 0.637,0.075c0.725,-0.275 1.175,-0.544 2.194,-0.769c0.269,-0.006 0.25,-0.718 -0.169,-0.743c-0.55,0.031 -1.062,0.056 -1.612,0.487c-0.332,0.081 -0.394,-0.125 -0.469,-0.312c-0.088,-0.457 0.194,-0.782 0.137,-1.125c0.013,0.018 -0.175,-0.15 -0.412,-0.163m-36.438,-2.237c-0.043,0 -0.131,0.131 -0.25,0.287c-1.075,1.706 -1.168,4.25 -0.581,5.006c0.319,0.357 0.831,0.519 1.219,0.407c0.669,-0.294 0.962,-1.657 0.8,-2.15c-0.219,-0.35 -0.4,-0.413 -0.619,-0.113c-0.475,0.963 -0.675,0.306 -0.712,-0.231c-0.075,-1.019 0.025,-1.956 0.137,-2.694c0.056,-0.381 0.056,-0.512 0.006,-0.512m28.388,-1.238l0.075,0c0.725,0.2 1.794,0.219 2.719,0.319c0.756,0.044 1.131,0.637 0.425,0.881c-0.7,0.244 -1.369,0.425 -1.375,1.438c0.093,0.5 0.075,0.762 -0.007,0.881c-0.006,0.006 -0.012,0.019 -0.018,0.025l-0.007,0.006l-0.006,0.006l-0.006,0.007l-0.006,0.006l-0.013,0.006c-0.012,0.006 -0.025,0.013 -0.037,0.013c-0.007,0.006 -0.019,0.006 -0.032,0.006c-0.162,0.025 -0.406,-0.131 -0.581,-0.225c-0.437,-0.313 -1.637,-1.056 -1.812,-2.663c-0.025,-0.362 0.25,-0.675 0.681,-0.706m-11.619,-1.587c-0.281,0.018 -0.531,0.175 -0.425,0.568c-0.019,0.294 0.8,0.644 0.85,1.313c0.119,0.275 -0.169,1.156 0.069,1.237c0.225,0.094 0.531,-0.606 0.65,-1.262c0.062,-0.356 -0.281,-1.606 -0.863,-1.831c-0.093,-0.019 -0.187,-0.032 -0.281,-0.025m38.831,-1.75c-0.318,0.037 -0.625,0.343 -0.487,0.825c-0.088,0.281 0.437,1.275 0.569,1.8c0.125,0.381 -0.157,1.437 0.1,1.55c0.231,0.125 0.85,-0.632 0.825,-1.575c0.062,-0.488 -0.175,-2.282 -0.788,-2.588c-0.069,-0.012 -0.15,-0.019 -0.219,-0.012m-45.725,-0.719c0.175,0.006 0.369,0.094 0.463,0.337c0.087,0.232 0.006,0.463 -0.1,0.582l0,0.006c0,0 -0.006,0.006 -0.006,0.012c-0.075,0.094 -0.344,0.057 -0.532,0.057c-0.225,-0.013 -0.337,-0.05 -0.475,-0.238c-0.068,-0.2 0.132,-0.406 0.225,-0.556l0,-0.006c0.013,-0.019 0.032,-0.032 0.044,-0.05c0.063,-0.063 0.181,-0.119 0.306,-0.138c0.025,0 0.05,-0.006 0.075,-0.006m-5.825,-0.806c-1.8,0.031 -4.431,2.356 -4.493,3.65c1.893,-0.913 3.756,-1.788 5.687,-2.732c-0.312,-0.462 -0.019,-0.887 -1.194,-0.918m30.388,-0.625c0.137,-0.013 0.331,0.037 0.506,0.137c0.256,0.15 0.413,0.375 0.394,0.538l0,0.018c0,0.007 -0.013,0.013 -0.013,0.019c0,0.006 0,0.013 -0.006,0.019c0,0 0,0.006 -0.006,0.006c0,0.006 0,0.013 -0.006,0.013c-0.007,0.012 -0.013,0.031 -0.025,0.043c-0.132,0.113 -0.419,0.094 -0.688,-0.062c-0.256,-0.144 -0.412,-0.375 -0.394,-0.538c0,0 0.007,-0.012 0.007,-0.018c0,-0.019 0.012,-0.038 0.018,-0.057c0.007,-0.006 0.013,-0.018 0.013,-0.025c0,0 0.006,0 0.006,-0.006c0.006,-0.006 0.013,-0.012 0.025,-0.025c0.044,-0.031 0.1,-0.056 0.169,-0.062m21.837,-0.363c-0.018,-0.006 -0.043,-0.006 -0.068,0.006c0,0 -3.463,2.463 -3.55,2.55c-0.344,0.307 -0.169,1.382 0,1.263c0.25,0.094 3.737,-2.275 3.675,-2.556c0.15,0.012 0.225,-1.213 -0.057,-1.263m-25.118,-1.031c-0.132,0.025 -0.269,0.137 -0.307,0.319c-0.031,0.118 0.05,0.318 -0.056,0.381c-0.062,0.062 -0.306,0.025 -0.294,-0.306c0,-0.107 -0.081,-0.225 -0.131,-0.294c-0.044,-0.031 -0.069,-0.038 -0.156,-0.038c-0.106,0 -0.113,0.032 -0.163,0.119c-0.025,0.088 -0.056,0.175 -0.056,0.275c-0.012,0.119 -0.056,0.163 -0.15,0.181c-0.094,0 -0.069,0.013 -0.15,-0.043c-0.044,-0.05 -0.106,-0.069 -0.106,-0.157c0,-0.093 -0.019,-0.237 -0.044,-0.293c-0.044,-0.057 -0.112,-0.082 -0.194,-0.1c-0.406,0 -0.431,0.468 -0.406,0.643c-0.031,0.032 -0.05,0.875 0.506,1.107c0.75,0.356 2.532,0.143 2.1,-1.007c0,-0.106 -0.031,-0.468 -0.037,-0.568c-0.081,-0.175 -0.219,-0.244 -0.356,-0.219m-6.225,-0.981c-0.007,0.006 -0.019,0.012 -0.025,0.018c-0.007,0 -0.019,0.007 -0.019,0.013c-0.069,0.056 -0.156,0.181 -0.35,0.319c-0.325,0.368 -0.388,0.625 -0.369,1.368c0.019,0.082 0.625,1.75 1.131,2.919c0.344,1.219 0.657,2.613 0.425,3.931c-0.806,1.744 -2.412,3.307 -3.968,4.157c-0.794,0.25 -1.482,0.162 -1.663,-0.007c0,-0.006 -0.006,-0.006 -0.006,-0.006c-0.45,-0.306 -0.463,-0.856 -0.438,-0.944l0,-0.006l0.007,-0.006c1.312,-0.919 2.812,-1.656 3.987,-4.125c0.344,-0.944 0.456,-1.513 0.106,-2.969c-0.137,-0.544 -0.3,-0.994 -0.675,-1.381l0.007,0c0.231,-0.113 0.806,0.319 0.9,0.05c-0.138,-0.7 -0.613,-1.631 -1.15,-2.113c-0.463,-0.425 -0.975,-0.475 -1.4,-0.081c-0.482,0.269 -0.588,1.231 -0.357,2.075c0.263,0.631 0.957,0.744 1.457,2.025l0,0.006c0.006,0.075 0.168,0.95 -0.082,1.307c-0.2,0.631 -2.806,2.687 -2.993,2.806c-0.007,0.006 -0.019,0.012 -0.019,0.012l-0.006,0.007l-0.007,0.006l-0.006,0.006l-0.006,0l-0.006,-0.006l0,-0.006c0,0 0,-0.007 -0.007,-0.013c-0.006,-0.05 0.007,-0.181 0,-0.394c-0.012,-0.381 0.144,-1.25 0.132,-1.4l0,-0.006l-0.007,-0.006l0,-0.006l-0.006,0c-0.862,0.556 -1.144,2.262 -1.306,2.762c-2.181,1.513 -4.65,2.631 -6.081,4.156c-0.738,1.157 5.118,-1.331 5.8,-1.631c0.006,0 0.012,0.013 0.018,0.019c0.132,0.137 0.144,0.637 0.525,1.081c0.613,0.825 1.907,1.331 3.169,1.019c2.113,-0.763 3.325,-2.206 4.563,-3.8c0.181,-0.256 0.456,-0.463 0.712,-0.263c0.85,1.907 3.306,3.263 6.481,3.407c0.732,-0.894 0.382,-1.332 0.082,-1.525c-0.088,-0.057 -1.575,-0.638 -1.807,-1.213c-0.143,-0.537 0.213,-1.012 0.919,-1.375c2.038,-0.244 4.038,-0.519 5.975,-1.137c0.019,-0.657 0.4,-1.632 0.656,-2.05c0.188,-0.294 0.294,-0.325 0.338,-0.369c0.006,0 0.006,0 0.006,-0.006l0.006,0l0.007,-0.007l0,-0.012c0,-0.013 0,-0.031 -0.007,-0.056l-0.331,-0.194l-6.5,-0.025c-0.075,-0.031 -0.137,-0.069 -0.175,-0.094c-0.006,-0.006 -0.006,-0.006 -0.012,-0.012c0,0 -0.007,0 -0.007,-0.007c0,0 -0.006,0 -0.006,-0.006l-0.006,-0.006c0,-0.006 -0.006,-0.006 -0.006,-0.006l0,-0.007c0,0 0,-0.006 -0.007,-0.006l0,-0.006l0,-0.006l0,-0.007l0,-0.006l0,-0.006l0,-0.006l0,-0.007l0,-0.006c0.007,0 0.007,0 0.007,-0.006c0.006,0 0.006,-0.006 0.006,-0.006c0.037,-0.044 0.112,-0.088 0.206,-0.125c1.55,-0.207 4.313,-0.663 4.494,-3.313c-0.031,-1.381 -0.594,-2.287 -2.281,-2.537c-1.25,0.093 -2.138,1.3 -2,2.631c-0.05,0.356 0.125,1.056 -0.244,1.131c-2.381,0.225 -4.994,1.719 -5.081,2.794l-0.007,0c0,0 -0.006,0 -0.006,0.006l-0.012,0l-0.013,0c0,0.006 -0.012,0.006 -0.012,0.006l-0.007,0l-0.012,0l-0.006,0l-0.013,0c-0.006,0 -0.019,0 -0.025,-0.006c-0.15,-0.044 -0.35,-0.3 -0.319,-0.656c-0.093,-1.856 -0.7,-3.95 -1.637,-5.563c-0.338,-0.337 -0.488,-0.475 -0.581,-0.493l-0.013,0l-0.019,0l-0.006,0l-0.006,0l-0.006,0Zm29.418,-2.45c-0.362,-0.019 -0.756,0.218 -0.85,0.725c0,0.293 0.132,0.456 0.1,0.725c-0.037,0.156 -0.193,0.256 -0.575,0.075c0.063,-0.057 -0.243,-0.482 -0.243,-0.482c-0.294,-0.181 -0.688,0.007 -0.944,0.175c-0.138,0.257 -0.244,0.694 -0.088,1.144c0.432,0.781 1.875,2.113 2.569,2.125c0.013,-0.706 0.081,-1.644 0.119,-2.225c0.019,-0.219 0.069,-0.462 0.281,-0.512c0.213,-0.057 0.575,0.206 0.581,-0.019c-0.037,-0.45 -0.131,-1.113 -0.381,-1.425c-0.131,-0.194 -0.344,-0.294 -0.569,-0.306m-35.537,-0.169c-0.094,-0.006 -0.213,0.025 -0.356,0.112c-0.657,0.357 -0.913,1.419 -0.507,2.044c0.394,0.544 0.994,0.344 1.082,0.344c0.643,0.081 1.031,-1.213 1.031,-1.213c0,0 0.019,-0.368 -0.75,0.319c-0.325,0.063 -0.369,-0.05 -0.444,-0.237c-0.069,-0.338 -0.056,-0.682 0.094,-1.019c0.075,-0.2 0,-0.331 -0.15,-0.35m25.144,-0.25c-0.138,0.025 -0.269,0.144 -0.319,0.331c-0.025,0.119 0.062,0.313 -0.044,0.375c-0.062,0.063 -0.306,0.025 -0.3,-0.312c0,-0.107 -0.075,-0.219 -0.125,-0.288c-0.05,-0.031 -0.075,-0.037 -0.162,-0.037c-0.107,0 -0.107,0.031 -0.157,0.118c-0.025,0.088 -0.062,0.175 -0.062,0.275c-0.013,0.119 -0.056,0.163 -0.144,0.175c-0.094,0 -0.075,0.013 -0.156,-0.037c-0.05,-0.05 -0.106,-0.069 -0.106,-0.156c0,-0.094 -0.025,-0.238 -0.05,-0.3c-0.038,-0.05 -0.107,-0.075 -0.182,-0.094c-0.406,0 -0.431,0.462 -0.406,0.644c-0.031,0.031 -0.05,0.868 0.506,1.1c0.75,0.356 2.163,0.2 2.1,-1.007c0,-0.106 -0.031,-0.462 -0.043,-0.562c-0.075,-0.175 -0.213,-0.244 -0.35,-0.225m-5.513,-2.706c0.038,0.143 0.069,0.287 0.088,0.437c0.075,0.313 0.137,0.625 0.2,0.938c-0.275,-0.382 -0.507,-0.688 -0.6,-0.8c-0.625,-0.744 0.012,-0.488 0.312,-0.575m23.913,-0.588c-0.357,-0.012 -0.738,0.25 -0.588,0.775c-0.087,0.281 0.75,1.244 0.881,1.769c0.125,0.375 -0.181,1.587 0.069,1.7c0.231,0.125 0.563,-0.838 0.688,-1.725c0.062,-0.488 -0.294,-2.194 -0.907,-2.494c-0.05,-0.019 -0.1,-0.025 -0.143,-0.025m-43.238,-1.125c0.175,-0.019 0.381,0.144 0.488,0.369c0.106,0.244 0.056,0.475 -0.125,0.519c-0.182,0.043 -0.413,-0.113 -0.525,-0.357c-0.107,-0.243 -0.057,-0.481 0.131,-0.525c0.012,0 0.019,-0.006 0.031,-0.006m23.306,-0.812c-0.381,-0.013 -0.812,0.225 -0.643,0.706c-0.094,0.262 0.818,1.15 0.975,1.637c0.268,0.75 -0.207,1.463 0.075,1.569c0.256,0.113 0.606,-0.775 0.743,-1.594c0.15,-0.662 -0.318,-2.025 -0.987,-2.306c-0.056,-0.012 -0.106,-0.012 -0.163,-0.012m-29.918,-0.019c-0.107,0.012 -0.225,0.075 -0.369,0.106c-0.463,0.15 -0.9,0.55 -0.763,1.331c0.55,3.338 0.913,5.882 1.457,9.219c0.081,0.394 -0.238,0.906 -0.669,0.856c-0.713,-0.487 -0.888,-1.468 -2.119,-1.431c-0.887,0.013 -1.894,0.981 -2.025,1.906c-0.144,0.738 -0.2,1.544 0,2.188c0.625,0.75 1.375,0.669 2.025,0.5c0.538,-0.219 0.988,-0.75 1.175,-0.625l0.006,0.006c0.119,0.2 -0.012,1.938 -2.537,3.281c-1.55,0.694 -2.794,0.863 -3.456,-0.406c-0.407,-0.787 0.031,-3.806 -0.982,-3.112c-3,7.731 7.025,8.812 8.144,0.318c0.075,-0.237 0.294,-0.475 0.45,-0.418c0.069,0.025 0.131,0.118 0.15,0.293c-0.231,7.688 -7.75,8.219 -9.031,5.8c-0.313,-0.568 -0.413,-1.837 -0.438,-2.6c-0.062,-0.462 -0.181,-0.725 -0.312,-0.831c-0.3,-0.231 -0.719,0.369 -0.8,1.406c-0.131,0.832 -0.094,1.063 -0.094,1.863c0.406,6.075 10.081,3.462 11.656,-1.55c0.775,-2.594 -0.018,-4.55 0.244,-4.788c0,-0.006 0.006,-0.006 0.013,-0.006c0,-0.006 0.006,-0.006 0.012,-0.006l0.006,-0.006c0.013,-0.007 0.025,-0.007 0.038,-0.007c0.962,1.038 2.306,0.132 2.606,-0.231c0.131,-0.175 0.444,-0.294 0.669,-0.062c0.75,0.543 2.062,0.287 2.337,-0.663c0.157,-0.931 0.294,-1.887 0.319,-2.881c-0.487,0.156 -0.875,0.269 -1.037,0.437c-0.038,0.038 -0.063,0.082 -0.075,0.132c-0.038,0.275 -0.082,0.556 -0.125,0.825c-0.007,0.025 -0.013,0.043 -0.025,0.062c-0.019,0.038 -0.057,0.063 -0.088,0.088c-0.175,0.093 -0.475,0.037 -0.494,-0.213c-0.231,-1.056 -1.187,-1.194 -1.768,0.444c-0.388,0.319 -1.1,0.381 -1.175,-0.094c0.093,-1.1 -0.35,-1.244 -1.232,-0.731c-0.287,-2.175 -0.568,-4.25 -0.856,-6.425c0.369,-0.013 0.706,0.256 1.05,-0.169c-0.369,-1.137 -1.144,-3.45 -1.575,-3.662l-0.012,-0.007c-0.019,-0.025 -0.044,-0.05 -0.063,-0.068l-0.062,-0.038c-0.019,-0.006 -0.038,-0.012 -0.05,-0.019c-0.044,-0.012 -0.082,-0.018 -0.125,-0.012m-7.675,-0.013c-0.213,0.025 -0.407,0.194 -0.507,0.425c-0.031,0.813 -0.031,1.625 0.057,2.369c0.368,1.313 0.481,2.469 0.668,3.813c0.044,1.8 -1.043,0.781 -1,-0.113c0.263,-1.156 0.188,-2.981 -0.031,-3.45c-0.181,-0.456 -0.387,-0.575 -0.812,-0.5c-0.344,-0.019 -1.232,0.944 -1.482,2.544c0,0 -0.206,0.812 -0.287,1.544c-0.125,0.825 -0.669,1.406 -1.05,-0.113c-0.331,-1.106 -0.531,-3.831 -1.081,-3.194c-0.163,2.125 -0.344,5.869 1.462,6.25c2.188,0.213 0.975,-3.687 1.769,-4.4c0.15,-0.35 0.425,-0.356 0.45,0.082l0,3.318c-0.019,1.082 0.687,1.4 1.237,1.625c0.575,-0.043 0.95,-0.031 1.175,0.525c0.094,1.913 0.188,3.832 0.275,5.744c0,0 1.325,0.375 1.388,-3.225c0.069,-2.119 -0.419,-3.894 -0.138,-4.306c0.013,-0.406 0.532,-0.431 0.888,-0.231c0.575,0.406 0.831,0.9 1.712,0.7c1.35,-0.375 2.169,-1.025 2.188,-2.063c-0.081,-0.987 -0.194,-1.975 -0.625,-2.962c0.062,-0.175 -0.256,-0.644 -0.194,-0.825c0.238,0.387 0.613,0.35 0.694,0c-0.231,-0.757 -0.588,-1.482 -1.169,-1.794c-0.475,-0.419 -1.175,-0.331 -1.431,0.544c-0.119,1.012 0.369,2.212 1.1,3.193c0.162,0.382 0.381,1.019 0.281,1.594c-0.387,0.225 -0.781,0.125 -1.112,-0.219c0,0 -1.069,-0.806 -1.069,-0.981c0.287,-1.825 0.056,-2.037 -0.1,-2.544c-0.113,-0.7 -0.438,-0.925 -0.706,-1.4c-0.269,-0.287 -0.638,-0.287 -0.813,0c-0.469,0.825 -0.25,2.594 0.088,3.388c0.256,0.725 0.631,1.181 0.456,1.181c-0.15,0.413 -0.456,0.313 -0.681,-0.162c-0.313,-0.982 -0.375,-2.444 -0.375,-3.107c-0.1,-0.818 -0.2,-2.562 -0.744,-3.006c-0.144,-0.2 -0.313,-0.262 -0.481,-0.244m40.681,-0.156c-0.069,0.006 -0.163,0.125 -0.306,0.425c-0.338,0.55 -0.563,1.513 -0.538,2.413c0.731,5.062 0.956,9.493 1.431,14.556c0.038,0.494 -0.031,1.2 -0.362,1.487c-1.2,1.257 -2.931,2.807 -4.825,3.519c-0.2,0.231 0.506,1.206 1.419,1.2c1.537,-0.175 2.881,-1.037 4.137,-3.306c0.325,-0.525 0.919,-1.656 0.931,-2.531c0.125,-5.144 -0.256,-9.144 -1.025,-12.863c-0.05,-0.356 -0.018,-0.787 0.044,-0.894c0.094,-0.118 0.438,0 0.613,-0.293c0.262,-0.263 -0.7,-2.482 -1.244,-3.338c-0.106,-0.212 -0.175,-0.387 -0.275,-0.375m-26.256,-0.012c-0.263,0.012 -0.488,0.087 -0.682,0.187c-0.493,0.475 -0.612,1.238 -0.218,1.713c0.375,0.181 0.756,0.562 0.506,0.775c-1.081,1.15 -3.875,3.068 -4.019,3.418c-0.006,0 -0.006,0.007 -0.006,0.013l0.006,0.031l0.019,0.006l0.006,0.007c0.138,0.093 1.894,0.093 2.088,0.006l0.006,-0.006l0.006,0l0,-0.007c0.606,-0.218 3.463,-3.487 3.463,-3.487c-0.15,-0.125 -0.288,-0.219 -0.438,-0.344c-0.156,-0.137 -0.137,-0.275 0,-0.412c0.713,-0.413 0.481,-1.313 0.119,-1.725c-0.313,-0.138 -0.6,-0.188 -0.856,-0.175m-10.044,-0.013c-0.138,0.025 -0.269,0.138 -0.313,0.319c-0.031,0.125 0.05,0.325 -0.062,0.381c-0.063,0.063 -0.3,0.025 -0.288,-0.312c0,-0.107 -0.075,-0.213 -0.125,-0.282c-0.05,-0.031 -0.081,-0.037 -0.168,-0.037c-0.1,0 -0.1,0.025 -0.157,0.119c-0.025,0.087 -0.056,0.175 -0.056,0.275c-0.019,0.118 -0.062,0.156 -0.15,0.175c-0.1,0 -0.075,0.012 -0.156,-0.038c-0.044,-0.05 -0.1,-0.075 -0.1,-0.156c0,-0.094 -0.025,-0.238 -0.05,-0.3c-0.044,-0.05 -0.113,-0.081 -0.181,-0.1c-0.413,0 -0.444,0.469 -0.419,0.65c-0.031,0.031 -0.044,0.862 0.512,1.094c0.75,0.356 2.157,0.206 2.094,-1c0,-0.107 -0.025,-0.463 -0.037,-0.563c-0.069,-0.181 -0.213,-0.25 -0.344,-0.225m39.137,-0.106c-0.056,0.012 -0.156,0.106 -0.325,0.337c-0.431,1.4 -0.581,2.544 -0.418,3.413c1.1,5.737 2.231,10.969 2.043,16.431c0.525,0.006 1.132,-1.194 1.388,-2.375c0.144,-1.631 -0.1,-2.625 -0.138,-3.581c-0.037,-0.963 -1.081,-8.744 -1.293,-9.469c-0.257,-1.375 1.012,-0.181 0.875,-0.981c-0.438,-1 -1.538,-2.469 -1.882,-3.344c-0.125,-0.231 -0.143,-0.45 -0.25,-0.431m16.082,-0.081c-0.082,0.006 -0.175,0.125 -0.313,0.425c-0.337,0.55 -0.45,1.543 -0.319,2.418c0.813,5.494 1.419,10.819 1.544,15.694c-0.075,0.463 -0.094,0.706 -0.306,1.288c-0.481,0.618 -1.013,1.387 -1.506,1.762c-0.5,0.369 -1.563,0.719 -1.913,1c-1.094,0.631 -1.1,1.369 -0.212,1.388c1.531,-0.175 3.343,-0.3 4.6,-2.188c0.331,-0.525 0.725,-1.962 0.743,-2.837c0.113,-5.138 -0.068,-10.169 -0.837,-13.882c-0.05,-0.362 -0.206,-1.2 -0.144,-1.306c0.094,-0.256 0.594,0.025 0.775,-0.269c0.263,-0.268 -1.294,-2.262 -1.837,-3.112c-0.113,-0.219 -0.182,-0.394 -0.275,-0.381m-63.157,-0.013c-0.331,-0.006 -0.687,0.194 -0.55,0.594c-0.081,0.219 0.65,0.944 0.775,1.35c0.119,0.287 -0.112,1.206 0.125,1.287c0.219,0.094 0.525,-0.637 0.638,-1.312c0.062,-0.369 0.012,-1.638 -0.844,-1.9c-0.044,-0.006 -0.094,-0.013 -0.144,-0.019m55.438,-0.056c-0.088,-0.013 -0.194,0.031 -0.313,0.2c-0.212,0.187 -0.443,0.537 -0.437,0.981c0.05,0.775 0.187,1.575 0.244,2.356c0.018,0.107 0.037,0.207 0.056,0.319c-0.088,-0.112 -0.156,-0.194 -0.194,-0.237c-1.525,-1.6 0.694,-0.263 -0.294,-1.494c-0.837,-0.919 -1.081,-1.213 -1.793,-1.769c-0.363,-0.231 -0.582,-0.669 -0.7,0.081c-0.044,0.669 -0.094,1.432 -0.05,1.994c0,0.313 0.318,0.894 0.593,1.238c1.019,1.25 2.057,2.575 3.094,3.962c0.225,2.825 0.281,5.413 0.506,8.238c-0.031,1.212 -0.406,2.818 -0.762,2.968c0,0 -0.531,0.313 -0.894,-0.031c-0.262,-0.1 -1.306,-1.744 -1.306,-1.744c-0.538,-0.493 -0.9,-0.35 -1.275,0c-1.05,1.013 -1.525,2.919 -2.244,4.225c-0.181,0.294 -0.7,0.544 -1.281,-0.025c-1.463,-2 -0.606,-4.85 -0.788,-4.118c-1.306,1.475 -0.731,3.906 -0.431,4.431c0.425,0.862 0.775,1.419 1.613,1.837c0.762,0.563 1.362,0.213 1.681,-0.181c0.769,-0.794 0.781,-2.831 1.144,-3.225c0.25,-0.744 0.887,-0.619 1.187,-0.287c0.3,0.425 0.656,0.706 1.094,0.943c0.719,0.632 1.575,0.744 2.419,0.169c0.575,-0.319 0.943,-0.737 1.281,-1.569c0.362,-0.962 0.181,-6.031 0.106,-8.85c0.544,0.757 1.069,1.538 1.6,2.325c0.238,2.475 0.338,4.913 0.263,7.25c-0.05,0.463 1.618,-1.393 1.606,-2.268c-0.006,-0.763 0.006,-1.463 0,-2.107c0.819,1.294 1.606,2.613 2.344,3.95c0.468,-0.243 0.306,-2.85 0.012,-3.212c-0.775,-1.306 -1.775,-2.719 -2.544,-3.813c-0.15,-1.381 -0.362,-3.006 -0.456,-3.5c-0.15,-0.781 -0.294,-1.943 -0.519,-2.868c-0.062,-0.363 -0.243,-1.513 -0.187,-1.625c0.087,-0.257 0.437,0.012 0.6,-0.288c0.256,-0.275 -0.869,-3.206 -1.444,-4.037c-0.206,-0.375 -0.581,-0.25 -1.044,0.362c-0.431,0.4 -0.268,1.319 -0.112,2.188c0.431,2.212 0.806,4.468 1.106,6.718c-0.556,-0.825 -1.231,-1.825 -1.9,-2.787c-0.019,-0.094 -0.081,-0.431 -0.081,-0.438c0,-0.037 -0.094,-1.812 -0.175,-2.237c-0.013,-0.169 -0.056,-0.219 0.125,-0.194c0.194,0.163 0.219,0.169 0.331,0.219c0.2,0.037 0.369,-0.288 0.25,-0.588c-0.594,-1.1 -1.194,-2.2 -1.787,-3.3c-0.069,-0.075 -0.15,-0.15 -0.244,-0.162m-21.475,-0.219c-0.2,0.019 -0.344,0.125 -0.406,0.406c-0.069,0.663 -0.038,1.019 0.075,1.575c0.087,0.363 0.625,0.975 0.887,1.332c1.256,1.687 2.456,3.381 3.631,5.137c0.182,1.306 0.313,2.575 0.4,3.844c0.188,2.787 0.244,6.25 0.075,9.181c0.519,0.019 1.357,-0.844 1.65,-2.106c0.188,-1.744 -0.068,-5.313 -0.087,-6.344c-0.013,-0.431 -0.038,-0.937 -0.069,-1.475c1.356,2.219 2.675,4.569 3.969,7.144c0.469,-0.219 0.362,-2.875 0.087,-3.244c-1.037,-2.231 -2.462,-4.425 -2.918,-5.269c-0.169,-0.306 -0.719,-1.156 -1.388,-2.137c-0.119,-1.406 -0.256,-2.588 -0.344,-2.95c-0.212,-1.481 0.613,0.169 0.494,-0.694c-0.262,-1.481 -1.075,-2.487 -2.044,-3.837c-0.306,-0.444 -0.306,-0.532 -0.787,0.106c-0.288,0.65 -0.281,1.194 -0.2,1.7c-0.119,-0.181 -0.281,-0.4 -0.506,-0.669c-0.832,-0.719 -0.888,-0.756 -1.575,-1.337c-0.213,-0.157 -0.625,-0.394 -0.944,-0.363m-7.25,-0.131c-0.188,0.012 -0.394,0.231 -0.556,0.65c-0.15,0.312 -0.319,1.969 -0.294,1.969c-0.113,0.493 0.519,0.706 0.806,0.068c0.425,-1.162 0.431,-1.656 0.456,-2.15c-0.068,-0.375 -0.225,-0.556 -0.412,-0.537m1.962,-0.156c-0.118,0.018 -0.268,0.168 -0.468,0.537c-0.144,0.381 -0.769,0.963 -0.319,2.163c0.369,0.756 0.519,1.993 0.356,3.362c-0.256,0.394 -0.319,0.525 -0.65,0.919c-0.469,0.506 -0.981,0.381 -1.375,0.187c-0.362,-0.243 -0.65,-0.368 -0.812,-1.156c0.025,-1.244 0.1,-3.287 -0.132,-3.719c-0.337,-0.668 -0.887,-0.431 -1.125,-0.225c-1.137,1.038 -1.7,2.794 -2.043,4.188c-0.319,1.019 -0.65,0.725 -0.882,0.319c-0.575,-0.544 -0.618,-4.75 -1.312,-4.057c-1.113,3.169 0.637,6.65 1.85,6.313c0.869,0.362 1.425,-1.306 1.787,-3.125c0.244,-0.513 0.432,-0.569 0.557,-0.306c-0.032,2.425 0.175,2.962 0.8,3.7c1.381,1.068 2.537,0.131 2.618,0.043c0.094,-0.087 1.082,-1.081 1.082,-1.081c0.243,-0.256 0.562,-0.269 0.906,-0.044c0.331,0.3 0.287,0.813 0.994,1.175c0.593,0.238 1.868,0.057 2.162,-0.456c0.394,-0.681 0.494,-0.912 0.675,-1.169c0.281,-0.375 0.769,-0.212 0.769,-0.093c-0.05,0.212 -0.331,0.418 -0.138,0.8c0.338,0.25 0.413,0.087 0.613,0.031c0.706,-0.338 1.237,-1.863 1.237,-1.863c0.025,-0.575 -0.293,-0.531 -0.5,-0.412c-0.268,0.162 -0.287,0.219 -0.556,0.387c-0.35,0.05 -1.012,0.282 -1.344,-0.231c-0.337,-0.619 -0.343,-1.475 -0.6,-2.094c0,-0.05 -0.45,-0.975 -0.037,-1.037c0.212,0.037 0.669,0.156 0.737,-0.225c0.225,-0.363 -0.475,-1.413 -0.95,-1.938c-0.406,-0.45 -0.975,-0.506 -1.531,-0.043c-0.387,0.356 -0.325,0.75 -0.406,1.125c-0.094,0.431 -0.075,0.962 0.362,1.537c0.388,0.756 1.082,1.731 0.857,3.106c0,0 -0.413,0.65 -1.125,0.569c-0.3,-0.069 -0.782,-0.194 -1.038,-2.1c-0.194,-1.444 0.05,-3.462 -0.569,-4.406c-0.131,-0.356 -0.256,-0.706 -0.45,-0.681m-6.2,-0.032c-0.075,-0.006 -0.175,0.038 -0.325,0.125c-0.337,0.225 -0.993,0.907 -1.012,1.7c-0.019,0.444 -0.106,0.444 0.187,0.732c0.207,0.3 0.425,0.275 0.844,0.05c0.25,-0.182 0.331,-0.294 0.413,-0.6c0.1,-0.507 -0.538,0.237 -0.613,-0.325c-0.144,-0.525 0.263,-0.738 0.644,-1.244c0.012,-0.238 0.012,-0.438 -0.138,-0.438" style="fill:#fff;fill-rule:nonzero;"/></g></svg>