<?xml version="1.0" encoding="UTF-8" standalone="no"?><!DOCTYPE svg PUBLIC "-//W3C//DTD SVG 1.1//EN" "http://www.w3.org/Graphics/SVG/1.1/DTD/svg11.dtd"><svg width="100%" height="100%" viewBox="0 0 138 80" version="1.1" xmlns="http://www.w3.org/2000/svg" xmlns:xlink="http://www.w3.org/1999/xlink" xml:space="preserve" xmlns:serif="http://www.serif.com/" style="fill-rule:evenodd;clip-rule:evenodd;stroke-linejoin:round;stroke-miterlimit:2;"><g><path d="M6.631,54.224l0,1.396l-4.896,0l0,3.404l4.157,0l0,1.396l-4.157,0l0,4.438l-1.735,0l0,-10.634l6.631,0Z" style="fill:#a087a4;fill-rule:nonzero;"/><path d="M16.134,63.41l4.416,0l0,1.447l-6.144,0l0,-10.634l1.728,0l0,9.187Z" style="fill:#a087a4;fill-rule:nonzero;"/><path d="M34.72,54.224l0,1.396l-4.896,0l0,3.205l3.914,0l0,1.351l-3.914,0l0,3.286l4.904,0l-0.008,1.396l-6.631,0l0,-10.634l6.631,0Z" style="fill:#a087a4;fill-rule:nonzero;"/><path d="M46.844,63.462c0.409,0 0.774,-0.069 1.097,-0.206c0.322,-0.139 0.595,-0.331 0.82,-0.576c0.223,-0.247 0.395,-0.544 0.512,-0.89c0.119,-0.347 0.178,-0.733 0.178,-1.156l0,-6.41l1.72,0l0,6.41c0,0.625 -0.099,1.203 -0.299,1.735c-0.199,0.532 -0.486,0.991 -0.86,1.378c-0.374,0.385 -0.828,0.689 -1.362,0.908c-0.535,0.219 -1.137,0.328 -1.806,0.328c-0.669,0 -1.271,-0.109 -1.805,-0.328c-0.534,-0.219 -0.988,-0.523 -1.362,-0.908c-0.375,-0.387 -0.661,-0.846 -0.861,-1.378c-0.199,-0.532 -0.299,-1.11 -0.299,-1.735l0,-6.41l1.728,0l0,6.403c0,0.423 0.059,0.808 0.177,1.155c0.119,0.347 0.288,0.646 0.51,0.894c0.221,0.248 0.493,0.441 0.816,0.58c0.322,0.137 0.688,0.206 1.096,0.206" style="fill:#a087a4;fill-rule:nonzero;"/><path d="M61.354,59.319l1.359,0c0.393,0 0.738,-0.047 1.034,-0.144c0.295,-0.095 0.541,-0.23 0.738,-0.402c0.197,-0.172 0.344,-0.377 0.443,-0.617c0.098,-0.238 0.148,-0.503 0.148,-0.794c0,-0.581 -0.192,-1.023 -0.576,-1.328c-0.384,-0.306 -0.965,-0.458 -1.743,-0.458l-1.403,0l0,3.743Zm0,1.256l0,4.283l-1.728,0l0,-10.634l3.131,0c0.699,0 1.301,0.072 1.806,0.215c0.504,0.142 0.919,0.346 1.244,0.609c0.325,0.263 0.565,0.58 0.72,0.949c0.155,0.369 0.232,0.78 0.232,1.233c0,0.37 -0.055,0.714 -0.166,1.034c-0.111,0.32 -0.271,0.61 -0.48,0.871c-0.209,0.261 -0.468,0.487 -0.775,0.679c-0.308,0.192 -0.656,0.342 -1.045,0.451c0.217,0.128 0.401,0.308 0.554,0.538l2.872,4.055l-1.543,0c-0.305,0 -0.527,-0.118 -0.665,-0.355l-2.481,-3.581c-0.083,-0.124 -0.174,-0.212 -0.273,-0.266c-0.098,-0.054 -0.246,-0.081 -0.443,-0.081l-0.96,0Z" style="fill:#a087a4;fill-rule:nonzero;"/><path d="M82.628,59.541c0,-0.611 -0.083,-1.159 -0.248,-1.647c-0.164,-0.486 -0.401,-0.898 -0.708,-1.233c-0.308,-0.334 -0.681,-0.592 -1.119,-0.771c-0.438,-0.181 -0.93,-0.27 -1.477,-0.27l-2.281,0l0,7.842l2.281,0c0.547,0 1.039,-0.088 1.477,-0.266c0.438,-0.177 0.811,-0.434 1.119,-0.772c0.307,-0.337 0.544,-0.748 0.708,-1.233c0.165,-0.484 0.248,-1.035 0.248,-1.65m1.765,0c0,0.788 -0.129,1.508 -0.384,2.16c-0.256,0.653 -0.617,1.213 -1.082,1.68c-0.465,0.467 -1.024,0.83 -1.676,1.088c-0.653,0.259 -1.377,0.388 -2.175,0.388l-4.017,0l0,-10.633l4.017,0c0.798,0 1.522,0.13 2.175,0.388c0.652,0.258 1.211,0.622 1.676,1.089c0.465,0.468 0.826,1.028 1.082,1.68c0.255,0.653 0.384,1.372 0.384,2.16" style="fill:#a087a4;fill-rule:nonzero;"/><path d="M98.976,54.224l0,1.396l-4.896,0l0,3.205l3.914,0l0,1.351l-3.914,0l0,3.286l4.903,0l-0.007,1.396l-6.631,0l0,-10.634l6.631,0Z" style="fill:#a087a4;fill-rule:nonzero;"/><path d="M108.634,63.41l4.416,0l0,1.447l-6.144,0l0,-10.634l1.728,0l0,9.187Z" style="fill:#a087a4;fill-rule:nonzero;"/><rect x="120.589" y="54.224" width="1.735" height="10.634" style="fill:#a087a4;"/><path d="M136.465,56.041c-0.054,0.088 -0.111,0.154 -0.169,0.195c-0.06,0.043 -0.134,0.063 -0.222,0.063c-0.094,0 -0.198,-0.038 -0.314,-0.118c-0.116,-0.079 -0.258,-0.166 -0.428,-0.262c-0.17,-0.096 -0.371,-0.184 -0.602,-0.266c-0.232,-0.081 -0.507,-0.122 -0.827,-0.122c-0.295,0 -0.555,0.037 -0.779,0.111c-0.224,0.074 -0.412,0.178 -0.565,0.31c-0.153,0.133 -0.267,0.289 -0.343,0.469c-0.077,0.18 -0.115,0.375 -0.115,0.587c0,0.271 0.071,0.496 0.214,0.676c0.143,0.179 0.331,0.333 0.565,0.461c0.234,0.129 0.501,0.241 0.802,0.336c0.3,0.097 0.606,0.199 0.918,0.307c0.313,0.108 0.62,0.232 0.92,0.369c0.3,0.138 0.567,0.312 0.801,0.524c0.234,0.213 0.422,0.47 0.565,0.776c0.143,0.305 0.214,0.677 0.214,1.114c0,0.472 -0.081,0.917 -0.244,1.33c-0.162,0.413 -0.397,0.774 -0.704,1.081c-0.309,0.309 -0.687,0.551 -1.138,0.728c-0.45,0.177 -0.964,0.265 -1.539,0.265c-0.34,0 -0.671,-0.033 -0.993,-0.099c-0.323,-0.066 -0.631,-0.16 -0.924,-0.281c-0.293,-0.12 -0.567,-0.267 -0.823,-0.439c-0.256,-0.173 -0.485,-0.365 -0.687,-0.576l0.502,-0.827c0.045,-0.068 0.102,-0.124 0.17,-0.162c0.069,-0.04 0.146,-0.06 0.229,-0.06c0.113,0 0.239,0.053 0.377,0.159c0.138,0.106 0.304,0.222 0.498,0.347c0.195,0.126 0.43,0.242 0.705,0.347c0.276,0.106 0.606,0.159 0.99,0.159c0.625,0 1.109,-0.152 1.451,-0.458c0.342,-0.305 0.513,-0.726 0.513,-1.262c0,-0.3 -0.071,-0.546 -0.214,-0.735c-0.143,-0.19 -0.331,-0.348 -0.565,-0.477c-0.234,-0.128 -0.501,-0.235 -0.801,-0.323c-0.3,-0.09 -0.605,-0.185 -0.916,-0.286c-0.31,-0.1 -0.615,-0.219 -0.915,-0.354c-0.301,-0.135 -0.568,-0.312 -0.802,-0.532c-0.233,-0.219 -0.422,-0.49 -0.564,-0.812c-0.144,-0.322 -0.214,-0.724 -0.214,-1.207c0,-0.384 0.074,-0.756 0.224,-1.115c0.151,-0.359 0.37,-0.678 0.658,-0.957c0.288,-0.277 0.643,-0.501 1.067,-0.668c0.423,-0.167 0.905,-0.251 1.447,-0.251c0.61,0 1.171,0.096 1.68,0.288c0.51,0.192 0.949,0.466 1.318,0.82l-0.421,0.827Z" style="fill:#a087a4;fill-rule:nonzero;"/><path d="M68.295,41.216c-0.001,-0.001 -0.002,-0.003 -0.003,-0.004c-0.002,0.006 -0.002,0.01 0.003,0.004" style="fill:#a087a4;fill-rule:nonzero;"/><path d="M68.295,22.241c-2.373,0 -4.296,1.9 -4.296,5.284c0,2.222 0.677,4.416 1.494,6.779c0.424,1.228 0.886,2.381 1.311,3.365c0.765,1.772 1.407,3.434 1.488,3.542c0.037,-0.147 1.478,-3.514 2.682,-6.907c0.871,-2.455 1.617,-4.711 1.617,-6.779c0,-3.384 -1.923,-5.284 -4.296,-5.284" style="fill:#a087a4;fill-rule:nonzero;"/><path d="M86.961,26.926c-1.591,0 -3.054,-0.545 -4.215,-1.458c-1.216,-0.828 -2.52,-2.113 -3.938,-3.441c-5.094,-5.094 -9.561,-1.256 -10.478,-0.439c2.944,-0.182 4.603,2.506 5.982,4.52c4.185,6.111 10.431,5.82 10.431,5.82c4.419,0 8.001,-3.582 8.001,-8.001c0,-0.064 -0.002,-0.128 -0.004,-0.192c-1.209,1.917 -3.345,3.191 -5.779,3.191" style="fill:#a087a4;fill-rule:nonzero;"/><path d="M49.472,26.926c1.591,0 3.054,-0.545 4.215,-1.458c1.216,-0.828 2.52,-2.113 3.938,-3.441c5.094,-5.094 9.561,-1.256 10.478,-0.439c-2.944,-0.182 -4.603,2.506 -5.982,4.52c-4.185,6.111 -10.43,5.82 -10.43,5.82c-4.42,0 -8.002,-3.582 -8.002,-8.001c0,-0.064 0.002,-0.128 0.004,-0.192c1.21,1.917 3.345,3.191 5.779,3.191" style="fill:#a087a4;fill-rule:nonzero;"/><path d="M57.596,8.951c3.788,0 7.216,3.456 7.216,7.85l0.002,0.007l-0.002,0c0,3.104 3.44,3.478 3.481,3.483l0.004,0c0.042,-0.005 3.481,-0.379 3.481,-3.483l-0.002,0c0.001,-0.002 0.002,-0.004 0.002,-0.007c0,-4.394 3.429,-7.85 7.216,-7.85c0.638,0 1.256,0.098 1.844,0.282c0.015,-0.001 0.028,0.001 0.04,0.006c-0.442,-0.507 -0.929,-0.947 -1.45,-1.309c-0.529,-0.367 -1.093,-0.655 -1.686,-0.85c-0.854,-0.314 -1.768,-0.485 -2.719,-0.485c-2.732,0 -5.165,1.406 -6.728,3.595c-1.563,-2.189 -3.995,-3.595 -6.728,-3.595c-0.951,0 -1.865,0.171 -2.719,0.485c-0.592,0.195 -1.157,0.483 -1.686,0.85c-0.521,0.362 -1.007,0.802 -1.45,1.309c0.012,-0.005 0.026,-0.007 0.04,-0.006c0.589,-0.184 1.207,-0.282 1.844,-0.282" style="fill:#a087a4;fill-rule:nonzero;"/><path d="M68.453,9.114c1.013,-1.419 2.355,-2.211 3.799,-2.841c-0.604,-3.707 -3.799,-6.273 -3.799,-6.273c0,0 -3.195,2.566 -3.799,6.273c1.488,0.806 2.786,1.422 3.799,2.841" style="fill:#a087a4;fill-rule:nonzero;"/><path d="M22.265,76.153l0,2.611l1.556,0c0.546,0 0.958,-0.117 1.236,-0.352c0.277,-0.236 0.416,-0.566 0.416,-0.993c0,-0.196 -0.037,-0.371 -0.112,-0.528c-0.074,-0.156 -0.181,-0.289 -0.322,-0.399c-0.14,-0.11 -0.312,-0.193 -0.517,-0.252c-0.204,-0.059 -0.437,-0.087 -0.697,-0.087l-1.56,0Zm0,-0.329l1.346,0c0.286,0 0.53,-0.037 0.733,-0.11c0.204,-0.073 0.37,-0.168 0.5,-0.289c0.13,-0.12 0.226,-0.255 0.287,-0.407c0.061,-0.152 0.092,-0.309 0.092,-0.469c0,-0.417 -0.132,-0.735 -0.396,-0.949c-0.265,-0.215 -0.673,-0.322 -1.225,-0.322l-1.337,0l0,2.546Zm-0.447,3.3l0,-6.201l1.784,0c0.353,0 0.659,0.035 0.918,0.105c0.258,0.07 0.473,0.173 0.642,0.309c0.169,0.136 0.296,0.302 0.379,0.497c0.083,0.195 0.125,0.418 0.125,0.666c0,0.164 -0.029,0.321 -0.085,0.474c-0.057,0.152 -0.14,0.292 -0.248,0.42c-0.109,0.129 -0.241,0.24 -0.397,0.336c-0.156,0.094 -0.335,0.167 -0.536,0.216c0.487,0.074 0.863,0.235 1.125,0.488c0.263,0.25 0.395,0.582 0.395,0.994c0,0.263 -0.047,0.5 -0.14,0.71c-0.094,0.21 -0.229,0.389 -0.408,0.535c-0.178,0.146 -0.397,0.257 -0.657,0.335c-0.26,0.077 -0.555,0.116 -0.885,0.116l-2.012,0Z" style="fill:#a087a4;fill-rule:nonzero;"/><path d="M31.153,72.922l0,0.373l-3.265,0l0,2.507l2.717,0l0,0.363l-2.717,0l0,2.585l3.265,0l0,0.373l-3.716,0l0,-6.201l3.716,0Z" style="fill:#a087a4;fill-rule:nonzero;"/><path d="M34.755,77.055c0,0.348 -0.043,0.654 -0.129,0.921c-0.086,0.265 -0.209,0.489 -0.369,0.669c-0.158,0.182 -0.353,0.319 -0.582,0.411c-0.23,0.092 -0.487,0.138 -0.774,0.138c-0.131,0 -0.264,-0.011 -0.398,-0.031c-0.135,-0.02 -0.274,-0.053 -0.417,-0.097c0.006,-0.04 0.011,-0.081 0.015,-0.122c0.005,-0.041 0.008,-0.082 0.012,-0.123c0.005,-0.026 0.017,-0.049 0.032,-0.071c0.016,-0.02 0.045,-0.029 0.086,-0.029c0.026,0 0.057,0.004 0.094,0.014c0.036,0.01 0.08,0.022 0.132,0.034c0.05,0.012 0.109,0.022 0.175,0.033c0.065,0.01 0.142,0.015 0.23,0.015c0.222,0 0.422,-0.035 0.601,-0.105c0.178,-0.07 0.33,-0.178 0.455,-0.322c0.126,-0.146 0.222,-0.327 0.287,-0.548c0.066,-0.221 0.099,-0.48 0.099,-0.778l0,-4.142l0.451,0l0,4.133Z" style="fill:#a087a4;fill-rule:nonzero;"/><path d="M40.312,72.922l0,0.373l-3.265,0l0,2.507l2.717,0l0,0.363l-2.717,0l0,2.585l3.265,0l0,0.373l-3.716,0l0,-6.201l3.716,0Z" style="fill:#a087a4;fill-rule:nonzero;"/><path d="M40.93,72.922l0.372,0c0.085,0 0.139,0.04 0.163,0.119l1.564,5.096c0.017,0.059 0.033,0.121 0.046,0.189c0.013,0.067 0.027,0.137 0.042,0.211c0.014,-0.074 0.029,-0.144 0.043,-0.211c0.015,-0.068 0.032,-0.13 0.053,-0.189l1.753,-5.096c0.012,-0.032 0.032,-0.06 0.061,-0.084c0.029,-0.023 0.065,-0.035 0.105,-0.035l0.123,0c0.041,0 0.075,0.011 0.101,0.034c0.026,0.021 0.047,0.049 0.062,0.085l1.752,5.096c0.021,0.059 0.039,0.121 0.055,0.184c0.017,0.065 0.031,0.134 0.046,0.206c0.015,-0.07 0.028,-0.137 0.04,-0.203c0.011,-0.066 0.026,-0.128 0.044,-0.187l1.564,-5.096c0.009,-0.032 0.029,-0.06 0.059,-0.084c0.031,-0.023 0.067,-0.035 0.108,-0.035l0.342,0l-1.951,6.201l-0.403,0l-1.832,-5.381c-0.023,-0.07 -0.044,-0.146 -0.061,-0.224c-0.018,0.078 -0.038,0.154 -0.062,0.224l-1.836,5.381l-0.398,0l-1.955,-6.201Z" style="fill:#a087a4;fill-rule:nonzero;"/><path d="M54.143,72.922l0,0.373l-3.265,0l0,2.507l2.717,0l0,0.363l-2.717,0l0,2.585l3.265,0l0,0.373l-3.716,0l0,-6.201l3.716,0Z" style="fill:#a087a4;fill-rule:nonzero;"/><path d="M56.054,78.742l2.941,0l0,0.381l-3.388,0l0,-6.201l0.447,0l0,5.82Z" style="fill:#a087a4;fill-rule:nonzero;"/><path d="M63.807,72.922l0,0.373l-3.265,0l0,2.507l2.717,0l0,0.363l-2.717,0l0,2.585l3.265,0l0,0.373l-3.716,0l0,-6.201l3.716,0Z" style="fill:#a087a4;fill-rule:nonzero;"/><path d="M70.026,76.021c0,-0.433 -0.06,-0.818 -0.18,-1.157c-0.12,-0.339 -0.288,-0.625 -0.506,-0.859c-0.218,-0.234 -0.48,-0.411 -0.786,-0.535c-0.307,-0.122 -0.648,-0.183 -1.022,-0.183l-1.809,0l0,5.473l1.809,0c0.374,0 0.715,-0.061 1.022,-0.185c0.306,-0.121 0.568,-0.3 0.786,-0.534c0.218,-0.234 0.386,-0.519 0.506,-0.859c0.12,-0.339 0.18,-0.725 0.18,-1.161m0.465,0c0,0.479 -0.072,0.91 -0.215,1.292c-0.144,0.384 -0.345,0.71 -0.605,0.979c-0.26,0.268 -0.571,0.474 -0.933,0.617c-0.363,0.144 -0.764,0.215 -1.206,0.215l-2.261,0l0,-6.202l2.261,0c0.442,0 0.843,0.072 1.206,0.216c0.362,0.143 0.673,0.349 0.933,0.617c0.26,0.269 0.461,0.595 0.605,0.977c0.143,0.383 0.215,0.813 0.215,1.289" style="fill:#a087a4;fill-rule:nonzero;"/><path d="M74.07,76.153l0,2.611l1.556,0c0.546,0 0.958,-0.117 1.236,-0.352c0.277,-0.236 0.416,-0.566 0.416,-0.993c0,-0.196 -0.037,-0.371 -0.112,-0.528c-0.074,-0.156 -0.181,-0.289 -0.322,-0.399c-0.14,-0.11 -0.312,-0.193 -0.517,-0.252c-0.204,-0.059 -0.437,-0.087 -0.697,-0.087l-1.56,0Zm0,-0.329l1.346,0c0.286,0 0.53,-0.037 0.733,-0.11c0.204,-0.073 0.37,-0.168 0.5,-0.289c0.13,-0.12 0.226,-0.255 0.287,-0.407c0.061,-0.152 0.092,-0.309 0.092,-0.469c0,-0.417 -0.132,-0.735 -0.396,-0.949c-0.265,-0.215 -0.673,-0.322 -1.225,-0.322l-1.337,0l0,2.546Zm-0.447,3.3l0,-6.201l1.784,0c0.353,0 0.659,0.035 0.918,0.105c0.258,0.07 0.473,0.173 0.642,0.309c0.169,0.136 0.296,0.302 0.379,0.497c0.083,0.195 0.125,0.418 0.125,0.666c0,0.164 -0.029,0.321 -0.085,0.474c-0.057,0.152 -0.14,0.292 -0.248,0.42c-0.108,0.129 -0.241,0.24 -0.397,0.336c-0.156,0.094 -0.335,0.167 -0.536,0.216c0.487,0.074 0.863,0.235 1.125,0.488c0.263,0.25 0.395,0.582 0.395,0.994c0,0.263 -0.047,0.5 -0.14,0.71c-0.094,0.21 -0.229,0.389 -0.408,0.535c-0.178,0.146 -0.397,0.257 -0.657,0.335c-0.26,0.077 -0.555,0.116 -0.885,0.116l-2.012,0Z" style="fill:#a087a4;fill-rule:nonzero;"/><path d="M84.307,76.021c0,-0.433 -0.06,-0.821 -0.179,-1.166c-0.12,-0.345 -0.289,-0.637 -0.507,-0.876c-0.217,-0.24 -0.48,-0.424 -0.786,-0.551c-0.307,-0.127 -0.647,-0.19 -1.021,-0.19c-0.369,0 -0.705,0.063 -1.011,0.19c-0.305,0.127 -0.568,0.311 -0.789,0.551c-0.22,0.239 -0.391,0.531 -0.512,0.876c-0.122,0.345 -0.182,0.733 -0.182,1.166c0,0.436 0.06,0.825 0.182,1.168c0.121,0.343 0.292,0.635 0.512,0.874c0.221,0.24 0.484,0.422 0.789,0.547c0.306,0.127 0.642,0.189 1.011,0.189c0.374,0 0.714,-0.062 1.021,-0.189c0.306,-0.125 0.569,-0.307 0.786,-0.547c0.218,-0.239 0.387,-0.531 0.507,-0.874c0.119,-0.343 0.179,-0.732 0.179,-1.168m0.465,0c0,0.479 -0.072,0.913 -0.215,1.304c-0.143,0.39 -0.345,0.723 -0.605,0.999c-0.26,0.277 -0.571,0.489 -0.933,0.64c-0.363,0.151 -0.764,0.225 -1.205,0.225c-0.436,0 -0.835,-0.074 -1.197,-0.225c-0.362,-0.151 -0.673,-0.363 -0.933,-0.64c-0.261,-0.276 -0.463,-0.609 -0.607,-0.999c-0.145,-0.391 -0.217,-0.825 -0.217,-1.304c0,-0.476 0.072,-0.91 0.217,-1.3c0.144,-0.389 0.346,-0.722 0.607,-0.999c0.26,-0.275 0.571,-0.49 0.933,-0.642c0.362,-0.152 0.761,-0.227 1.197,-0.227c0.441,0 0.842,0.074 1.205,0.225c0.362,0.15 0.673,0.364 0.933,0.643c0.26,0.277 0.462,0.611 0.605,1c0.143,0.39 0.215,0.824 0.215,1.3" style="fill:#a087a4;fill-rule:nonzero;"/><path d="M86.81,75.986l1.078,0c0.275,0 0.521,-0.033 0.738,-0.099c0.218,-0.066 0.403,-0.16 0.553,-0.282c0.15,-0.123 0.265,-0.27 0.344,-0.443c0.079,-0.173 0.118,-0.366 0.118,-0.583c0,-0.441 -0.144,-0.768 -0.434,-0.982c-0.289,-0.213 -0.71,-0.319 -1.262,-0.319l-1.135,0l0,2.708Zm0,0.333l0,2.805l-0.447,0l0,-6.201l1.582,0c0.716,0 1.251,0.138 1.604,0.414c0.354,0.276 0.53,0.681 0.53,1.216c0,0.236 -0.04,0.453 -0.122,0.648c-0.082,0.196 -0.199,0.368 -0.353,0.515c-0.153,0.148 -0.338,0.27 -0.554,0.364c-0.217,0.095 -0.461,0.157 -0.732,0.187c0.07,0.043 0.133,0.101 0.188,0.175l2.134,2.682l-0.39,0c-0.046,0 -0.087,-0.009 -0.12,-0.026c-0.034,-0.018 -0.067,-0.047 -0.099,-0.089l-1.985,-2.515c-0.05,-0.064 -0.103,-0.109 -0.16,-0.135c-0.057,-0.027 -0.145,-0.04 -0.265,-0.04l-0.811,0Z" style="fill:#a087a4;fill-rule:nonzero;"/><path d="M94.764,73.676c-0.026,0.049 -0.064,0.074 -0.114,0.074c-0.038,0 -0.087,-0.027 -0.147,-0.081c-0.06,-0.054 -0.142,-0.114 -0.244,-0.179c-0.103,-0.066 -0.231,-0.127 -0.385,-0.182c-0.154,-0.055 -0.344,-0.084 -0.569,-0.084c-0.226,0 -0.425,0.033 -0.596,0.097c-0.172,0.064 -0.315,0.152 -0.431,0.263c-0.116,0.111 -0.204,0.239 -0.264,0.386c-0.06,0.146 -0.09,0.299 -0.09,0.46c0,0.21 0.044,0.384 0.134,0.521c0.089,0.138 0.207,0.255 0.353,0.351c0.146,0.096 0.312,0.178 0.498,0.243c0.186,0.066 0.377,0.131 0.573,0.195c0.196,0.064 0.387,0.136 0.573,0.212c0.186,0.079 0.351,0.176 0.498,0.292c0.146,0.118 0.264,0.261 0.353,0.432c0.089,0.171 0.134,0.383 0.134,0.637c0,0.26 -0.045,0.506 -0.134,0.735c-0.089,0.229 -0.218,0.429 -0.387,0.597c-0.17,0.171 -0.377,0.304 -0.623,0.402c-0.245,0.097 -0.526,0.147 -0.841,0.147c-0.409,0 -0.761,-0.073 -1.056,-0.217c-0.296,-0.145 -0.554,-0.343 -0.776,-0.594l0.123,-0.194c0.035,-0.043 0.075,-0.065 0.122,-0.065c0.027,0 0.06,0.018 0.101,0.053c0.041,0.035 0.091,0.078 0.149,0.129c0.059,0.051 0.129,0.107 0.211,0.167c0.082,0.059 0.177,0.116 0.285,0.166c0.108,0.051 0.233,0.095 0.373,0.13c0.141,0.035 0.3,0.052 0.479,0.052c0.246,0 0.465,-0.037 0.658,-0.112c0.193,-0.074 0.356,-0.176 0.489,-0.304c0.134,-0.129 0.235,-0.282 0.305,-0.458c0.071,-0.177 0.106,-0.366 0.106,-0.567c0,-0.22 -0.045,-0.4 -0.134,-0.542c-0.09,-0.141 -0.207,-0.26 -0.354,-0.355c-0.146,-0.095 -0.312,-0.175 -0.498,-0.239c-0.185,-0.065 -0.376,-0.127 -0.572,-0.188c-0.197,-0.062 -0.387,-0.13 -0.573,-0.206c-0.186,-0.076 -0.352,-0.173 -0.498,-0.292c-0.146,-0.118 -0.264,-0.265 -0.353,-0.442c-0.09,-0.177 -0.134,-0.398 -0.134,-0.665c0,-0.207 0.039,-0.407 0.118,-0.6c0.079,-0.193 0.195,-0.363 0.347,-0.51c0.152,-0.148 0.34,-0.266 0.564,-0.355c0.224,-0.089 0.479,-0.134 0.766,-0.134c0.322,0 0.61,0.052 0.866,0.154c0.257,0.102 0.489,0.258 0.7,0.469l-0.105,0.201Z" style="fill:#a087a4;fill-rule:nonzero;"/><path d="M100.058,72.922l0,0.373l-3.265,0l0,2.507l2.717,0l0,0.363l-2.717,0l0,2.585l3.265,0l0,0.373l-3.716,0l0,-6.201l3.716,0Z" style="fill:#a087a4;fill-rule:nonzero;"/><path d="M105.571,72.922l0,0.381l-2.178,0l0,5.82l-0.447,0l0,-5.82l-2.191,0l0,-0.381l4.816,0Z" style="fill:#a087a4;fill-rule:nonzero;"/><path d="M110.694,72.922l0,0.381l-2.178,0l0,5.82l-0.447,0l0,-5.82l-2.191,0l0,-0.381l4.816,0Z" style="fill:#a087a4;fill-rule:nonzero;"/><path d="M111.781,76.87l2.778,0l-1.266,-3.133c-0.02,-0.05 -0.041,-0.106 -0.061,-0.169c-0.021,-0.063 -0.041,-0.129 -0.062,-0.198c-0.02,0.069 -0.041,0.135 -0.061,0.198c-0.02,0.063 -0.041,0.121 -0.061,0.174l-1.267,3.128Zm4.15,2.253l-0.346,0c-0.041,0 -0.075,-0.011 -0.101,-0.032c-0.026,-0.022 -0.047,-0.052 -0.061,-0.086l-0.732,-1.801l-3.046,0l-0.727,1.801c-0.012,0.032 -0.033,0.06 -0.062,0.083c-0.029,0.023 -0.064,0.035 -0.105,0.035l-0.342,0l2.538,-6.201l0.447,0l2.537,6.201Z" style="fill:#a087a4;fill-rule:nonzero;"/></g></svg>