<?xml version="1.0" encoding="UTF-8" standalone="no"?><!DOCTYPE svg PUBLIC "-//W3C//DTD SVG 1.1//EN" "http://www.w3.org/Graphics/SVG/1.1/DTD/svg11.dtd"><svg width="100%" height="100%" viewBox="0 0 137 80" version="1.1" xmlns="http://www.w3.org/2000/svg" xmlns:xlink="http://www.w3.org/1999/xlink" xml:space="preserve" xmlns:serif="http://www.serif.com/" style="fill-rule:evenodd;clip-rule:evenodd;stroke-linejoin:round;stroke-miterlimit:2;"><g><rect x="0" y="0" width="136.525" height="79.644" style="fill:#e8333c;"/><rect x="39.819" y="53.094" width="96.706" height="26.55" style="fill:#3d9546;"/><rect x="39.819" y="0" width="96.706" height="26.544" style="fill:#fff;"/><path d="M26.411,13.739l4.281,0c0.238,0 0.425,0.182 0.425,0.4l0,2.013c0,0.225 -0.187,0.406 -0.425,0.406l-4.281,0c-0.231,0 -0.425,-0.181 -0.425,-0.406l0,-2.013c0,-0.218 0.194,-0.4 0.425,-0.4" style="fill:#fff;fill-rule:nonzero;"/><path d="M26.411,13.776c-0.219,0 -0.394,0.162 -0.394,0.368l0,2.007c0,0.206 0.175,0.368 0.394,0.368l4.281,0c0.213,0 0.388,-0.162 0.388,-0.368l0,-2.007c0,-0.206 -0.175,-0.368 -0.388,-0.368l-4.281,0Zm4.281,2.812l-4.281,0c-0.256,0 -0.462,-0.194 -0.462,-0.437l0,-2.007c0,-0.243 0.206,-0.437 0.462,-0.437l4.281,0c0.257,0 0.457,0.194 0.457,0.437l0,2.007c0,0.243 -0.2,0.437 -0.457,0.437" style="fill:#dc1f34;fill-rule:nonzero;"/><path d="M26.521,13.855l4.056,0c0.232,0 0.407,0.169 0.407,0.369l0,1.85c0,0.2 -0.175,0.369 -0.407,0.369l-4.056,0c-0.225,0 -0.4,-0.169 -0.4,-0.369l0,-1.85c0,-0.2 0.175,-0.369 0.4,-0.369" style="fill:#fff;fill-rule:nonzero;"/><path d="M26.521,13.892c-0.206,0 -0.375,0.15 -0.375,0.331l0,1.85c0,0.188 0.169,0.338 0.375,0.338l4.056,0c0.213,0 0.375,-0.15 0.375,-0.338l0,-1.85c0,-0.181 -0.162,-0.331 -0.375,-0.331l-4.056,0Zm4.056,2.581l-4.056,0c-0.244,0 -0.437,-0.181 -0.437,-0.4l0,-1.85c0,-0.219 0.193,-0.4 0.437,-0.4l4.056,0c0.244,0 0.444,0.181 0.444,0.4l0,1.85c0,0.219 -0.2,0.4 -0.444,0.4" style="fill:#dc1f34;fill-rule:nonzero;"/><path d="M27.611,15.317c0.078,0.337 0.511,0.524 0.966,0.418c0.454,-0.105 0.76,-0.464 0.682,-0.8c-0.079,-0.337 -0.511,-0.524 -0.966,-0.419c-0.454,0.106 -0.76,0.465 -0.682,0.801Z" style="fill:#fff;"/><path d="M28.627,15.77c0.449,-0.134 0.728,-0.532 0.622,-0.888c-0.106,-0.357 -0.557,-0.537 -1.007,-0.403c-0.449,0.134 -0.728,0.532 -0.622,0.888c0.106,0.356 0.557,0.537 1.007,0.403Z" style="fill:#dc1f34;"/><path d="M28.456,14.887c0.144,0 0.269,0.106 0.269,0.231c0,0.125 -0.125,0.231 -0.269,0.231c-0.15,0 -0.275,-0.106 -0.275,-0.231c0,-0.125 0.125,-0.231 0.275,-0.231" style="fill:#fff;fill-rule:nonzero;"/><path d="M28.456,14.923c-0.131,0 -0.237,0.088 -0.237,0.194c0,0.219 0.468,0.219 0.468,0c0,-0.106 -0.1,-0.194 -0.231,-0.194m0,0.463c-0.169,0 -0.306,-0.125 -0.306,-0.269c0,-0.288 0.612,-0.294 0.612,0c0,0.144 -0.143,0.269 -0.306,0.269" style="fill:#dc1f34;fill-rule:nonzero;"/><path d="M26.772,13.978l-0.388,0.35l0.388,-0.35Z" style="fill:#fff;fill-rule:nonzero;"/><path d="M27.04,13.978l-0.394,0.35l0.394,-0.35Z" style="fill:#fff;fill-rule:nonzero;"/><path d="M27.302,13.978l-0.393,0.35l0.393,-0.35Z" style="fill:#fff;fill-rule:nonzero;"/><path d="M27.565,13.978l-0.394,0.35l0.394,-0.35Z" style="fill:#fff;fill-rule:nonzero;"/><path d="M27.827,13.978l-0.393,0.35l0.393,-0.35Z" style="fill:#fff;fill-rule:nonzero;"/><path d="M28.09,13.978l-0.394,0.35l0.394,-0.35Z" style="fill:#fff;fill-rule:nonzero;"/><path d="M28.352,13.978l-0.387,0.35l0.387,-0.35Z" style="fill:#fff;fill-rule:nonzero;"/><path d="M28.615,13.978l-0.388,0.35l0.388,-0.35Z" style="fill:#fff;fill-rule:nonzero;"/><path d="M28.877,13.978l-0.387,0.35l0.387,-0.35Z" style="fill:#fff;fill-rule:nonzero;"/><path d="M29.14,13.978l-0.388,0.35l0.388,-0.35Z" style="fill:#fff;fill-rule:nonzero;"/><path d="M29.408,13.978l-0.394,0.35l0.394,-0.35Z" style="fill:#fff;fill-rule:nonzero;"/><path d="M29.671,13.978l-0.394,0.35l0.394,-0.35Z" style="fill:#fff;fill-rule:nonzero;"/><path d="M28.615,13.978l-0.388,0.35l0.388,-0.35Z" style="fill:#fff;fill-rule:nonzero;"/><path d="M29.933,13.978l-0.394,0.35l0.394,-0.35Z" style="fill:#fff;fill-rule:nonzero;"/><path d="M30.196,13.978l-0.394,0.35l0.394,-0.35Z" style="fill:#fff;fill-rule:nonzero;"/><path d="M30.458,13.978l-0.387,0.35l0.387,-0.35Z" style="fill:#fff;fill-rule:nonzero;"/><path d="M30.721,13.978l-0.388,0.35l0.388,-0.35Z" style="fill:#fff;fill-rule:nonzero;"/><path d="M30.33,13.978l0.387,0.35l-0.387,-0.35Z" style="fill:#fff;fill-rule:nonzero;"/><path d="M30.067,13.978l0.388,0.35l-0.388,-0.35Z" style="fill:#fff;fill-rule:nonzero;"/><path d="M29.799,13.978l0.393,0.35l-0.393,-0.35Z" style="fill:#fff;fill-rule:nonzero;"/><path d="M29.536,13.978l0.394,0.35l-0.394,-0.35Z" style="fill:#fff;fill-rule:nonzero;"/><path d="M29.274,13.978l0.393,0.35l-0.393,-0.35Z" style="fill:#fff;fill-rule:nonzero;"/><path d="M29.012,13.978l0.394,0.35l-0.394,-0.35Z" style="fill:#fff;fill-rule:nonzero;"/><path d="M28.749,13.978l0.388,0.35l-0.388,-0.35Z" style="fill:#fff;fill-rule:nonzero;"/><path d="M28.487,13.978l0.387,0.35l-0.387,-0.35Z" style="fill:#fff;fill-rule:nonzero;"/><path d="M28.224,13.978l0.388,0.35l-0.388,-0.35Z" style="fill:#fff;fill-rule:nonzero;"/><path d="M27.962,13.978l0.387,0.35l-0.387,-0.35Z" style="fill:#fff;fill-rule:nonzero;"/><path d="M27.693,13.978l0.394,0.35l-0.394,-0.35Z" style="fill:#fff;fill-rule:nonzero;"/><path d="M27.431,13.978l0.393,0.35l-0.393,-0.35Z" style="fill:#fff;fill-rule:nonzero;"/><path d="M28.487,13.978l0.387,0.35l-0.387,-0.35Z" style="fill:#fff;fill-rule:nonzero;"/><path d="M27.168,13.978l0.394,0.35l-0.394,-0.35Z" style="fill:#fff;fill-rule:nonzero;"/><path d="M26.906,13.978l0.393,0.35l-0.393,-0.35Z" style="fill:#fff;fill-rule:nonzero;"/><path d="M26.643,13.978l0.394,0.35l-0.394,-0.35Z" style="fill:#fff;fill-rule:nonzero;"/><path d="M26.381,13.978l0.388,0.35l-0.388,-0.35Z" style="fill:#fff;fill-rule:nonzero;"/><path d="M26.772,15.97l-0.388,0.35l0.388,-0.35Z" style="fill:#fff;fill-rule:nonzero;"/><path d="M27.04,15.97l-0.394,0.35l0.394,-0.35Z" style="fill:#fff;fill-rule:nonzero;"/><path d="M27.302,15.97l-0.393,0.35l0.393,-0.35Z" style="fill:#fff;fill-rule:nonzero;"/><path d="M27.565,15.97l-0.394,0.35l0.394,-0.35Z" style="fill:#fff;fill-rule:nonzero;"/><path d="M27.827,15.97l-0.393,0.35l0.393,-0.35Z" style="fill:#fff;fill-rule:nonzero;"/><path d="M28.09,15.97l-0.394,0.35l0.394,-0.35Z" style="fill:#fff;fill-rule:nonzero;"/><path d="M28.352,15.97l-0.387,0.35l0.387,-0.35Z" style="fill:#fff;fill-rule:nonzero;"/><path d="M28.615,15.97l-0.388,0.35l0.388,-0.35Z" style="fill:#fff;fill-rule:nonzero;"/><path d="M28.877,15.97l-0.387,0.35l0.387,-0.35Z" style="fill:#fff;fill-rule:nonzero;"/><path d="M29.14,15.97l-0.388,0.35l0.388,-0.35Z" style="fill:#fff;fill-rule:nonzero;"/><path d="M29.408,15.97l-0.394,0.35l0.394,-0.35Z" style="fill:#fff;fill-rule:nonzero;"/><path d="M29.671,15.97l-0.394,0.35l0.394,-0.35Z" style="fill:#fff;fill-rule:nonzero;"/><path d="M28.615,15.97l-0.388,0.35l0.388,-0.35Z" style="fill:#fff;fill-rule:nonzero;"/><path d="M29.933,15.97l-0.394,0.35l0.394,-0.35Z" style="fill:#fff;fill-rule:nonzero;"/><path d="M30.196,15.97l-0.394,0.35l0.394,-0.35Z" style="fill:#fff;fill-rule:nonzero;"/><path d="M30.458,15.97l-0.387,0.35l0.387,-0.35Z" style="fill:#fff;fill-rule:nonzero;"/><path d="M30.721,15.97l-0.388,0.35l0.388,-0.35Z" style="fill:#fff;fill-rule:nonzero;"/><path d="M30.33,15.97l0.387,0.35l-0.387,-0.35Z" style="fill:#fff;fill-rule:nonzero;"/><path d="M30.067,15.97l0.388,0.35l-0.388,-0.35Z" style="fill:#fff;fill-rule:nonzero;"/><path d="M29.799,15.97l0.393,0.35l-0.393,-0.35Z" style="fill:#fff;fill-rule:nonzero;"/><path d="M29.536,15.97l0.394,0.35l-0.394,-0.35Z" style="fill:#fff;fill-rule:nonzero;"/><path d="M29.274,15.97l0.393,0.35l-0.393,-0.35Z" style="fill:#fff;fill-rule:nonzero;"/><path d="M29.012,15.97l0.394,0.35l-0.394,-0.35Z" style="fill:#fff;fill-rule:nonzero;"/><path d="M28.749,15.97l0.388,0.35l-0.388,-0.35Z" style="fill:#fff;fill-rule:nonzero;"/><path d="M28.487,15.97l0.387,0.35l-0.387,-0.35Z" style="fill:#fff;fill-rule:nonzero;"/><path d="M28.224,15.97l0.388,0.35l-0.388,-0.35Z" style="fill:#fff;fill-rule:nonzero;"/><path d="M27.962,15.97l0.387,0.35l-0.387,-0.35Z" style="fill:#fff;fill-rule:nonzero;"/><path d="M27.693,15.97l0.394,0.35l-0.394,-0.35Z" style="fill:#fff;fill-rule:nonzero;"/><path d="M27.431,15.97l0.393,0.35l-0.393,-0.35Z" style="fill:#fff;fill-rule:nonzero;"/><path d="M28.487,15.97l0.387,0.35l-0.387,-0.35Z" style="fill:#fff;fill-rule:nonzero;"/><path d="M27.168,15.97l0.394,0.35l-0.394,-0.35Z" style="fill:#fff;fill-rule:nonzero;"/><path d="M26.906,15.97l0.393,0.35l-0.393,-0.35Z" style="fill:#fff;fill-rule:nonzero;"/><path d="M26.643,15.97l0.394,0.35l-0.394,-0.35Z" style="fill:#fff;fill-rule:nonzero;"/><path d="M26.381,15.97l0.388,0.35l-0.388,-0.35Z" style="fill:#fff;fill-rule:nonzero;"/><path d="M9.169,13.626l4.287,0c0.231,0 0.419,0.175 0.419,0.394l0,2.019c0,0.218 -0.188,0.4 -0.419,0.4l-4.287,0c-0.238,0 -0.425,-0.182 -0.425,-0.4l0,-2.019c0,-0.219 0.187,-0.394 0.425,-0.394" style="fill:#fff;fill-rule:nonzero;"/><path d="M9.169,13.657c-0.213,0 -0.388,0.162 -0.388,0.369l0,2.012c0,0.206 0.175,0.369 0.388,0.369l4.287,0c0.213,0 0.388,-0.163 0.388,-0.369l0,-2.012c0,-0.207 -0.175,-0.369 -0.388,-0.369l-4.287,0Zm4.287,2.812l-4.287,0c-0.25,0 -0.457,-0.187 -0.457,-0.431l0,-2.012c0,-0.244 0.207,-0.438 0.457,-0.438l4.287,0c0.25,0 0.456,0.194 0.456,0.438l0,2.012c0,0.244 -0.206,0.431 -0.456,0.431" style="fill:#dc1f34;fill-rule:nonzero;"/><path d="M9.279,13.739l4.062,0c0.225,0 0.406,0.163 0.406,0.369l0,1.844c0,0.206 -0.181,0.369 -0.406,0.369l-4.062,0c-0.225,0 -0.4,-0.163 -0.4,-0.369l0,-1.844c0,-0.206 0.175,-0.369 0.4,-0.369" style="fill:#fff;fill-rule:nonzero;"/><path d="M9.279,13.776c-0.2,0 -0.375,0.143 -0.375,0.331l0,1.85c0,0.181 0.175,0.331 0.375,0.331l4.062,0c0.206,0 0.369,-0.15 0.369,-0.331l0,-1.85c0,-0.188 -0.163,-0.331 -0.369,-0.331l-4.062,0Zm4.062,2.581l-4.062,0c-0.238,0 -0.432,-0.181 -0.432,-0.4l0,-1.85c0,-0.219 0.194,-0.4 0.432,-0.4l4.062,0c0.238,0 0.438,0.181 0.438,0.4l0,1.85c0,0.219 -0.2,0.4 -0.438,0.4" style="fill:#dc1f34;fill-rule:nonzero;"/><path d="M10.375,15.204c0.077,0.336 0.508,0.524 0.962,0.42c0.453,-0.105 0.758,-0.463 0.68,-0.8c-0.078,-0.336 -0.509,-0.524 -0.962,-0.419c-0.453,0.105 -0.758,0.463 -0.68,0.799Z" style="fill:#fff;"/><path d="M11.889,15.483c0.246,-0.328 0.154,-0.812 -0.205,-1.081c-0.359,-0.269 -0.849,-0.222 -1.095,0.106c-0.246,0.327 -0.154,0.812 0.205,1.081c0.358,0.269 0.849,0.221 1.095,-0.106Z" style="fill:#dc1f34;"/><path d="M11.214,14.771c0.15,0 0.275,0.106 0.275,0.231c0,0.131 -0.125,0.231 -0.275,0.231c-0.144,0 -0.269,-0.1 -0.269,-0.231c0,-0.125 0.125,-0.231 0.269,-0.231" style="fill:#fff;fill-rule:nonzero;"/><path d="M11.214,14.807c-0.132,0 -0.238,0.088 -0.238,0.194c0,0.219 0.475,0.213 0.475,0c0,-0.106 -0.106,-0.194 -0.237,-0.194m0,0.463c-0.163,0 -0.307,-0.125 -0.307,-0.269c0,-0.294 0.613,-0.294 0.613,0c0,0.144 -0.138,0.269 -0.306,0.269" style="fill:#dc1f34;fill-rule:nonzero;"/><path d="M9.535,13.855l-0.394,0.356l0.394,-0.356Z" style="fill:#fff;fill-rule:nonzero;"/><path d="M9.797,13.855l-0.393,0.356l0.393,-0.356Z" style="fill:#fff;fill-rule:nonzero;"/><path d="M10.06,13.855l-0.394,0.356l0.394,-0.356Z" style="fill:#fff;fill-rule:nonzero;"/><path d="M10.322,13.855l-0.393,0.356l0.393,-0.356Z" style="fill:#fff;fill-rule:nonzero;"/><path d="M10.585,13.855l-0.394,0.356l0.394,-0.356Z" style="fill:#fff;fill-rule:nonzero;"/><path d="M10.854,13.855l-0.394,0.356l0.394,-0.356Z" style="fill:#fff;fill-rule:nonzero;"/><path d="M11.116,13.855l-0.394,0.356l0.394,-0.356Z" style="fill:#fff;fill-rule:nonzero;"/><path d="M11.379,13.855l-0.394,0.356l0.394,-0.356Z" style="fill:#fff;fill-rule:nonzero;"/><path d="M11.641,13.855l-0.394,0.356l0.394,-0.356Z" style="fill:#fff;fill-rule:nonzero;"/><path d="M11.903,13.855l-0.394,0.356l0.394,-0.356Z" style="fill:#fff;fill-rule:nonzero;"/><path d="M12.166,13.855l-0.394,0.356l0.394,-0.356Z" style="fill:#fff;fill-rule:nonzero;"/><path d="M12.428,13.855l-0.394,0.356l0.394,-0.356Z" style="fill:#fff;fill-rule:nonzero;"/><path d="M11.379,13.855l-0.394,0.356l0.394,-0.356Z" style="fill:#fff;fill-rule:nonzero;"/><path d="M12.691,13.855l-0.394,0.356l0.394,-0.356Z" style="fill:#fff;fill-rule:nonzero;"/><path d="M12.959,13.855l-0.4,0.356l0.4,-0.356Z" style="fill:#fff;fill-rule:nonzero;"/><path d="M13.222,13.855l-0.394,0.356l0.394,-0.356Z" style="fill:#fff;fill-rule:nonzero;"/><path d="M13.484,13.855l-0.393,0.356l0.393,-0.356Z" style="fill:#fff;fill-rule:nonzero;"/><path d="M13.087,13.855l0.394,0.356l-0.394,-0.356Z" style="fill:#fff;fill-rule:nonzero;"/><path d="M12.825,13.855l0.394,0.356l-0.394,-0.356Z" style="fill:#fff;fill-rule:nonzero;"/><path d="M12.556,13.855l0.4,0.356l-0.4,-0.356Z" style="fill:#fff;fill-rule:nonzero;"/><path d="M12.294,13.855l0.393,0.356l-0.393,-0.356Z" style="fill:#fff;fill-rule:nonzero;"/><path d="M12.032,13.855l0.394,0.356l-0.394,-0.356Z" style="fill:#fff;fill-rule:nonzero;"/><path d="M11.769,13.855l0.394,0.356l-0.394,-0.356Z" style="fill:#fff;fill-rule:nonzero;"/><path d="M11.507,13.855l0.394,0.356l-0.394,-0.356Z" style="fill:#fff;fill-rule:nonzero;"/><path d="M11.244,13.855l0.394,0.356l-0.394,-0.356Z" style="fill:#fff;fill-rule:nonzero;"/><path d="M10.982,13.855l0.394,0.356l-0.394,-0.356Z" style="fill:#fff;fill-rule:nonzero;"/><path d="M10.719,13.855l0.394,0.356l-0.394,-0.356Z" style="fill:#fff;fill-rule:nonzero;"/><path d="M10.457,13.855l0.394,0.356l-0.394,-0.356Z" style="fill:#fff;fill-rule:nonzero;"/><path d="M10.188,13.855l0.394,0.356l-0.394,-0.356Z" style="fill:#fff;fill-rule:nonzero;"/><path d="M11.244,13.855l0.394,0.356l-0.394,-0.356Z" style="fill:#fff;fill-rule:nonzero;"/><path d="M9.926,13.855l0.393,0.356l-0.393,-0.356Z" style="fill:#fff;fill-rule:nonzero;"/><path d="M9.663,13.855l0.394,0.356l-0.394,-0.356Z" style="fill:#fff;fill-rule:nonzero;"/><path d="M9.401,13.855l0.394,0.356l-0.394,-0.356Z" style="fill:#fff;fill-rule:nonzero;"/><path d="M9.139,13.855l0.393,0.356l-0.393,-0.356Z" style="fill:#fff;fill-rule:nonzero;"/><path d="M9.535,15.851l-0.394,0.356l0.394,-0.356Z" style="fill:#fff;fill-rule:nonzero;"/><path d="M9.797,15.851l-0.393,0.356l0.393,-0.356Z" style="fill:#fff;fill-rule:nonzero;"/><path d="M10.06,15.851l-0.394,0.356l0.394,-0.356Z" style="fill:#fff;fill-rule:nonzero;"/><path d="M10.322,15.851l-0.393,0.356l0.393,-0.356Z" style="fill:#fff;fill-rule:nonzero;"/><path d="M10.585,15.851l-0.394,0.356l0.394,-0.356Z" style="fill:#fff;fill-rule:nonzero;"/><path d="M10.854,15.851l-0.394,0.356l0.394,-0.356Z" style="fill:#fff;fill-rule:nonzero;"/><path d="M11.116,15.851l-0.394,0.356l0.394,-0.356Z" style="fill:#fff;fill-rule:nonzero;"/><path d="M11.379,15.851l-0.394,0.356l0.394,-0.356Z" style="fill:#fff;fill-rule:nonzero;"/><path d="M11.641,15.851l-0.394,0.356l0.394,-0.356Z" style="fill:#fff;fill-rule:nonzero;"/><path d="M11.903,15.851l-0.394,0.356l0.394,-0.356Z" style="fill:#fff;fill-rule:nonzero;"/><path d="M12.166,15.851l-0.394,0.356l0.394,-0.356Z" style="fill:#fff;fill-rule:nonzero;"/><path d="M12.428,15.851l-0.394,0.356l0.394,-0.356Z" style="fill:#fff;fill-rule:nonzero;"/><path d="M11.379,15.851l-0.394,0.356l0.394,-0.356Z" style="fill:#fff;fill-rule:nonzero;"/><path d="M12.691,15.851l-0.394,0.356l0.394,-0.356Z" style="fill:#fff;fill-rule:nonzero;"/><path d="M12.959,15.851l-0.4,0.356l0.4,-0.356Z" style="fill:#fff;fill-rule:nonzero;"/><path d="M13.222,15.851l-0.394,0.356l0.394,-0.356Z" style="fill:#fff;fill-rule:nonzero;"/><path d="M13.484,15.851l-0.393,0.356l0.393,-0.356Z" style="fill:#fff;fill-rule:nonzero;"/><path d="M13.087,15.851l0.394,0.356l-0.394,-0.356Z" style="fill:#fff;fill-rule:nonzero;"/><path d="M12.825,15.851l0.394,0.356l-0.394,-0.356Z" style="fill:#fff;fill-rule:nonzero;"/><path d="M12.556,15.851l0.4,0.356l-0.4,-0.356Z" style="fill:#fff;fill-rule:nonzero;"/><path d="M12.294,15.851l0.393,0.356l-0.393,-0.356Z" style="fill:#fff;fill-rule:nonzero;"/><path d="M12.032,15.851l0.394,0.356l-0.394,-0.356Z" style="fill:#fff;fill-rule:nonzero;"/><path d="M11.769,15.851l0.394,0.356l-0.394,-0.356Z" style="fill:#fff;fill-rule:nonzero;"/><path d="M11.507,15.851l0.394,0.356l-0.394,-0.356Z" style="fill:#fff;fill-rule:nonzero;"/><path d="M11.244,15.851l0.394,0.356l-0.394,-0.356Z" style="fill:#fff;fill-rule:nonzero;"/><path d="M10.982,15.851l0.394,0.356l-0.394,-0.356Z" style="fill:#fff;fill-rule:nonzero;"/><path d="M10.719,15.851l0.394,0.356l-0.394,-0.356Z" style="fill:#fff;fill-rule:nonzero;"/><path d="M10.457,15.851l0.394,0.356l-0.394,-0.356Z" style="fill:#fff;fill-rule:nonzero;"/><path d="M10.188,15.851l0.394,0.356l-0.394,-0.356Z" style="fill:#fff;fill-rule:nonzero;"/><path d="M11.244,15.851l0.394,0.356l-0.394,-0.356Z" style="fill:#fff;fill-rule:nonzero;"/><path d="M9.926,15.851l0.393,0.356l-0.393,-0.356Z" style="fill:#fff;fill-rule:nonzero;"/><path d="M9.663,15.851l0.394,0.356l-0.394,-0.356Z" style="fill:#fff;fill-rule:nonzero;"/><path d="M9.401,15.851l0.394,0.356l-0.394,-0.356Z" style="fill:#fff;fill-rule:nonzero;"/><path d="M9.139,15.851l0.393,0.356l-0.393,-0.356Z" style="fill:#fff;fill-rule:nonzero;"/><path d="M16.792,19.526c-6.381,6.243 -9.106,7.037 -7.831,7.543c1.281,0.5 5.394,-2.725 9.675,-7.006c4.275,-4.281 6.894,-8.087 5.619,-8.594c-1.281,-0.506 -0.669,1.413 -7.463,8.057" style="fill:#fff;fill-rule:nonzero;"/><path d="M23.921,11.426c-0.344,0 -0.562,0.325 -1.1,1.119c-0.812,1.187 -2.319,3.4 -6.006,7.006c-3.019,2.956 -5.244,4.706 -6.569,5.75c-1.031,0.813 -1.594,1.25 -1.556,1.494c0.012,0.094 0.1,0.169 0.281,0.237c0.088,0.032 0.188,0.05 0.294,0.05c1.425,0 5.006,-2.693 9.344,-7.043c3.775,-3.775 6.156,-7.063 5.925,-8.194c-0.038,-0.169 -0.138,-0.281 -0.294,-0.344c-0.131,-0.056 -0.225,-0.075 -0.319,-0.075m-14.656,15.725c-0.113,0 -0.225,-0.019 -0.319,-0.056c-0.206,-0.081 -0.306,-0.169 -0.319,-0.288c-0.043,-0.281 0.463,-0.675 1.582,-1.556c1.325,-1.05 3.543,-2.794 6.556,-5.75c3.681,-3.594 5.194,-5.806 6,-7c0.706,-1.025 0.862,-1.312 1.5,-1.062c0.181,0.068 0.294,0.206 0.331,0.393c0.238,1.15 -2.144,4.463 -5.937,8.257c-4.357,4.356 -7.95,7.062 -9.394,7.062" style="fill:#dc1f34;fill-rule:nonzero;"/><path d="M11.415,24.069l2.237,0.582c-2.106,2 -4.468,2.818 -5.131,2.468c-0.65,-0.35 1.194,-1.175 2.894,-3.05" style="fill:#fff;fill-rule:nonzero;"/><path d="M11.409,24.1c-0.7,0.794 -1.475,1.425 -2.038,1.875c-0.562,0.45 -0.969,0.775 -0.956,0.975c0.006,0.05 0.05,0.1 0.125,0.137c0.65,0.344 3.062,-0.537 5.087,-2.456l-2.218,-0.531Zm-2.482,3.125c-0.175,0 -0.312,-0.025 -0.418,-0.081c-0.094,-0.05 -0.144,-0.113 -0.157,-0.188c-0.018,-0.231 0.375,-0.55 0.975,-1.037c0.563,-0.45 1.332,-1.069 2.063,-1.869l2.275,0.569c-1.738,1.718 -3.738,2.606 -4.738,2.606" style="fill:#dc1f34;fill-rule:nonzero;"/><path d="M11.415,24.301l1.85,0.469c-2.056,1.919 -4.081,2.462 -4.606,2.231c-0.525,-0.231 1.087,-0.894 2.756,-2.7" style="fill:#fff;fill-rule:nonzero;"/><path d="M11.409,24.332c-0.763,0.85 -1.532,1.444 -2.094,1.875c-0.425,0.331 -0.738,0.562 -0.725,0.687c0.15,0.107 0.256,0.125 0.375,0.125c0.744,0 2.494,-0.606 4.275,-2.275l-1.831,-0.412Zm-2.444,2.75c-0.131,0 -0.244,-0.019 -0.319,-0.05l-0.125,-0.131c-0.019,-0.163 0.256,-0.369 0.75,-0.75c0.563,-0.432 1.331,-1.013 2.119,-1.875l1.881,0.462c-1.781,1.731 -3.556,2.344 -4.306,2.344" style="fill:#dc1f34;fill-rule:nonzero;"/><path d="M17.427,20.051c0.062,-0.207 0.05,-0.275 0.031,-0.319l0.05,0.062l0.013,-0.087l0.037,0.162c0.188,0.094 0.238,0.088 0.294,0.063c0.069,-0.025 0.125,-0.056 0.162,-0.081l0.138,-0.107c0.069,-0.143 0.075,-0.2 0.075,-0.275c0.012,-0.056 0.031,-0.187 0.031,-0.218l0.069,0.012c-0.006,0.025 -0.019,0.163 -0.031,0.219c0,0.069 -0.007,0.125 -0.019,0.181l-0.106,0.144c-0.032,0.056 -0.069,0.075 -0.125,0.1c-0.044,0.031 -0.113,0.069 -0.169,0.087c-0.063,0.032 -0.131,0.038 -0.213,0.019l-0.118,-0.087l-0.119,0.125Z" style="fill:#dc1f34;fill-rule:nonzero;"/><path d="M16.694,20.651l-0.1,-0.012c-0.025,0.019 -0.062,0.012 -0.1,0.012l0.007,-0.025l-0.15,-0.006l0.093,-0.069l0.088,0.019l0.137,-0.225c0.019,-0.044 0.044,-0.081 0.1,-0.119l0.175,-0.1c0.069,-0.025 0.132,-0.037 0.219,-0.037l0.225,0c0.081,0.019 0.163,0.031 0.225,0.062l0.056,0.107l-0.025,-0.019c-0.118,-0.056 -0.193,-0.069 -0.256,-0.088l-0.225,0c-0.081,0 -0.137,0.019 -0.2,0.038l-0.4,0.394l0.05,0.012l0,0.006c0.031,0.013 0.063,0.025 0.081,0.05" style="fill:#dc1f34;fill-rule:nonzero;"/><path d="M15.852,21.903l0.094,-0.138c-0.012,-0.012 -0.075,-0.069 -0.106,-0.137l-0.069,-0.157l0.1,-0.156l0.388,-0.206l0.131,-0.119l0,0.1l-0.206,0.106l0.018,0.025l-0.343,0.213l0.012,0.006l0.144,0.319l-0.006,0l-0.157,0.144Z" style="fill:#dc1f34;fill-rule:nonzero;"/><path d="M14.967,22.721c-0.106,-0.007 -0.131,-0.069 -0.156,-0.138l-0.031,-0.187c0,-0.069 0.012,-0.144 0.031,-0.2l0.106,-0.132l0.388,-0.206l0.225,0c0.075,0.019 0.212,0.063 0.25,0.069l-0.013,0.069c-0.043,-0.013 -0.181,-0.057 -0.25,-0.069l-0.4,0.019l0.025,0.025c-0.05,0.05 -0.081,0.081 -0.156,0.112l-0.15,0.125l0.038,0.006c-0.025,0.057 -0.032,0.119 -0.032,0.182l-0.006,0.175l0.038,-0.007c0.018,0.057 0.043,0.113 0.093,0.157" style="fill:#dc1f34;fill-rule:nonzero;"/><path d="M14.211,23.511l-0.113,-0.068l0.338,-0.075l0.162,-0.175l-0.006,-0.163l0.006,-0.125l0,-0.012l0,-0.007l-0.081,-0.087l0.081,0.094l-0.069,-0.044l-0.1,-0.175l0.263,0.369l0.062,-0.007l0.057,0.05l0.212,-0.106l-0.062,0.088l-0.15,0.056l-0.157,-0.088l-0.025,0.169l-0.418,0.306Z" style="fill:#dc1f34;fill-rule:nonzero;"/><path d="M12.984,24.35l-0.038,-0.075c0,-0.081 0,-0.138 -0.012,-0.188l-0.069,-0.356l0.281,0.3l0.213,0.088c0.231,-0.007 0.281,-0.013 0.337,-0.019l0.125,-0.106c0.05,-0.2 0.05,-0.263 0.038,-0.319l-0.132,-0.269l0.075,0.044l0.119,0.206c0.019,0.063 0.019,0.131 0.019,0.206l-0.056,0.157l-0.169,0.143c-0.069,0.013 -0.125,0.019 -0.2,0.019c-0.038,0.019 -0.131,0.025 -0.188,-0.006c-0.062,0 -0.112,-0.031 -0.162,-0.056l-0.275,-0.219l0.075,0.181l0.031,-0.019c0.019,0.063 0.019,0.125 0.019,0.188l-0.031,0.1Z" style="fill:#dc1f34;fill-rule:nonzero;"/><path d="M11.629,25.727c-0.057,-0.088 -0.088,-0.206 -0.107,-0.275c-0.018,-0.113 -0.025,-0.181 -0.056,-0.213c-0.044,-0.056 -0.094,-0.106 -0.156,-0.137l-0.031,-0.025l0.056,0.1c-0.106,0.075 -0.144,0.094 -0.263,0.094c-0.137,-0.013 -0.181,-0.05 -0.237,-0.119l-0.144,0.4l0.106,-0.375l0.094,-0.063c0.044,0.057 0.069,0.082 0.181,0.094c0.1,-0.006 0.132,-0.019 0.175,-0.05c0.013,-0.081 0,-0.106 -0.075,-0.137l0.032,-0.063l0.15,0.094c0.062,0.031 0.118,0.081 0.162,0.144c0.038,0.043 0.05,0.118 0.069,0.187c0.019,0.119 0.05,0.231 0.075,0.3c0.069,-0.025 0.1,-0.037 0.162,-0.062l0.063,-0.157l-0.031,-0.025c0,-0.1 0,-0.156 0.081,-0.225c0.044,-0.056 0.112,-0.056 0.2,-0.056c0.144,-0.006 0.225,-0.031 0.287,-0.075c-0.012,-0.175 -0.05,-0.187 -0.137,-0.231c-0.081,-0.044 -0.125,-0.069 -0.244,-0.075l-0.181,0.119c-0.1,0.018 -0.225,0.012 -0.281,-0.05l0.037,-0.132l0,0.025c0.05,0.094 0.138,0.113 0.213,0.088c0.075,-0.069 0.106,-0.1 0.206,-0.119c0.144,0.006 0.2,0.038 0.262,0.075c0.107,0.044 0.157,0.069 0.219,0.169l-0.062,0.194c-0.069,0.037 -0.157,0.068 -0.263,0.081l-0.212,0.031c-0.057,0.056 -0.057,0.081 -0.057,0.181l-0.075,0.244c-0.062,0.031 -0.106,0.044 -0.218,0.044m-2.044,0.837c-0.131,0 -0.2,-0.018 -0.238,-0.031c0.057,-0.056 0.138,-0.025 0.244,-0.025c0.125,-0.031 0.181,-0.044 0.225,-0.094c0.038,-0.075 0.031,-0.1 -0.006,-0.168c-0.056,-0.082 -0.05,-0.169 -0.025,-0.269c0.037,-0.113 0.087,-0.188 0.15,-0.231c0.044,-0.044 0.125,-0.044 0.212,-0.044c0.138,0.019 0.244,0.062 0.338,0.131l0.169,0.15l0.018,-0.031c0.05,0.031 0.107,0.044 0.182,0.056c-0.044,0.069 -0.125,0.05 -0.213,0l-0.187,-0.119c-0.094,-0.056 -0.194,-0.106 -0.269,-0.125l-0.213,0.038c-0.05,0.037 -0.093,0.1 -0.118,0.187c-0.025,0.107 -0.025,0.163 0.012,0.219c0.05,0.094 0.063,0.138 0.006,0.244c-0.056,0.069 -0.131,0.087 -0.218,0.106c-0.025,0.006 -0.044,0.006 -0.069,0.006" style="fill:#dc1f34;fill-rule:nonzero;"/><path d="M24.08,13.892c2.837,-4.894 4.719,-9.056 4.2,-9.294c-0.519,-0.237 -3.238,3.544 -6.069,8.431l1.869,0.863Z" style="fill:#fff;fill-rule:nonzero;"/><path d="M28.297,4.697c-0.731,0 -3.393,3.75 -6.056,8.35l1.825,0.806c2.594,-4.481 4.456,-8.5 4.25,-9.156l-0.019,0Zm-4.2,9.237l-1.9,-0.875c2.732,-4.787 5.388,-8.506 6.025,-8.506l0.157,0.125c0.218,0.688 -1.619,4.65 -4.269,9.225l-0.013,0.031Z" style="fill:#dc1f34;fill-rule:nonzero;"/><path d="M23.897,13.806c2.731,-4.718 4.612,-8.706 4.206,-8.893c-0.419,-0.194 -2.975,3.487 -5.706,8.2l1.5,0.693Z" style="fill:#fff;fill-rule:nonzero;"/><path d="M23.921,13.819l-0.056,-0.031c2.55,-4.4 4.419,-8.275 4.25,-8.807c-0.406,-0.181 -2.738,3.063 -5.688,8.15c2.388,-4.25 5.194,-8.493 5.688,-8.25c0.237,0.638 -1.588,4.45 -4.194,8.938" style="fill:#dc1f34;fill-rule:nonzero;"/><path d="M23.427,11.344c-0.338,0.55 -0.688,1.181 -1.031,1.768l1.5,0.694c0.343,-0.594 0.712,-1.212 1.025,-1.775l-1.494,-0.687Z" style="fill:#fff;fill-rule:nonzero;"/><path d="M23.414,11.377c-0.175,0.35 -0.406,0.744 -0.637,1.144l-0.35,0.613l1.45,0.625l0.287,-0.482c0.25,-0.425 0.5,-0.856 0.725,-1.262l-1.475,-0.638Zm0.494,2.469l-1.525,-0.7l0.338,-0.656c0.231,-0.406 0.456,-0.8 0.675,-1.163l1.537,0.675c-0.206,0.444 -0.462,0.882 -0.712,1.313l-0.313,0.531Z" style="fill:#dc1f34;fill-rule:nonzero;"/><path d="M23.549,11.533c-0.332,0.55 -0.563,0.975 -0.907,1.563l1.125,0.518c0.344,-0.593 0.594,-1.006 0.907,-1.562l-1.125,-0.519Z" style="fill:#fff;fill-rule:nonzero;"/><path d="M23.537,11.566c-0.163,0.338 -0.338,0.631 -0.519,0.956l-0.344,0.594l1.082,0.456l0.337,-0.581c0.188,-0.319 0.356,-0.606 0.55,-0.956l-1.106,-0.469Zm0.244,2.088l-1.157,-0.525l0.332,-0.644c0.187,-0.319 0.356,-0.619 0.568,-0.969l1.169,0.5c-0.187,0.4 -0.356,0.694 -0.537,1.006l-0.375,0.632Z" style="fill:#dc1f34;fill-rule:nonzero;"/><path d="M23.503,11.778l0.864,0.396l-0.548,1.196l-0.865,-0.396l0.549,-1.196Z" style="fill:#fff;"/><path d="M23.604,11.859l-0.625,1.132l0.712,0.287l0.644,-1.119l-0.731,-0.3Zm0.112,1.507l-0.775,-0.363l0.65,-1.194l0.788,0.332l-0.663,1.225Z" style="fill:#dc1f34;fill-rule:nonzero;"/><path d="M24.367,12.174l-1.413,0.8l1.413,-0.8Z" style="fill:#fff;fill-rule:nonzero;"/><path d="M22.975,13.004l1.375,-0.857l0.037,0.05l-1.412,0.807Z" style="fill:#dc1f34;fill-rule:nonzero;"/><path d="M23.701,13.318l-0.087,-1.487l0.087,1.487Z" style="fill:#fff;fill-rule:nonzero;"/><path d="M23.671,13.321l-0.087,-1.494l0.156,1.494l-0.069,0Z" style="fill:#dc1f34;fill-rule:nonzero;"/><path d="M27.748,6.336l-0.75,-0.344l0.75,0.344Z" style="fill:#fff;fill-rule:nonzero;"/><path d="M27.736,6.366l-0.75,-0.344l0.775,0.282l-0.025,0.062Z" style="fill:#dc1f34;fill-rule:nonzero;"/><path d="M27.657,5.426c-0.125,0.025 -0.188,0.131 -0.163,0.238c0.025,0.1 0.138,0.156 0.257,0.131c0.112,-0.031 0.187,-0.138 0.162,-0.238c-0.031,-0.106 -0.137,-0.162 -0.256,-0.131" style="fill:#db001e;fill-rule:nonzero;"/><path d="M22.975,19.409c6.387,6.244 9.112,7.032 7.831,7.538c-1.275,0.506 -5.381,-2.719 -9.669,-7c-4.281,-4.281 -6.893,-8.088 -5.618,-8.594c1.281,-0.5 0.668,1.419 7.456,8.056" style="fill:#fff;fill-rule:nonzero;"/><path d="M15.852,11.313c-0.093,0 -0.193,0.019 -0.325,0.075c-0.156,0.056 -0.25,0.169 -0.287,0.338c-0.231,1.125 2.15,4.418 5.925,8.2c4.681,4.681 8.481,7.45 9.631,6.993c0.181,-0.075 0.275,-0.15 0.288,-0.237c0.031,-0.25 -0.532,-0.688 -1.557,-1.5c-1.331,-1.044 -3.556,-2.8 -6.575,-5.744c-3.681,-3.606 -5.187,-5.819 -6,-7.012c-0.537,-0.794 -0.762,-1.113 -1.1,-1.113m14.65,15.719c-1.437,0 -5.031,-2.706 -9.387,-7.056c-3.794,-3.8 -6.175,-7.113 -5.938,-8.257c0.038,-0.193 0.15,-0.331 0.325,-0.4c0.644,-0.256 0.8,0.044 1.507,1.069c0.806,1.188 2.318,3.4 5.993,7c3.013,2.95 5.232,4.694 6.557,5.738c1.118,0.881 1.631,1.287 1.587,1.568c-0.019,0.113 -0.112,0.207 -0.325,0.282c-0.094,0.037 -0.2,0.056 -0.319,0.056" style="fill:#dc1f34;fill-rule:nonzero;"/><path d="M28.352,23.947l-2.231,0.588c2.1,2 4.469,2.819 5.125,2.469c0.663,-0.357 -1.181,-1.182 -2.894,-3.057" style="fill:#fff;fill-rule:nonzero;"/><path d="M28.328,23.969l-2.206,0.6c1.756,1.593 3.737,2.481 4.719,2.481c0.168,0 0.3,-0.031 0.393,-0.081c0.075,-0.038 0.113,-0.088 0.113,-0.138c0.019,-0.194 -0.381,-0.519 -0.944,-0.981c-0.569,-0.45 -1.337,-1.069 -2.075,-1.881m2.513,3.143c-0.994,0 -2.994,-0.893 -4.744,-2.556l2.25,-0.644c0.762,0.819 1.531,1.438 2.094,1.888c0.606,0.487 1,0.806 0.975,1.037c-0.007,0.082 -0.057,0.138 -0.15,0.194c-0.107,0.056 -0.244,0.081 -0.425,0.081" style="fill:#dc1f34;fill-rule:nonzero;"/><path d="M28.352,24.182l-1.843,0.469c2.05,1.919 4.081,2.469 4.606,2.231c0.531,-0.231 -1.094,-0.893 -2.763,-2.7" style="fill:#fff;fill-rule:nonzero;"/><path d="M28.328,24.204l-1.812,0.481c2.112,1.887 4.093,2.381 4.587,2.169c0.094,-0.2 -0.212,-0.438 -0.637,-0.769c-0.538,-0.4 -1.338,-1.013 -2.138,-1.881m2.475,2.762c-0.75,0 -2.519,-0.606 -4.319,-2.287l1.863,-0.525c0.825,0.862 1.594,1.456 2.156,1.881c0.494,0.381 0.769,0.587 0.75,0.744l0,0.018l-0.125,0.113c-0.075,0.037 -0.187,0.056 -0.325,0.056" style="fill:#dc1f34;fill-rule:nonzero;"/><path d="M22.328,19.907l-0.1,-0.1l-0.106,0.081c-0.088,0.019 -0.156,0.019 -0.225,-0.006c-0.056,-0.025 -0.125,-0.056 -0.175,-0.1c-0.056,-0.013 -0.088,-0.038 -0.138,-0.1l-0.093,-0.175l-0.038,-0.294l0.063,-0.087l0.043,0.375l0.207,0.231c0.031,0.031 0.087,0.056 0.156,0.081c0.056,0.025 0.112,0.031 0.175,0.019l0.119,-0.056c0.006,-0.069 0.018,-0.138 0.031,-0.188l0.037,0.181l-0.012,0.007l0.056,0.131Z" style="fill:#dc1f34;fill-rule:nonzero;"/><path d="M23.262,20.453l-0.438,-0.419l-0.012,0.032c-0.063,-0.013 -0.119,-0.025 -0.2,-0.025l-0.231,0c-0.082,0.018 -0.144,0.025 -0.2,0.05l-0.119,-0.007l0.019,-0.018c0.137,-0.063 0.206,-0.082 0.293,-0.094l0.238,0c0.087,0 0.15,0.012 0.219,0.031l0.15,0.131l0.018,-0.025l0.263,0.344Z" style="fill:#dc1f34;fill-rule:nonzero;"/><path d="M23.97,21.774l-0.244,-0.043l0.213,-0.432l-0.075,-0.05c-0.194,-0.087 -0.25,-0.112 -0.294,-0.143l-0.156,-0.094l-0.088,-0.163c-0.15,0.032 -0.244,0.032 -0.325,0.019l-0.031,-0.069l0.037,0c0.05,0.007 0.15,0.019 0.194,0l0.175,-0.112l0.063,0.244l0.531,0.356c0.019,0.144 0.006,0.194 -0.05,0.231l-0.113,0.163l0.163,0.093Z" style="fill:#dc1f34;fill-rule:nonzero;"/><path d="M24.855,22.648c-0.006,-0.088 0.025,-0.138 0.044,-0.2l0.031,-0.169c0,-0.063 -0.013,-0.131 -0.031,-0.175l-0.1,-0.169l-0.019,0.025c-0.056,-0.025 -0.1,-0.056 -0.15,-0.1l-0.163,-0.087l0,0.037l-0.225,0c-0.05,0.013 -0.193,0.056 -0.243,0.069l-0.013,-0.069c0.044,-0.006 0.188,-0.05 0.244,-0.069l0.237,-0.006l0.213,0.075c0.044,0.044 0.069,0.063 0.131,0.094c0.081,0.081 0.125,0.131 0.15,0.169c0.025,0.062 0.031,0.131 0.031,0.206l-0.031,0.181c-0.019,0.075 -0.056,0.138 -0.106,0.188" style="fill:#dc1f34;fill-rule:nonzero;"/><path d="M25.679,23.358l-0.263,-0.019l-0.194,-0.168l-0.112,-0.263l-0.069,0.063l-0.069,-0.007l0.232,-0.318l-0.019,0.093l0.012,-0.012l-0.006,0.069l0.006,0.018l-0.05,0.094l0.063,0.15l0.231,0.256l0.125,0.013l0.5,-0.188l0.063,0.094l-0.107,-0.044l0,0.013l-0.343,0.156Z" style="fill:#dc1f34;fill-rule:nonzero;"/><path d="M26.851,24.326l-0.094,-0.163c0,-0.1 0,-0.162 0.012,-0.212l0.094,-0.15l-0.025,0l-0.406,0.231l0.019,0.031c-0.063,0.025 -0.157,0.013 -0.207,0c-0.05,0 -0.118,0 -0.181,-0.012l-0.225,-0.3c0,-0.094 -0.006,-0.157 0.013,-0.213l0.075,-0.181l0.131,-0.038l-0.144,0.138l0.006,0.087l-0.012,0.169l0.044,0.169c0.181,0.112 0.237,0.112 0.306,0.112l0.169,0l0.306,-0.106l0.175,-0.269l-0.006,0.063l0.037,-0.044l0.031,0.013l-0.131,0.318l-0.05,0.194l0.038,-0.006l0.025,0.169Z" style="fill:#dc1f34;fill-rule:nonzero;"/><path d="M30.189,26.459c-0.156,-0.038 -0.231,-0.056 -0.287,-0.119c-0.056,-0.112 -0.044,-0.15 0,-0.244c0.044,-0.062 0.037,-0.118 0.019,-0.225c-0.032,-0.087 -0.069,-0.15 -0.119,-0.187l-0.169,-0.031c-0.125,0.012 -0.225,0.056 -0.312,0.112l-0.188,0.131c-0.1,0.05 -0.187,0.063 -0.319,0.063l0.213,-0.431l0.012,-0.169l-0.087,-0.1l-0.081,-0.238c0.012,0.088 -0.032,0.119 -0.169,0.132c-0.113,0 -0.156,-0.019 -0.206,-0.044c-0.013,-0.056 -0.025,-0.1 -0.025,-0.131c-0.063,0.043 -0.119,0.087 -0.163,0.143l-0.069,0.213c-0.006,0.069 -0.037,0.187 -0.062,0.25c-0.144,0.025 -0.188,0.012 -0.256,-0.025l-0.069,-0.213c0,-0.118 0,-0.143 -0.056,-0.206c-0.038,-0.031 -0.082,-0.031 -0.163,-0.031c-0.162,-0.013 -0.244,-0.038 -0.319,-0.081l-0.062,-0.188c0.069,-0.106 0.119,-0.125 0.206,-0.162c0.075,-0.044 0.131,-0.082 0.263,-0.088c0.118,0.025 0.15,0.05 0.187,0.088c0.106,0.05 0.2,0.043 0.238,0.006l0.081,-0.081l0,0.018c-0.094,0.169 -0.213,0.175 -0.3,0.157l-0.206,-0.157l0.006,0.032c-0.113,0.006 -0.163,0.037 -0.225,0.075c-0.106,0.043 -0.138,0.062 -0.188,0.137c0.1,0.144 0.175,0.169 0.275,0.175c0.125,-0.006 0.2,-0.006 0.25,0.056c0.082,0.069 0.082,0.125 0.082,0.238l0.012,0.2l0.013,-0.031c0.056,0.025 0.093,0.037 0.2,0.037c-0.013,-0.037 0.018,-0.156 0.037,-0.225c0.025,-0.131 0.038,-0.194 0.069,-0.237c0.05,-0.063 0.112,-0.119 0.181,-0.157l0.075,-0.043c0.019,-0.019 0.038,-0.025 0.063,-0.038l-0.007,0.006l0.063,-0.025l-0.125,0.238c0.069,0.012 0.1,0.025 0.2,0.025c0.112,-0.013 0.137,-0.031 0.181,-0.088l0.031,-0.043l0.175,0.606l-0.056,0.206c-0.012,0.044 -0.019,0.088 -0.056,0.131c0.025,-0.018 0.069,-0.031 0.125,-0.062l0.2,-0.094l-0.019,-0.031c0.094,-0.056 0.206,-0.106 0.294,-0.131c0.137,0 0.212,0 0.262,0.056c0.063,0.037 0.113,0.112 0.15,0.219c0.019,0.118 0.032,0.2 -0.031,0.281c-0.031,0.062 -0.044,0.081 0,0.169c0.038,0.043 0.1,0.056 0.181,0.075c0.138,0.006 0.219,-0.013 0.269,-0.032c-0.05,0.088 -0.137,0.107 -0.219,0.113" style="fill:#dc1f34;fill-rule:nonzero;"/><path d="M15.694,13.776c-2.838,-4.894 -4.719,-9.057 -4.2,-9.294c0.512,-0.238 3.237,3.537 6.068,8.425l-1.868,0.869Z" style="fill:#fff;fill-rule:nonzero;"/><path d="M11.543,4.507c-0.3,0.725 1.569,4.744 4.163,9.225l1.843,-0.85c-2.706,-4.6 -5.393,-8.375 -6.006,-8.375m4.131,9.307l-0.012,-0.025c-2.656,-4.575 -4.494,-8.544 -4.269,-9.232l0.15,-0.118c0.65,0 3.3,3.712 6.05,8.45l-1.919,0.925Z" style="fill:#dc1f34;fill-rule:nonzero;"/><path d="M15.877,13.688c-2.731,-4.719 -4.613,-8.7 -4.2,-8.894c0.412,-0.188 2.962,3.487 5.694,8.206l-1.494,0.688Z" style="fill:#fff;fill-rule:nonzero;"/><path d="M17.402,12.982c-2.456,-4.125 -4.475,-7.05 -5.325,-7.906c1.038,0.944 3.313,4.425 5.325,7.906m-1.556,0.725c-2.6,-4.493 -4.425,-8.3 -4.25,-8.868c0.025,-0.013 0.056,-0.019 0.094,-0.013c-0.188,0.6 1.675,4.456 4.219,8.844l-0.063,0.037Z" style="fill:#dc1f34;fill-rule:nonzero;"/><path d="M16.347,11.228c0.337,0.55 0.687,1.181 1.025,1.775l-1.494,0.687c-0.344,-0.594 -0.712,-1.212 -1.025,-1.775l1.494,-0.687Z" style="fill:#fff;fill-rule:nonzero;"/><path d="M16.322,11.243l-1.456,0.7c0.213,0.313 0.438,0.694 0.656,1.069l0.369,0.631l1.469,-0.675l-0.319,-0.481c-0.244,-0.425 -0.487,-0.856 -0.719,-1.244m-0.456,2.488l-0.4,-0.682c-0.225,-0.381 -0.45,-0.762 -0.644,-1.118l1.513,-0.738c0.281,0.406 0.525,0.831 0.769,1.263l0.3,0.525l-1.538,0.75Z" style="fill:#dc1f34;fill-rule:nonzero;"/><path d="M16.219,11.417c0.337,0.55 0.568,0.975 0.912,1.562l-1.125,0.519c-0.344,-0.594 -0.594,-1.006 -0.912,-1.562l1.125,-0.519Z" style="fill:#fff;fill-rule:nonzero;"/><path d="M16.188,11.435l-1.075,0.525c0.219,0.331 0.406,0.644 0.606,0.975l0.3,0.519l1.094,-0.5l-0.356,-0.557c-0.181,-0.312 -0.356,-0.612 -0.569,-0.962m-0.194,2.1l-0.331,-0.563c-0.2,-0.337 -0.387,-0.643 -0.594,-1.018l1.138,-0.569c0.256,0.369 0.419,0.662 0.606,0.981l0.344,0.6l-1.163,0.569Z" style="fill:#dc1f34;fill-rule:nonzero;"/><path d="M16.819,12.855l-0.864,0.396l-0.548,-1.196l0.864,-0.396l0.548,1.196Z" style="fill:#fff;"/><path d="M16.127,11.728l-0.706,0.356l0.662,1.075l0.719,-0.331l-0.675,-1.1Zm-0.075,1.519l-0.675,-1.175l0.769,-0.394l0.7,1.163l-0.794,0.406Z" style="fill:#dc1f34;fill-rule:nonzero;"/><path d="M15.407,12.055l1.412,0.8l-1.412,-0.8Z" style="fill:#fff;fill-rule:nonzero;"/><path d="M16.835,12.83l-1.444,-0.744l0.031,-0.056l1.413,0.8Z" style="fill:#dc1f34;fill-rule:nonzero;"/><path d="M16.072,13.205l0.087,-1.494l-0.087,1.494Z" style="fill:#fff;fill-rule:nonzero;"/><path d="M12.026,6.217l0.75,-0.344l-0.75,0.344Z" style="fill:#fff;fill-rule:nonzero;"/><path d="M12.117,5.307c0.119,0.025 0.187,0.138 0.162,0.244c-0.025,0.094 -0.137,0.156 -0.256,0.131c-0.112,-0.037 -0.187,-0.137 -0.162,-0.243c0.025,-0.107 0.137,-0.163 0.256,-0.132" style="fill:#db001e;fill-rule:nonzero;"/><path d="M12.086,5.719l-0.075,-0.006c-0.1,-0.031 -0.212,-0.175 -0.181,-0.281c0.025,-0.1 0.119,-0.163 0.231,-0.163c0.2,0.038 0.288,0.169 0.256,0.282c-0.031,0.1 -0.118,0.168 -0.231,0.168" style="fill:#dc1f34;fill-rule:nonzero;"/><path d="M17.958,11.276c0,4.107 0.019,5.657 -0.281,5.863c-0.288,0.231 -8.275,0 -8.275,1.175c0,1.175 6.581,2.344 8.556,2.344c2.631,0 3.95,-1.169 3.95,-3.519l0,-5.863l-3.95,0Z" style="fill:#fff;fill-rule:nonzero;"/><path d="M21.871,11.276l-3.913,0.038l0.031,0.756c0.007,3.556 0.007,4.894 -0.293,5.1c-0.088,0.069 -0.725,0.094 -1.944,0.138c-2.356,0.081 -6.313,0.218 -6.313,1.006c0,1.112 6.382,2.319 8.519,2.319c2.594,0 3.913,-1.175 3.913,-3.494l0,-5.863Zm-3.913,9.419c-1.925,0 -8.587,-1.15 -8.587,-2.381c0,-0.85 3.837,-0.981 6.381,-1.075c0.981,-0.031 1.825,-0.063 1.906,-0.125c0.269,-0.188 0.269,-1.606 0.269,-5.044l-0.006,-0.794l3.987,-0.031l0.031,5.894c0,2.356 -1.337,3.556 -3.981,3.556" style="fill:#dc1f34;fill-rule:nonzero;"/><path d="M17.958,12.448l0,0.588c1.313,0.193 2.631,0.193 3.95,0l0,-0.588c-1.319,0.2 -2.637,0.2 -3.95,0" style="fill:#fff;fill-rule:nonzero;"/><path d="M17.952,12.485l0.037,0.55c1.25,0.125 2.607,0.162 3.913,-0.031l-0.031,-0.557c-1.232,0.263 -2.607,0.232 -3.919,0.038m1.975,0.731c-0.65,0 -1.319,-0.05 -1.975,-0.15l-0.031,-0.619c1.387,0.132 2.675,0.163 3.981,-0.031l0.037,0.619c-0.687,0.131 -1.35,0.181 -2.012,0.181" style="fill:#dc1f34;fill-rule:nonzero;"/><path d="M17.958,11.276l0,0.588c1.313,0.194 2.631,0.194 3.95,0l0,-0.588c-1.319,0.194 -2.637,0.194 -3.95,0" style="fill:#fff;fill-rule:nonzero;"/><path d="M17.952,11.313l0.037,0.55c1.25,0.125 2.607,0.163 3.913,-0.031l-0.031,-0.556c-1.232,0.262 -2.607,0.231 -3.919,0.037m1.975,0.731c-0.65,0 -1.319,-0.056 -1.975,-0.15l-0.031,-0.618c1.387,0.125 2.675,0.162 3.981,-0.032l0.037,0.619c-0.687,0.125 -1.35,0.181 -2.012,0.181" style="fill:#dc1f34;fill-rule:nonzero;"/><path d="M17.958,11.866l0,0.581c1.313,0.2 2.631,0.2 3.95,0l0,-0.581c-1.319,0.193 -2.637,0.193 -3.95,0" style="fill:#fff;fill-rule:nonzero;"/><path d="M17.952,11.896l0.037,0.55c1.25,0.132 2.607,0.163 3.913,-0.031l-0.031,-0.55c-1.232,0.256 -2.607,0.225 -3.919,0.031m1.975,0.732c-0.65,0 -1.319,-0.05 -1.975,-0.144l-0.031,-0.619c1.387,0.125 2.675,0.163 3.981,-0.037l0.037,0.618c-0.687,0.132 -1.35,0.182 -2.012,0.182" style="fill:#dc1f34;fill-rule:nonzero;"/><path d="M17.958,13.037l0,0.588c1.313,0.194 2.631,0.194 3.95,0l0,-0.588c-1.319,0.194 -2.637,0.194 -3.95,0" style="fill:#fff;fill-rule:nonzero;"/><path d="M17.952,13.068l0.037,0.556c1.25,0.125 2.607,0.157 3.913,-0.037l-0.031,-0.55c-1.232,0.262 -2.607,0.231 -3.919,0.031m1.975,0.738c-0.65,0 -1.319,-0.057 -1.975,-0.15l-0.031,-0.619c1.387,0.125 2.675,0.162 3.981,-0.031l0.037,0.618c-0.687,0.125 -1.35,0.182 -2.012,0.182" style="fill:#dc1f34;fill-rule:nonzero;"/><path d="M18.135,12.067c0.106,0 0.181,0.062 0.181,0.131c0,0.069 -0.075,0.125 -0.181,0.125c-0.1,0 -0.175,-0.056 -0.175,-0.125c0,-0.069 0.075,-0.131 0.175,-0.131" style="fill:#fff;fill-rule:nonzero;"/><path d="M18.856,12.131c0.1,0 0.175,0.056 0.175,0.131c0,0.069 -0.075,0.125 -0.175,0.125c-0.1,0 -0.175,-0.056 -0.175,-0.125c0,-0.075 0.075,-0.131 0.175,-0.131" style="fill:#fff;fill-rule:nonzero;"/><path d="M19.576,12.195c0.093,0 0.175,0.056 0.175,0.125c0,0.075 -0.082,0.131 -0.175,0.131c-0.107,0 -0.182,-0.056 -0.182,-0.131c0,-0.069 0.075,-0.125 0.182,-0.125" style="fill:#fff;fill-rule:nonzero;"/><path d="M20.289,12.195c0.1,0 0.182,0.056 0.182,0.125c0,0.075 -0.082,0.131 -0.182,0.131c-0.1,0 -0.175,-0.056 -0.175,-0.131c0,-0.069 0.075,-0.125 0.175,-0.125" style="fill:#fff;fill-rule:nonzero;"/><path d="M21.004,12.131c0.106,0 0.181,0.056 0.181,0.131c0,0.069 -0.075,0.125 -0.181,0.125c-0.094,0 -0.175,-0.056 -0.175,-0.125c0,-0.075 0.081,-0.131 0.175,-0.131" style="fill:#fff;fill-rule:nonzero;"/><path d="M21.724,12.067c0.1,0 0.181,0.062 0.181,0.131c0,0.069 -0.081,0.125 -0.181,0.125c-0.1,0 -0.175,-0.056 -0.175,-0.125c0,-0.069 0.075,-0.131 0.175,-0.131" style="fill:#fff;fill-rule:nonzero;"/><path d="M17.958,14.209l3.95,3.169l-3.95,-3.169Z" style="fill:#fff;fill-rule:nonzero;"/><path d="M21.926,17.353l-3.994,-3.119l0.044,-0.05l3.95,3.169Z" style="fill:#dc1f34;fill-rule:nonzero;"/><path d="M18.355,14.209l3.55,2.819l-3.55,-2.819Z" style="fill:#fff;fill-rule:nonzero;"/><path d="M21.926,17.002l-3.594,-2.763l0.044,-0.056l3.55,2.819Z" style="fill:#dc1f34;fill-rule:nonzero;"/><path d="M18.88,14.325l3.025,2.35l-3.025,-2.35Z" style="fill:#fff;fill-rule:nonzero;"/><path d="M21.926,16.648l-3.069,-2.294l0.044,-0.05l3.025,2.344Z" style="fill:#dc1f34;fill-rule:nonzero;"/><path d="M19.271,14.325l2.637,1.994l-2.637,-1.994Z" style="fill:#fff;fill-rule:nonzero;"/><path d="M21.926,16.294l-2.675,-1.944l0.043,-0.05l2.632,1.994Z" style="fill:#dc1f34;fill-rule:nonzero;"/><path d="M19.667,14.325l2.237,1.644l-2.237,-1.644Z" style="fill:#fff;fill-rule:nonzero;"/><path d="M21.926,15.943l-2.275,-1.588l0.037,-0.056l2.238,1.644Z" style="fill:#dc1f34;fill-rule:nonzero;"/><path d="M20.064,14.325l1.843,1.294l-1.843,-1.294Z" style="fill:#fff;fill-rule:nonzero;"/><path d="M21.926,15.589l-1.882,-1.238l0.038,-0.05l1.844,1.288Z" style="fill:#dc1f34;fill-rule:nonzero;"/><path d="M20.461,14.325l1.443,0.944l-1.443,-0.944Z" style="fill:#fff;fill-rule:nonzero;"/><path d="M21.919,15.237l-1.481,-0.887l0.044,-0.05l1.437,0.937Z" style="fill:#dc1f34;fill-rule:nonzero;"/><path d="M20.851,14.325l1.056,0.706l-1.056,-0.706Z" style="fill:#fff;fill-rule:nonzero;"/><path d="M21.248,14.325l0.656,0.475l-0.656,-0.475Z" style="fill:#fff;fill-rule:nonzero;"/><path d="M21.639,14.325l0.268,0.238l-0.268,-0.238Z" style="fill:#fff;fill-rule:nonzero;"/><path d="M17.958,14.563l3.95,3.163l-3.95,-3.163Z" style="fill:#fff;fill-rule:nonzero;"/><path d="M21.926,17.704l-3.994,-3.119l0.044,-0.05l3.95,3.169Z" style="fill:#dc1f34;fill-rule:nonzero;"/><path d="M21.907,14.209l-4.344,3.519l4.344,-3.519Z" style="fill:#fff;fill-rule:nonzero;"/><path d="M17.586,17.756l4.293,-3.569l0.044,0.05l-4.337,3.519Z" style="fill:#dc1f34;fill-rule:nonzero;"/><path d="M21.511,14.209l-3.813,3.057l3.813,-3.057Z" style="fill:#fff;fill-rule:nonzero;"/><path d="M17.714,17.291l3.775,-3.112l0.037,0.056l-3.812,3.056Z" style="fill:#dc1f34;fill-rule:nonzero;"/><path d="M20.986,14.325l-3.025,2.35l3.025,-2.35Z" style="fill:#fff;fill-rule:nonzero;"/><path d="M17.976,16.703l2.988,-2.4l0.037,0.05l-3.025,2.35Z" style="fill:#dc1f34;fill-rule:nonzero;"/><path d="M20.589,14.325l-2.632,1.994l2.632,-1.994Z" style="fill:#fff;fill-rule:nonzero;"/><path d="M17.976,16.349l2.594,-2.05l0.037,0.056l-2.631,1.994Z" style="fill:#dc1f34;fill-rule:nonzero;"/><path d="M20.192,14.325l-2.231,1.644l2.231,-1.644Z" style="fill:#fff;fill-rule:nonzero;"/><path d="M17.976,15.998l2.2,-1.694l0.038,0.05l-2.238,1.644Z" style="fill:#dc1f34;fill-rule:nonzero;"/><path d="M19.795,14.325l-1.838,1.294l1.838,-1.294Z" style="fill:#fff;fill-rule:nonzero;"/><path d="M17.976,15.644l1.8,-1.344l0.044,0.05l-1.844,1.294Z" style="fill:#dc1f34;fill-rule:nonzero;"/><path d="M19.404,14.325l-1.443,0.944l1.443,-0.944Z" style="fill:#fff;fill-rule:nonzero;"/><path d="M17.976,15.296l1.413,-0.994l0.031,0.05l-1.444,0.944Z" style="fill:#dc1f34;fill-rule:nonzero;"/><path d="M19.008,14.325l-1.05,0.706l1.05,-0.706Z" style="fill:#fff;fill-rule:nonzero;"/><path d="M18.617,14.325l-0.656,0.475l0.656,-0.475Z" style="fill:#fff;fill-rule:nonzero;"/><path d="M18.221,14.325l-0.263,0.238l0.263,-0.238Z" style="fill:#fff;fill-rule:nonzero;"/><path d="M21.907,14.563l-4.344,3.519l4.344,-3.519Z" style="fill:#fff;fill-rule:nonzero;"/><path d="M17.586,18.109l4.293,-3.568l0.044,0.05l-4.337,3.518Z" style="fill:#dc1f34;fill-rule:nonzero;"/><path d="M21.907,14.914l-4.344,3.519l4.344,-3.519Z" style="fill:#fff;fill-rule:nonzero;"/><path d="M17.586,18.463l4.293,-3.575l0.044,0.05l-4.337,3.525Z" style="fill:#dc1f34;fill-rule:nonzero;"/><path d="M21.907,15.268l-4.344,3.513l4.344,-3.513Z" style="fill:#fff;fill-rule:nonzero;"/><path d="M17.586,18.811l4.293,-3.568l0.044,0.05l-4.337,3.518Z" style="fill:#dc1f34;fill-rule:nonzero;"/><path d="M21.907,15.616l-4.344,3.519l4.344,-3.519Z" style="fill:#fff;fill-rule:nonzero;"/><path d="M17.586,19.163l4.293,-3.569l0.044,0.05l-4.337,3.519Z" style="fill:#dc1f34;fill-rule:nonzero;"/><path d="M21.907,15.97l-4.344,3.519l4.344,-3.519Z" style="fill:#fff;fill-rule:nonzero;"/><path d="M17.586,19.516l4.293,-3.575l0.044,0.056l-4.337,3.519Z" style="fill:#dc1f34;fill-rule:nonzero;"/><path d="M21.907,16.321l-4.344,3.519l4.344,-3.519Z" style="fill:#fff;fill-rule:nonzero;"/><path d="M17.586,19.87l4.293,-3.575l0.044,0.056l-4.337,3.519Z" style="fill:#dc1f34;fill-rule:nonzero;"/><path d="M21.907,16.675l-4.344,3.519l4.344,-3.519Z" style="fill:#fff;fill-rule:nonzero;"/><path d="M17.586,20.218l4.293,-3.569l0.044,0.057l-4.337,3.512Z" style="fill:#dc1f34;fill-rule:nonzero;"/><path d="M21.907,17.029l-4.344,3.513l4.344,-3.513Z" style="fill:#fff;fill-rule:nonzero;"/><path d="M17.586,20.572l4.293,-3.569l0.044,0.05l-4.337,3.519Z" style="fill:#dc1f34;fill-rule:nonzero;"/><path d="M21.907,17.377l-4.081,3.281l4.081,-3.281Z" style="fill:#fff;fill-rule:nonzero;"/><path d="M17.848,20.688l4.038,-3.337l0.037,0.056l-4.075,3.281Z" style="fill:#dc1f34;fill-rule:nonzero;"/><path d="M21.907,17.728l-3.688,2.931l3.688,-2.931Z" style="fill:#fff;fill-rule:nonzero;"/><path d="M18.239,20.688l3.643,-2.987l0.044,0.056l-3.687,2.931Z" style="fill:#dc1f34;fill-rule:nonzero;"/><path d="M21.772,18.201l-2.893,2.344l2.893,-2.344Z" style="fill:#fff;fill-rule:nonzero;"/><path d="M18.898,20.572l2.85,-2.4l0.044,0.05l-2.894,2.35Z" style="fill:#dc1f34;fill-rule:nonzero;"/><path d="M21.639,18.671l-2.369,1.875l2.369,-1.875Z" style="fill:#fff;fill-rule:nonzero;"/><path d="M19.295,20.572l2.325,-1.931l0.044,0.056l-2.369,1.875Z" style="fill:#dc1f34;fill-rule:nonzero;"/><path d="M21.376,19.254l-1.181,0.943l1.181,-0.943Z" style="fill:#fff;fill-rule:nonzero;"/><path d="M17.958,14.914l3.813,3.05l-3.813,-3.05Z" style="fill:#fff;fill-rule:nonzero;"/><path d="M21.791,17.939l-3.856,-3l0.044,-0.05l3.812,3.05Z" style="fill:#dc1f34;fill-rule:nonzero;"/><path d="M17.958,15.268l3.813,3.05l-3.813,-3.05Z" style="fill:#fff;fill-rule:nonzero;"/><path d="M21.791,18.289l-3.856,-3l0.044,-0.05l3.812,3.05Z" style="fill:#dc1f34;fill-rule:nonzero;"/><path d="M17.958,15.616l3.681,2.938l-3.681,-2.938Z" style="fill:#fff;fill-rule:nonzero;"/><path d="M21.663,18.524l-3.731,-2.881l0.044,-0.056l3.687,2.937Z" style="fill:#dc1f34;fill-rule:nonzero;"/><path d="M17.958,15.97l3.681,2.931l-3.681,-2.931Z" style="fill:#fff;fill-rule:nonzero;"/><path d="M21.663,18.876l-3.731,-2.875l0.044,-0.057l3.687,2.932Z" style="fill:#dc1f34;fill-rule:nonzero;"/><path d="M17.958,16.321l3.55,2.819l-3.55,-2.819Z" style="fill:#fff;fill-rule:nonzero;"/><path d="M21.529,19.113l-3.594,-2.762l0.044,-0.057l3.55,2.819Z" style="fill:#dc1f34;fill-rule:nonzero;"/><path d="M17.824,16.556l3.55,2.819l-3.55,-2.819Z" style="fill:#fff;fill-rule:nonzero;"/><path d="M21.401,19.346l-3.594,-2.763l0.044,-0.056l3.55,2.819Z" style="fill:#dc1f34;fill-rule:nonzero;"/><path d="M17.824,16.91l3.287,2.581l-3.287,-2.581Z" style="fill:#fff;fill-rule:nonzero;"/><path d="M21.138,19.461l-3.331,-2.525l0.044,-0.056l3.287,2.581Z" style="fill:#dc1f34;fill-rule:nonzero;"/><path d="M17.696,17.142l3.287,2.581l-3.287,-2.581Z" style="fill:#fff;fill-rule:nonzero;"/><path d="M21.004,19.699l-3.332,-2.531l0.044,-0.056l3.288,2.587Z" style="fill:#dc1f34;fill-rule:nonzero;"/><path d="M17.561,17.377l3.163,2.469l-3.163,-2.469Z" style="fill:#fff;fill-rule:nonzero;"/><path d="M20.741,19.816l-3.2,-2.413l0.044,-0.056l3.156,2.469Z" style="fill:#dc1f34;fill-rule:nonzero;"/><path d="M17.561,17.728l3.025,2.35l-3.025,-2.35Z" style="fill:#fff;fill-rule:nonzero;"/><path d="M20.607,20.051l-3.063,-2.294l0.044,-0.05l3.019,2.344Z" style="fill:#dc1f34;fill-rule:nonzero;"/><path d="M17.561,18.082l2.631,2.112l-2.631,-2.112Z" style="fill:#fff;fill-rule:nonzero;"/><path d="M20.216,20.169l-2.675,-2.062l0.044,-0.05l2.631,2.112Z" style="fill:#dc1f34;fill-rule:nonzero;"/><path d="M17.958,13.626l0,0.581c1.313,0.2 2.631,0.2 3.95,0l0,-0.581c-1.319,0.194 -2.637,0.194 -3.95,0" style="fill:#fff;fill-rule:nonzero;"/><path d="M17.952,13.657l0.037,0.55c1.25,0.131 2.607,0.162 3.913,-0.031l-0.031,-0.55c-1.232,0.256 -2.607,0.225 -3.919,0.031m1.975,0.731c-0.65,0 -1.319,-0.05 -1.975,-0.144l-0.031,-0.618c1.387,0.125 2.675,0.156 3.981,-0.038l0.037,0.619c-0.687,0.131 -1.35,0.181 -2.012,0.181" style="fill:#dc1f34;fill-rule:nonzero;"/><path d="M17.561,18.436l2.369,1.875l-2.369,-1.875Z" style="fill:#fff;fill-rule:nonzero;"/><path d="M19.954,20.285l-2.413,-1.825l0.044,-0.05l2.369,1.875Z" style="fill:#dc1f34;fill-rule:nonzero;"/><path d="M17.561,18.784l2.106,1.65l-2.106,-1.65Z" style="fill:#fff;fill-rule:nonzero;"/><path d="M19.686,20.398l-2.144,-1.587l0.044,-0.05l2.1,1.637Z" style="fill:#dc1f34;fill-rule:nonzero;"/><path d="M17.561,19.138l1.844,1.406l-1.844,-1.406Z" style="fill:#fff;fill-rule:nonzero;"/><path d="M19.423,20.52l-1.881,-1.356l0.044,-0.05l1.837,1.406Z" style="fill:#dc1f34;fill-rule:nonzero;"/><path d="M17.561,19.489l1.319,1.056l-1.319,-1.056Z" style="fill:#fff;fill-rule:nonzero;"/><path d="M18.898,20.52l-1.356,-1.006l0.044,-0.05l1.312,1.056Z" style="fill:#dc1f34;fill-rule:nonzero;"/><path d="M17.561,19.843l1.056,0.818l-1.056,-0.818Z" style="fill:#fff;fill-rule:nonzero;"/><path d="M17.561,20.197l0.656,0.462l-0.656,-0.462Z" style="fill:#fff;fill-rule:nonzero;"/><path d="M18.135,13.827c0.106,0 0.181,0.063 0.181,0.132c0,0.068 -0.075,0.125 -0.181,0.125c-0.1,0 -0.175,-0.057 -0.175,-0.125c0,-0.069 0.075,-0.132 0.175,-0.132" style="fill:#fff;fill-rule:nonzero;"/><path d="M18.856,13.892c0.1,0 0.175,0.056 0.175,0.125c0,0.075 -0.075,0.131 -0.175,0.131c-0.1,0 -0.175,-0.056 -0.175,-0.131c0,-0.069 0.075,-0.125 0.175,-0.125" style="fill:#fff;fill-rule:nonzero;"/><path d="M19.576,13.956c0.093,0 0.175,0.056 0.175,0.125c0,0.075 -0.082,0.131 -0.175,0.131c-0.107,0 -0.182,-0.056 -0.182,-0.131c0,-0.069 0.075,-0.125 0.182,-0.125" style="fill:#fff;fill-rule:nonzero;"/><path d="M20.289,13.956c0.1,0 0.182,0.056 0.182,0.125c0,0.075 -0.082,0.131 -0.182,0.131c-0.1,0 -0.175,-0.056 -0.175,-0.131c0,-0.069 0.075,-0.125 0.175,-0.125" style="fill:#fff;fill-rule:nonzero;"/><path d="M21.004,13.892c0.106,0 0.181,0.056 0.181,0.125c0,0.075 -0.075,0.131 -0.181,0.131c-0.094,0 -0.175,-0.056 -0.175,-0.131c0,-0.069 0.081,-0.125 0.175,-0.125" style="fill:#fff;fill-rule:nonzero;"/><path d="M21.724,13.827c0.1,0 0.181,0.063 0.181,0.132c0,0.068 -0.081,0.125 -0.181,0.125c-0.1,0 -0.175,-0.057 -0.175,-0.125c0,-0.069 0.075,-0.132 0.175,-0.132" style="fill:#fff;fill-rule:nonzero;"/><path d="M12.294,19.724l4.743,-2.463l-4.743,2.463Z" style="fill:#fff;fill-rule:nonzero;"/><path d="M12.312,19.751l-0.031,-0.05l4.738,-2.468l-4.707,2.518Z" style="fill:#dc1f34;fill-rule:nonzero;"/><path d="M12.032,19.608l4.481,-2.344l-4.481,2.344Z" style="fill:#fff;fill-rule:nonzero;"/><path d="M12.05,19.638l-0.031,-0.062l4.475,-2.344l-4.444,2.406Z" style="fill:#dc1f34;fill-rule:nonzero;"/><path d="M11.903,19.373l4.075,-2.106l-4.075,2.106Z" style="fill:#fff;fill-rule:nonzero;"/><path d="M11.916,19.4l-0.032,-0.056l4.082,-2.113l-4.05,2.169Z" style="fill:#dc1f34;fill-rule:nonzero;"/><path d="M11.769,19.138l3.557,-1.875l-3.557,1.875Z" style="fill:#fff;fill-rule:nonzero;"/><path d="M11.787,19.168l-0.031,-0.056l3.55,-1.881l-3.519,1.937Z" style="fill:#dc1f34;fill-rule:nonzero;"/><path d="M11.507,18.903l3.287,-1.637l-3.287,1.637Z" style="fill:#fff;fill-rule:nonzero;"/><path d="M11.525,18.933l-0.031,-0.056l3.287,-1.644l-3.256,1.7Z" style="fill:#dc1f34;fill-rule:nonzero;"/><path d="M11.641,18.552l2.231,-1.175l-2.231,1.175Z" style="fill:#fff;fill-rule:nonzero;"/><path d="M11.653,18.579l-0.031,-0.056l2.244,-1.181l-2.213,1.237Z" style="fill:#dc1f34;fill-rule:nonzero;"/><path d="M11.507,18.317l1.712,-0.938l-1.712,0.938Z" style="fill:#fff;fill-rule:nonzero;"/><path d="M11.525,18.344l-0.031,-0.056l1.712,-0.944l-1.681,1Z" style="fill:#dc1f34;fill-rule:nonzero;"/><path d="M11.507,17.966l1.181,-0.587l-1.181,0.587Z" style="fill:#fff;fill-rule:nonzero;"/><path d="M12.691,19.843l4.475,-2.35l-4.475,2.35Z" style="fill:#fff;fill-rule:nonzero;"/><path d="M12.709,19.873l-0.031,-0.062l4.475,-2.344l-4.444,2.406Z" style="fill:#dc1f34;fill-rule:nonzero;"/><path d="M13.087,19.962l4.213,-2.231l-4.213,2.231Z" style="fill:#fff;fill-rule:nonzero;"/><path d="M13.106,19.986l-0.038,-0.056l4.213,-2.231l-4.175,2.287Z" style="fill:#dc1f34;fill-rule:nonzero;"/><path d="M13.484,20.077l3.95,-2.112l-3.95,2.112Z" style="fill:#fff;fill-rule:nonzero;"/><path d="M13.496,20.105l-0.031,-0.056l3.95,-2.119l-3.919,2.175Z" style="fill:#dc1f34;fill-rule:nonzero;"/><path d="M13.875,20.197l3.287,-1.763l-3.287,1.763Z" style="fill:#fff;fill-rule:nonzero;"/><path d="M13.893,20.228l-0.031,-0.063l3.287,-1.762l-3.256,1.825Z" style="fill:#dc1f34;fill-rule:nonzero;"/><path d="M14.4,20.197l2.9,-1.525l-2.9,1.525Z" style="fill:#fff;fill-rule:nonzero;"/><path d="M14.418,20.228l-0.031,-0.063l2.894,-1.525l-2.863,1.588Z" style="fill:#dc1f34;fill-rule:nonzero;"/><path d="M14.796,20.313l2.5,-1.288l-2.5,1.288Z" style="fill:#fff;fill-rule:nonzero;"/><path d="M14.815,20.34l-0.038,-0.056l2.507,-1.294l-2.469,1.35Z" style="fill:#dc1f34;fill-rule:nonzero;"/><path d="M15.193,20.432l1.969,-1.056l-1.969,1.056Z" style="fill:#fff;fill-rule:nonzero;"/><path d="M15.211,20.459l-0.031,-0.062l1.975,-1.05l-1.944,1.112Z" style="fill:#dc1f34;fill-rule:nonzero;"/><path d="M15.718,20.432l1.581,-0.825l-1.581,0.825Z" style="fill:#fff;fill-rule:nonzero;"/><path d="M15.736,20.459l-0.031,-0.062l1.575,-0.825l-1.544,0.887Z" style="fill:#dc1f34;fill-rule:nonzero;"/><path d="M16.249,20.545l1.05,-0.581l-1.05,0.581Z" style="fill:#fff;fill-rule:nonzero;"/><path d="M16.774,20.545l0.656,-0.35l-0.656,0.35Z" style="fill:#fff;fill-rule:nonzero;"/><path d="M17.696,17.142l-0.657,0c-0.225,1.175 -0.225,2.344 0,3.519l0.657,0c-0.219,-1.175 -0.219,-2.344 0,-3.519" style="fill:#fff;fill-rule:nonzero;"/><path d="M17.659,17.136l-0.625,0.043c-0.182,1.132 -0.182,2.313 0.031,3.475l0.587,-0.025c-0.212,-1.156 -0.206,-2.331 0.007,-3.493m0.075,3.562l-0.7,0c-0.25,-1.2 -0.25,-2.394 -0.032,-3.562l0.694,-0.025c-0.187,1.2 -0.187,2.381 0.031,3.543l0.007,0.044Z" style="fill:#dc1f34;fill-rule:nonzero;"/><path d="M9.926,18.784l1.581,-1.169l-1.581,1.169Z" style="fill:#fff;fill-rule:nonzero;"/><path d="M9.95,18.811l-0.044,-0.056l1.581,-1.169l-1.537,1.225Z" style="fill:#dc1f34;fill-rule:nonzero;"/><path d="M9.926,17.966l1.581,1.406l-1.581,-1.406Z" style="fill:#fff;fill-rule:nonzero;"/><path d="M11.531,19.346l-1.625,-1.357l0.044,-0.05l1.581,1.407Z" style="fill:#dc1f34;fill-rule:nonzero;"/><path d="M12.294,17.377l-0.788,0.119c-0.175,0.743 -0.175,1.368 0,2.112l0.788,0.238c-0.169,-0.744 -0.169,-1.725 0,-2.469" style="fill:#fff;fill-rule:nonzero;"/><path d="M12.264,17.368l-0.75,0.163c-0.15,0.706 -0.15,1.337 0.031,2.068l0.706,0.2c-0.162,-0.75 -0.156,-1.693 0.013,-2.431m0.081,2.519l-0.844,-0.25c-0.2,-0.769 -0.2,-1.4 -0.025,-2.144l0.819,-0.15c-0.144,0.788 -0.144,1.75 0.037,2.494l0.013,0.05Z" style="fill:#dc1f34;fill-rule:nonzero;"/><path d="M21.901,11.511l0,-0.593c-0.594,0.006 -0.987,-0.344 -0.987,-0.7l-1.975,0c0,0.356 -0.388,0.706 -0.982,0.706l0,0.587l3.944,0Z" style="fill:#fff;fill-rule:nonzero;"/><path d="M20.882,10.218l-1.944,0.037c0.038,0.319 -0.35,0.706 -0.981,0.706l0.031,0.55l3.875,-0.037l0,-0.556c-0.256,0.031 -0.519,-0.044 -0.7,-0.188c-0.181,-0.137 -0.281,-0.325 -0.281,-0.512m1.056,1.325l-3.981,0l-0.038,-0.619c0.625,-0.031 0.994,-0.381 0.994,-0.706l2,-0.038c0.038,0.2 0.125,0.369 0.288,0.494c0.181,0.137 0.418,0.212 0.687,0.212l0.05,0.657Z" style="fill:#dc1f34;fill-rule:nonzero;"/><rect x="19.081" y="9.519" width="1.694" height="0.706" style="fill:#fff;"/><path d="M20.741,9.516l-1.662,0.037l0.037,0.669l1.625,-0.031l0,-0.675Zm0.069,0.737l-1.731,0l-0.032,-0.737l1.725,-0.032l0.038,0.769Z" style="fill:#dc1f34;fill-rule:nonzero;"/><rect x="19.219" y="8.812" width="1.419" height="0.706" style="fill:#fff;"/><path d="M20.601,8.811l-1.382,0.037l0.038,0.669l1.344,-0.031l0,-0.675Zm0.068,0.743l-1.45,0l-0.031,-0.743l1.45,-0.032l0.031,0.775Z" style="fill:#dc1f34;fill-rule:nonzero;"/><rect x="19.219" y="8.106" width="1.419" height="0.7" style="fill:#fff;"/><path d="M20.601,8.109l-1.382,0.031l0.038,0.669l1.344,-0.031l0,-0.669Zm0.068,0.737l-1.45,0l-0.031,-0.737l1.45,-0.038l0.031,0.775Z" style="fill:#dc1f34;fill-rule:nonzero;"/><rect x="19.362" y="7.175" width="1.131" height="0.938" style="fill:#fff;"/><path d="M20.461,7.172l-1.1,0.031l0.037,0.906l1.063,-0.031l0,-0.906Zm0.068,0.969l-1.168,0l-0.032,-0.969l1.163,-0.038l0.037,1.007Z" style="fill:#dc1f34;fill-rule:nonzero;"/><rect x="19.319" y="6.35" width="1.219" height="0.825" style="fill:#fff;"/><path d="M20.509,6.348l-1.187,0.031l0.025,0.794l1.162,-0.037l0,-0.788Zm0.069,0.856l-1.256,0l-0.038,-0.856l1.257,-0.031l0.037,0.887Z" style="fill:#dc1f34;fill-rule:nonzero;"/><path d="M19.997,4.471c0.906,0 1.631,0.5 1.631,1.113c0,0.612 -0.725,1.119 -1.631,1.119c-0.906,0 -1.638,-0.507 -1.638,-1.119c0,-0.613 0.732,-1.113 1.638,-1.113" style="fill:#fff;fill-rule:nonzero;"/><path d="M19.997,4.507c-0.888,0 -1.6,0.482 -1.6,1.075c0,0.6 0.712,1.082 1.6,1.082c0.881,0 1.6,-0.482 1.6,-1.082c0,-0.593 -0.719,-1.075 -1.6,-1.075m0,2.225c-0.913,0 -1.669,-0.518 -1.669,-1.15c0,-0.631 0.756,-1.143 1.669,-1.143c0.912,0 1.669,0.512 1.669,1.143c0,0.632 -0.757,1.15 -1.669,1.15" style="fill:#dc1f34;fill-rule:nonzero;"/><path d="M20.814,5.524c0,0.306 0.407,0.825 0.407,0.825c-0.294,0.206 -0.775,0.35 -1.225,0.35c-0.45,0 -1.013,-0.081 -1.225,-0.35c0,0 0.412,-0.519 0.412,-0.825c0,-0.306 -0.412,-0.7 -0.412,-0.7c0.3,-0.206 0.775,-0.35 1.225,-0.35c0.45,0 0.931,0.144 1.225,0.35c0,0 -0.407,0.394 -0.407,0.7" style="fill:#fff;fill-rule:nonzero;"/><path d="M18.794,4.846c0.05,0 0.419,0.375 0.419,0.675c0,0.319 -0.4,0.825 -0.412,0.85c0.25,0.269 0.975,0.294 1.193,0.294c0.432,0 0.9,-0.137 1.207,-0.344c-0.044,0.007 -0.425,-0.481 -0.425,-0.8c0,-0.312 0.406,-0.706 0.425,-0.725c-0.6,-0.312 -1.794,-0.362 -2.407,0.05m1.2,1.888c-0.225,0 -0.981,-0.031 -1.25,-0.363c0.007,-0.05 0.407,-0.55 0.407,-0.85c0,-0.287 -0.4,-0.675 -0.4,-0.675c0.637,-0.537 1.856,-0.487 2.493,-0.05c0,0.05 -0.4,0.438 -0.4,0.725c0,0.3 0.4,0.8 0.407,0.807c-0.325,0.262 -0.813,0.406 -1.257,0.406" style="fill:#dc1f34;fill-rule:nonzero;"/><path d="M20.54,5.524c0,0.306 0.406,0.944 0.406,0.944c-0.287,0.2 -0.5,0.231 -0.95,0.231c-0.45,0 -0.737,0.031 -0.95,-0.231c0,0 0.406,-0.638 0.406,-0.944c0,-0.306 -0.406,-0.819 -0.406,-0.819c0.294,-0.206 0.5,-0.231 0.95,-0.231c0.45,0 0.663,0.025 0.95,0.231c0,0 -0.406,0.513 -0.406,0.819" style="fill:#fff;fill-rule:nonzero;"/><path d="M19.063,4.734c0.044,0 0.419,0.481 0.419,0.787c0,0.319 -0.394,0.938 -0.406,0.963c0.156,0.169 0.375,0.181 0.656,0.181l0,0.038l0.125,-0.038c0.594,0 0.787,-0.031 1.075,-0.225c-0.038,0 -0.425,-0.6 -0.425,-0.919c0,-0.306 0.4,-0.812 0.419,-0.837c-0.282,-0.144 -0.475,-0.175 -0.932,-0.175c-0.45,0 -0.643,0.031 -0.931,0.225m0.669,2c-0.288,0 -0.538,-0.019 -0.713,-0.25c0,-0.044 0.4,-0.663 0.4,-0.963c0,-0.287 -0.4,-0.787 -0.4,-0.793c0.307,-0.257 0.519,-0.288 0.975,-0.288c0.469,0 0.675,0.031 0.975,0.238c0.007,0.056 -0.393,0.556 -0.393,0.843c0,0.3 0.4,0.919 0.406,0.925c-0.313,0.25 -0.519,0.288 -0.988,0.288l-0.262,0Z" style="fill:#dc1f34;fill-rule:nonzero;"/><path d="M18.361,5.295c0.225,0 0.406,0.15 0.406,0.35c0,0.194 -0.181,0.35 -0.406,0.35c-0.219,0 -0.4,-0.156 -0.4,-0.35c0,-0.2 0.181,-0.35 0.4,-0.35" style="fill:#fff;fill-rule:nonzero;"/><path d="M18.361,5.326c-0.2,0 -0.375,0.143 -0.375,0.318c0,0.35 0.756,0.35 0.756,0c0,-0.175 -0.175,-0.318 -0.381,-0.318m0,0.706c-0.238,0 -0.438,-0.175 -0.438,-0.388c0,-0.431 0.881,-0.431 0.881,0c0,0.213 -0.2,0.388 -0.443,0.388" style="fill:#dc1f34;fill-rule:nonzero;"/><path d="M21.626,5.295c0.225,0 0.406,0.15 0.406,0.35c0,0.194 -0.181,0.35 -0.406,0.35c-0.219,0 -0.4,-0.156 -0.4,-0.35c0,-0.2 0.181,-0.35 0.4,-0.35" style="fill:#fff;fill-rule:nonzero;"/><path d="M21.626,5.326c-0.2,0 -0.375,0.143 -0.375,0.318c0,0.35 0.75,0.35 0.75,0c0,-0.175 -0.169,-0.318 -0.375,-0.318m0,0.706c-0.244,0 -0.437,-0.175 -0.437,-0.388c0,-0.431 0.881,-0.431 0.881,0c0,0.213 -0.2,0.388 -0.444,0.388" style="fill:#dc1f34;fill-rule:nonzero;"/><path d="M19.997,5.295c0.225,0 0.406,0.15 0.406,0.35c0,0.194 -0.181,0.35 -0.406,0.35c-0.225,0 -0.406,-0.156 -0.406,-0.35c0,-0.2 0.181,-0.35 0.406,-0.35" style="fill:#fff;fill-rule:nonzero;"/><path d="M19.997,5.326c-0.206,0 -0.375,0.143 -0.375,0.318c0,0.35 0.75,0.35 0.75,0c0,-0.175 -0.169,-0.318 -0.375,-0.318m0,0.706c-0.244,0 -0.438,-0.175 -0.438,-0.388c0,-0.431 0.875,-0.431 0.875,0c0,0.213 -0.193,0.388 -0.437,0.388" style="fill:#dc1f34;fill-rule:nonzero;"/><path d="M19.997,4.117c0.225,0 0.406,0.156 0.406,0.356c0,0.194 -0.181,0.35 -0.406,0.35c-0.225,0 -0.406,-0.156 -0.406,-0.35c0,-0.2 0.181,-0.356 0.406,-0.356" style="fill:#fff;fill-rule:nonzero;"/><path d="M19.997,4.154c-0.206,0 -0.375,0.137 -0.375,0.319c0,0.35 0.75,0.35 0.75,0c0,-0.182 -0.169,-0.319 -0.375,-0.319m0,0.7c-0.244,0 -0.438,-0.175 -0.438,-0.381c0,-0.432 0.875,-0.432 0.875,0c0,0.206 -0.193,0.381 -0.437,0.381" style="fill:#dc1f34;fill-rule:nonzero;"/><path d="M18.801,10.806c0.231,0 0.418,0.157 0.418,0.35c0,0.194 -0.187,0.357 -0.418,0.357c-0.232,0 -0.419,-0.163 -0.419,-0.357c0,-0.193 0.187,-0.35 0.419,-0.35" style="fill:#fff;fill-rule:nonzero;"/><path d="M18.801,10.843c-0.213,0 -0.388,0.138 -0.388,0.313c0,0.356 0.775,0.35 0.775,0c0,-0.175 -0.175,-0.313 -0.387,-0.313m0,0.7c-0.25,0 -0.45,-0.175 -0.45,-0.387c0,-0.425 0.906,-0.425 0.906,0c0,0.212 -0.206,0.387 -0.456,0.387" style="fill:#dc1f34;fill-rule:nonzero;"/><path d="M21.052,10.806c0.238,0 0.425,0.157 0.425,0.35c0,0.194 -0.187,0.357 -0.425,0.357c-0.231,0 -0.412,-0.163 -0.412,-0.357c0,-0.193 0.181,-0.35 0.412,-0.35" style="fill:#fff;fill-rule:nonzero;"/><path d="M21.052,10.843c-0.212,0 -0.387,0.138 -0.387,0.313c0,0.356 0.775,0.35 0.775,0c0,-0.175 -0.169,-0.313 -0.388,-0.313m0,0.7c-0.25,0 -0.45,-0.175 -0.45,-0.387c0,-0.425 0.907,-0.425 0.907,0c0,0.212 -0.207,0.387 -0.457,0.387" style="fill:#dc1f34;fill-rule:nonzero;"/><path d="M18.941,10.221l1.968,0l-0.981,1.056l-0.987,-1.056Z" style="fill:#fff;fill-rule:nonzero;"/><path d="M20.887,10.199l-1.95,0.057l0.994,0.975l0.956,-1.032Zm-0.956,1.125l-1.012,-1.081l1.993,-0.056l-0.981,1.137Z" style="fill:#dc1f34;fill-rule:nonzero;"/><path d="M19.929,10.571c0.313,0 0.563,0.213 0.563,0.469c0,0.256 -0.25,0.469 -0.563,0.469c-0.312,0 -0.568,-0.213 -0.568,-0.469c0,-0.256 0.256,-0.469 0.568,-0.469" style="fill:#fff;fill-rule:nonzero;"/><path d="M19.929,10.605c-0.293,0 -0.531,0.194 -0.531,0.438c0,0.475 1.063,0.475 1.063,0c0,-0.244 -0.238,-0.438 -0.532,-0.438m0,0.938c-0.331,0 -0.6,-0.225 -0.6,-0.5c0,-0.282 0.269,-0.507 0.6,-0.507c0.332,0 0.6,0.225 0.6,0.507c0,0.275 -0.268,0.5 -0.6,0.5" style="fill:#dc1f34;fill-rule:nonzero;"/><path d="M17.921,14.563l2.7,0c0.094,0 0.163,0.056 0.163,0.125l0,0.45c0,0.075 -0.069,0.131 -0.163,0.131l-2.7,0c-0.094,0 -0.162,-0.056 -0.162,-0.131l0,-0.45c0,-0.069 0.068,-0.125 0.162,-0.125" style="fill:#fff;fill-rule:nonzero;"/><path d="M17.921,14.597l-0.131,0.544l2.831,0.1c0.069,0 0.131,-0.05 0.131,-0.1l0,-0.45l-2.831,-0.094Zm2.7,0.7l-2.7,0c-0.112,0 -0.194,-0.063 -0.194,-0.156l0,-0.45c0,-0.094 0.082,-0.163 0.194,-0.163l2.7,0c0.106,0 0.2,0.069 0.2,0.163l0,0.45c0,0.093 -0.094,0.156 -0.2,0.156" style="fill:#dc1f34;fill-rule:nonzero;"/><path d="M21.712,14.213c-0.219,0 -0.394,0.218 -0.394,0.487l0,0.306c0,0.282 0.175,0.5 0.394,0.5c0.212,0 0.387,-0.218 0.387,-0.5l0,-0.306c0,-0.269 -0.175,-0.487 -0.387,-0.487m0,-0.238c-0.369,0 -0.656,0.275 -0.656,0.613l0,0.537c0,0.338 0.287,0.613 0.656,0.613c0.362,0 0.65,-0.275 0.65,-0.613l0,-0.537c0,-0.338 -0.288,-0.613 -0.65,-0.613" style="fill:#fff;fill-rule:nonzero;"/><path d="M21.712,14.246c-0.2,0 -0.369,0.2 -0.369,0.456l0,0.306c0,0.506 0.731,0.506 0.731,0l0,-0.306c0,-0.256 -0.168,-0.456 -0.362,-0.456m0,1.287c-0.238,0 -0.431,-0.237 -0.431,-0.525l0,-0.306c0,-0.288 0.193,-0.525 0.431,-0.525c0.231,0 0.419,0.237 0.419,0.525l0,0.306c0,0.288 -0.188,0.525 -0.419,0.525m0,-1.525c-0.35,0 -0.631,0.256 -0.631,0.581l0,0.532c0,0.325 0.281,0.581 0.631,0.581c0.344,0 0.625,-0.256 0.625,-0.581l0,-0.532c0,-0.325 -0.281,-0.581 -0.625,-0.581m0,1.763c-0.388,0 -0.694,-0.294 -0.694,-0.65l0,-0.532c0,-0.35 0.306,-0.65 0.694,-0.65c0.381,0 0.687,0.3 0.687,0.65l0,0.532c0,0.356 -0.306,0.65 -0.687,0.65" style="fill:#dc1f34;fill-rule:nonzero;"/><path d="M18.287,13.861c-0.368,0 -0.656,0.269 -0.656,0.613l0,0.768c0,0.338 0.288,0.613 0.656,0.613c0.363,0 0.657,-0.275 0.657,-0.613l0,-0.768c0,-0.344 -0.294,-0.613 -0.657,-0.613m0,0.238c-0.218,0 -0.393,0.212 -0.393,0.487l0,0.544c0,0.269 0.175,0.487 0.393,0.487c0.219,0 0.394,-0.218 0.394,-0.487l0,-0.544c0,-0.275 -0.175,-0.487 -0.394,-0.487" style="fill:#fff;fill-rule:nonzero;"/><path d="M18.287,14.127c-0.2,0 -0.368,0.206 -0.368,0.456l0,0.55c0,0.5 0.731,0.494 0.731,0l0,-0.55c0,-0.25 -0.169,-0.456 -0.363,-0.456m0,1.525c-0.237,0 -0.431,-0.231 -0.431,-0.519l0,-0.55c0,-0.287 0.194,-0.525 0.431,-0.525c0.238,0 0.425,0.231 0.425,0.525l0,0.55c0,0.288 -0.193,0.519 -0.425,0.519m0,-1.763c-0.35,0 -0.631,0.263 -0.631,0.582l0,0.768c0,0.319 0.281,0.582 0.631,0.582c0.344,0 0.625,-0.263 0.625,-0.582l0,-0.768c0,-0.319 -0.281,-0.582 -0.625,-0.582m0,2c-0.387,0 -0.693,-0.293 -0.693,-0.65l0,-0.768c0,-0.357 0.306,-0.644 0.693,-0.644c0.382,0 0.688,0.287 0.688,0.644l0,0.768c0,0.357 -0.306,0.65 -0.688,0.65" style="fill:#dc1f34;fill-rule:nonzero;"/><path d="M17.232,14.096c-0.369,0 -0.656,0.269 -0.656,0.613l0,0.35c0,0.337 0.287,0.612 0.656,0.612c0.369,0 0.656,-0.275 0.656,-0.612l0,-0.35c0,-0.344 -0.287,-0.613 -0.656,-0.613m0,0.232c-0.213,0 -0.388,0.218 -0.388,0.493l0,0.125c0,0.269 0.175,0.494 0.388,0.494c0.219,0 0.394,-0.225 0.394,-0.494l0,-0.125c0,-0.275 -0.175,-0.493 -0.394,-0.493" style="fill:#fff;fill-rule:nonzero;"/><path d="M17.232,14.362c-0.194,0 -0.363,0.206 -0.363,0.456c0,0.763 0.725,0.631 0.725,0.131c0,-0.381 -0.162,-0.587 -0.362,-0.587m0,1.112c-0.231,0 -0.425,-0.237 -0.425,-0.525c0,-0.837 0.85,-0.712 0.85,-0.131c0,0.419 -0.188,0.656 -0.425,0.656m0,-1.35c-0.344,0 -0.625,0.263 -0.625,0.582l0,0.356c0,0.312 0.281,0.575 0.625,0.575c0.344,0 0.625,-0.263 0.625,-0.575l0,-0.356c0,-0.319 -0.281,-0.582 -0.625,-0.582m0,1.582c-0.381,0 -0.688,-0.288 -0.688,-0.644l0,-0.356c0,-0.357 0.307,-0.644 0.688,-0.644c0.387,0 0.687,0.287 0.687,0.644l0,0.356c0,0.356 -0.3,0.644 -0.687,0.644" style="fill:#dc1f34;fill-rule:nonzero;"/><path d="M15.651,13.743c-0.65,0 -1.175,0.3 -1.175,0.681l0,0.862c0,0.382 0.525,0.688 1.175,0.688c0.656,0 1.188,-0.306 1.188,-0.688l0,-0.862c0,-0.381 -0.532,-0.681 -1.188,-0.681m0,0.262c-0.387,0 -0.706,0.244 -0.706,0.544l0,0.612c0,0.307 0.319,0.55 0.706,0.55c0.394,0 0.713,-0.243 0.713,-0.55l0,-0.612c0,-0.3 -0.319,-0.544 -0.713,-0.544" style="fill:#fff;fill-rule:nonzero;"/><path d="M15.651,14.035c-0.375,0 -0.669,0.231 -0.669,0.519l0,0.606c0,0.288 0.294,0.513 0.669,0.513c0.381,0 0.675,-0.225 0.675,-0.513l0,-0.606c0,-0.288 -0.294,-0.519 -0.675,-0.519m0,1.706c-0.406,0 -0.737,-0.262 -0.737,-0.581l0,-0.606c0,-0.325 0.331,-0.588 0.737,-0.588c0.413,0 0.744,0.263 0.744,0.588l0,0.606c0,0.319 -0.331,0.581 -0.744,0.581m0,-1.968c-0.637,0 -1.15,0.293 -1.15,0.65l0,0.862c0,0.363 0.513,0.65 1.15,0.65c0.638,0 1.156,-0.287 1.156,-0.65l0,-0.862c0,-0.357 -0.518,-0.65 -1.156,-0.65m0,2.231c-0.669,0 -1.212,-0.319 -1.212,-0.719l0,-0.862c0,-0.388 0.543,-0.719 1.212,-0.719c0.681,0 1.219,0.325 1.219,0.719l0,0.862c0,0.4 -0.55,0.719 -1.219,0.719" style="fill:#dc1f34;fill-rule:nonzero;"/><path d="M24.208,13.861c-0.656,0 -1.181,0.3 -1.181,0.681l0,0.863c0,0.381 0.525,0.681 1.181,0.681c0.656,0 1.181,-0.3 1.181,-0.681l0,-0.863c0,-0.381 -0.525,-0.681 -1.181,-0.681m0,0.263c-0.394,0 -0.712,0.243 -0.712,0.543l0,0.613c0,0.3 0.318,0.55 0.712,0.55c0.394,0 0.713,-0.25 0.713,-0.55l0,-0.613c0,-0.3 -0.319,-0.543 -0.713,-0.543" style="fill:#fff;fill-rule:nonzero;"/><path d="M24.208,14.154c-0.375,0 -0.675,0.232 -0.675,0.519l0,0.606c0,0.282 0.3,0.513 0.675,0.513c0.375,0 0.675,-0.231 0.675,-0.513l0,-0.606c0,-0.287 -0.3,-0.519 -0.675,-0.519m0,1.707c-0.406,0 -0.744,-0.263 -0.744,-0.582l0,-0.606c0,-0.325 0.338,-0.587 0.744,-0.587c0.406,0 0.744,0.262 0.744,0.587l0,0.606c0,0.319 -0.338,0.582 -0.744,0.582m0,-1.969c-0.637,0 -1.156,0.294 -1.156,0.65l0,0.862c0,0.357 0.519,0.65 1.156,0.65c0.638,0 1.15,-0.293 1.15,-0.65l0,-0.862c0,-0.356 -0.512,-0.65 -1.15,-0.65m0,2.231c-0.681,0 -1.219,-0.319 -1.219,-0.719l0,-0.862c0,-0.4 0.538,-0.719 1.219,-0.719c0.681,0 1.213,0.319 1.213,0.719l0,0.862c0,0.4 -0.532,0.719 -1.213,0.719" style="fill:#dc1f34;fill-rule:nonzero;"/><path d="M22.059,14.563l1.407,0c0.043,0 0.081,0.056 0.081,0.125l0,0.45c0,0.075 -0.038,0.131 -0.081,0.131l-1.407,0c-0.05,0 -0.093,-0.056 -0.093,-0.131l0,-0.45c0,-0.069 0.043,-0.125 0.093,-0.125" style="fill:#fff;fill-rule:nonzero;"/><path d="M22.059,14.597l-0.056,0.544l1.463,0.125l0.05,-0.125l0,-0.45l-1.457,-0.094Zm1.407,0.7l-1.444,0l-0.088,-0.156l0,-0.488l0.125,-0.125l1.438,0l0.087,0.163l0,0.487l-0.118,0.119Z" style="fill:#dc1f34;fill-rule:nonzero;"/><path d="M20.571,14.447l0.825,0c0.031,0 0.05,0.075 0.05,0.163l0,0.606c0,0.1 -0.019,0.169 -0.05,0.169l-0.825,0c-0.025,0 -0.05,-0.069 -0.05,-0.169l0,-0.606c0,-0.088 0.025,-0.163 0.05,-0.163" style="fill:#fff;fill-rule:nonzero;"/><path d="M20.571,14.481l-0.013,0.737l0.831,0.131l0.025,-0.737l-0.843,-0.131Zm0.825,0.937l-0.825,0c-0.063,0 -0.082,-0.1 -0.082,-0.2l0,-0.606c0,-0.094 0.019,-0.2 0.082,-0.2l0.825,0c0.062,0 0.087,0.106 0.087,0.2l0,0.606c0,0.1 -0.025,0.2 -0.087,0.2" style="fill:#dc1f34;fill-rule:nonzero;"/><path d="M16.231,14.447l0.818,0c0.032,0 0.057,0.075 0.057,0.163l0,0.606c0,0.1 -0.025,0.169 -0.057,0.169l-0.818,0c-0.032,0 -0.057,-0.069 -0.057,-0.169l0,-0.606c0,-0.088 0.025,-0.163 0.057,-0.163" style="fill:#fff;fill-rule:nonzero;"/><path d="M16.231,14.481l-0.019,0.737l0.831,0.131l0.025,-0.737l-0.837,-0.131Zm0.818,0.937l-0.818,0c-0.063,0 -0.088,-0.1 -0.088,-0.2l0,-0.606c0,-0.094 0.025,-0.2 0.088,-0.2l0.818,0c0.063,0 0.088,0.106 0.088,0.2l0,0.606c0,0.1 -0.025,0.2 -0.088,0.2" style="fill:#dc1f34;fill-rule:nonzero;"/><path d="M13.387,14.325l1.644,0c0.05,0 0.093,0.1 0.093,0.212l0,0.757c0,0.112 -0.043,0.206 -0.093,0.206l-1.644,0c-0.056,0 -0.106,-0.094 -0.106,-0.206l0,-0.757c0,-0.112 0.05,-0.212 0.106,-0.212" style="fill:#fff;fill-rule:nonzero;"/><path d="M13.387,14.362c-0.031,0 -0.069,0.069 -0.069,0.175l0,0.756c0,0.106 0.038,0.175 0.069,0.175l1.644,0c0.025,0 0.062,-0.069 0.062,-0.175l0,-0.756c0,-0.106 -0.037,-0.175 -0.062,-0.175l-1.644,0Zm1.644,1.169l-1.644,0c-0.081,0 -0.131,-0.094 -0.131,-0.238l0,-0.756c0,-0.138 0.05,-0.244 0.131,-0.244l1.644,0c0.068,0 0.131,0.106 0.131,0.244l0,0.756c0,0.144 -0.063,0.238 -0.131,0.238" style="fill:#dc1f34;fill-rule:nonzero;"/><path d="M24.824,14.447l1.525,0c0.057,0 0.1,0.094 0.1,0.207l0,0.756c0,0.112 -0.043,0.206 -0.1,0.206l-1.525,0c-0.05,0 -0.093,-0.094 -0.093,-0.206l0,-0.756c0,-0.113 0.043,-0.207 0.093,-0.207" style="fill:#fff;fill-rule:nonzero;"/><path d="M24.824,14.481c-0.018,0 -0.056,0.068 -0.056,0.168l0,0.763c0,0.112 0.038,0.175 0.056,0.175l1.525,0c0.025,0 0.063,-0.063 0.063,-0.175l0,-0.763c0,-0.1 -0.038,-0.168 -0.063,-0.168l-1.525,0Zm1.525,1.168l-1.525,0c-0.081,0 -0.125,-0.118 -0.125,-0.237l0,-0.763c0,-0.131 0.05,-0.237 0.125,-0.237l1.525,0c0.075,0 0.132,0.106 0.132,0.237l0,0.763c0,0.119 -0.044,0.237 -0.132,0.237" style="fill:#dc1f34;fill-rule:nonzero;"/></g></svg>