<?xml version="1.0" encoding="UTF-8" standalone="no"?><!DOCTYPE svg PUBLIC "-//W3C//DTD SVG 1.1//EN" "http://www.w3.org/Graphics/SVG/1.1/DTD/svg11.dtd"><svg width="100%" height="100%" viewBox="0 0 18 17" version="1.1" xmlns="http://www.w3.org/2000/svg" xmlns:xlink="http://www.w3.org/1999/xlink" xml:space="preserve" xmlns:serif="http://www.serif.com/" style="fill-rule:evenodd;clip-rule:evenodd;stroke-linejoin:round;stroke-miterlimit:2;"><path d="M5.835,14.11l6.33,0c0.218,0 0.396,-0.177 0.396,-0.396c0,-0.218 -0.178,-0.395 -0.396,-0.395l-6.33,0c-0.218,0 -0.396,0.177 -0.396,0.395c0,0.219 0.178,0.396 0.396,0.396m0,-2.11l6.33,0c0.218,0 0.396,-0.178 0.396,-0.396c0,-0.218 -0.178,-0.395 -0.396,-0.395l-6.33,0c-0.218,0 -0.396,0.177 -0.396,0.395c0,0.218 0.178,0.396 0.396,0.396m5.761,-5.576c-0.149,0 -0.27,-0.121 -0.27,-0.27c0,-0.148 0.121,-0.269 0.27,-0.269c0.148,0 0.269,0.121 0.269,0.269c0,0.149 -0.121,0.27 -0.269,0.27m0,-1.331c-0.585,0 -1.061,0.476 -1.061,1.061c0,0.585 0.476,1.061 1.061,1.061c0.585,0 1.06,-0.476 1.06,-1.061c0,-0.585 -0.475,-1.061 -1.06,-1.061m3.101,1.331c-0.148,0 -0.268,-0.121 -0.268,-0.27c0,-0.148 0.12,-0.269 0.268,-0.269c0.15,0 0.27,0.121 0.27,0.269c0,0.149 -0.12,0.27 -0.27,0.27m0,-1.331c-0.585,0 -1.06,0.476 -1.06,1.061c0,0.585 0.475,1.061 1.06,1.061c0.585,0 1.062,-0.476 1.062,-1.061c0,-0.585 -0.477,-1.061 -1.062,-1.061m2.512,5.126c0,0.328 -0.267,0.594 -0.594,0.594l-1.714,0l0,-1.253l0.461,0c0.219,0 0.397,-0.177 0.397,-0.395c0,-0.219 -0.178,-0.396 -0.397,-0.396l-0.856,0l-10.814,0l-1.054,0c-0.219,0 -0.397,0.177 -0.397,0.396c0,0.218 0.178,0.395 0.397,0.395l0.659,0l0,1.253l-1.912,0c-0.327,0 -0.594,-0.266 -0.594,-0.594l0,-5.867c0,-0.327 0.267,-0.594 0.594,-0.594l15.23,0c0.327,0 0.594,0.267 0.594,0.594l0,5.867Zm-3.1,5.143l-10.021,0l0,-5.802l10.021,0l0,5.802Zm-11.92,-14.571l13.623,0l0,2.176l-13.623,0l0,-2.176Zm14.426,2.176l-0.012,0l0,-2.571c0,-0.219 -0.177,-0.396 -0.396,-0.396l-14.414,0c-0.219,0 -0.395,0.177 -0.395,0.396l0,2.571l-0.013,0c-0.764,0 -1.385,0.622 -1.385,1.385l0,5.867c0,0.764 0.621,1.385 1.385,1.385l1.912,0l0,4.154c0,0.218 0.177,0.395 0.395,0.395l10.814,0c0.218,0 0.395,-0.177 0.395,-0.395l0,-4.154l1.714,0c0.764,0 1.385,-0.621 1.385,-1.385l0,-5.867c0,-0.763 -0.621,-1.385 -1.385,-1.385" style="fill:#a087a4;fill-rule:nonzero;"/></svg>