<?xml version="1.0" encoding="UTF-8" standalone="no"?><!DOCTYPE svg PUBLIC "-//W3C//DTD SVG 1.1//EN" "http://www.w3.org/Graphics/SVG/1.1/DTD/svg11.dtd"><svg width="100%" height="100%" viewBox="0 0 50 41" version="1.1" xmlns="http://www.w3.org/2000/svg" xmlns:xlink="http://www.w3.org/1999/xlink" xml:space="preserve" xmlns:serif="http://www.serif.com/" style="fill-rule:evenodd;clip-rule:evenodd;stroke-linejoin:round;stroke-miterlimit:2;"><path d="M49.602,4.454c-2.334,1.337 -4.221,2.487 -5.66,3.453c-1.441,0.964 -2.905,2.238 -4.394,3.821c-1.441,1.535 -2.521,3.108 -3.24,4.715c-0.721,1.61 -1.229,3.699 -1.527,6.273l3.576,0c3.077,0 5.498,0.757 7.261,2.271c1.761,1.514 2.644,3.736 2.644,6.666c0,2.085 -0.782,4.034 -2.346,5.847c-1.565,1.812 -3.713,2.718 -6.443,2.718c-4.271,0 -7.324,-1.401 -9.161,-4.2c-1.837,-2.799 -2.755,-6.482 -2.755,-11.039c0,-3.223 0.694,-6.159 2.085,-8.809c1.389,-2.65 3.078,-5.019 5.065,-7.1c2.036,-2.131 4.195,-3.939 6.479,-5.427c2.283,-1.487 4.195,-2.699 5.736,-3.643l2.68,4.454Zm-27.556,0c-2.335,1.337 -4.221,2.487 -5.661,3.453c-1.44,0.964 -2.904,2.238 -4.394,3.822c-1.391,1.485 -2.458,3.045 -3.202,4.677c-0.745,1.635 -1.266,3.736 -1.565,6.31l3.575,0c3.078,0 5.499,0.757 7.262,2.271c1.762,1.514 2.644,3.736 2.644,6.666c0,2.085 -0.782,4.034 -2.346,5.847c-1.564,1.812 -3.712,2.718 -6.442,2.718c-4.271,0 -7.325,-1.401 -9.161,-4.2c-1.838,-2.799 -2.756,-6.481 -2.756,-11.039c0,-3.223 0.695,-6.159 2.086,-8.809c1.389,-2.65 3.077,-5.019 5.064,-7.1c2.035,-2.131 4.195,-3.939 6.479,-5.427c2.283,-1.487 4.196,-2.699 5.735,-3.643l2.682,4.454Z" style="fill:#fff;fill-rule:nonzero;"/></svg>