<?xml version="1.0" encoding="UTF-8" standalone="no"?><!DOCTYPE svg PUBLIC "-//W3C//DTD SVG 1.1//EN" "http://www.w3.org/Graphics/SVG/1.1/DTD/svg11.dtd"><svg width="100%" height="100%" viewBox="0 0 35 33" version="1.1" xmlns="http://www.w3.org/2000/svg" xmlns:xlink="http://www.w3.org/1999/xlink" xml:space="preserve" xmlns:serif="http://www.serif.com/" style="fill-rule:evenodd;clip-rule:evenodd;stroke-linejoin:round;stroke-miterlimit:2;"><path d="M30.149,20.424c-0.538,0 -0.973,0.435 -0.973,0.973l0,5.74c0,1.609 -1.308,2.918 -2.918,2.918l-21.396,0c-1.609,0 -2.918,-1.309 -2.918,-2.918l0,-21.396c0,-1.609 1.309,-2.918 2.918,-2.918l13.711,0c0.537,0 0.972,-0.435 0.972,-0.972c0,-0.538 -0.435,-0.973 -0.972,-0.973l-13.711,0c-2.681,0 -4.862,2.181 -4.862,4.863l0,21.396c0,2.682 2.181,4.863 4.862,4.863l21.396,0c2.682,0 4.864,-2.181 4.864,-4.863l0,-5.74c0,-0.538 -0.436,-0.973 -0.973,-0.973" style="fill:#a3859e;fill-rule:nonzero;"/><path d="M34.59,8.585c0.001,-0.031 0,-0.062 -0.002,-0.094c-0.002,-0.031 -0.005,-0.063 -0.009,-0.094c-0.005,-0.031 -0.013,-0.06 -0.021,-0.09c-0.008,-0.031 -0.015,-0.06 -0.027,-0.09c-0.01,-0.029 -0.024,-0.058 -0.037,-0.086c-0.014,-0.029 -0.028,-0.057 -0.044,-0.084c-0.016,-0.025 -0.033,-0.05 -0.051,-0.074c-0.021,-0.028 -0.043,-0.055 -0.066,-0.081c-0.009,-0.009 -0.015,-0.02 -0.024,-0.029l-7.577,-7.577c-0.38,-0.381 -0.996,-0.381 -1.375,0c-0.38,0.38 -0.38,0.995 0,1.375l5.351,5.351c-3.449,-0.434 -9.099,-0.508 -13.93,2.433c-4.088,2.489 -6.75,6.635 -7.912,12.323c-0.108,0.526 0.232,1.04 0.758,1.148c0.066,0.013 0.132,0.02 0.196,0.02c0.452,0 0.857,-0.318 0.952,-0.778c1.048,-5.133 3.406,-8.848 7.007,-11.045c4.907,-2.993 10.986,-2.472 13.885,-1.981l-6.307,6.307c-0.38,0.38 -0.38,0.996 0,1.376c0.189,0.189 0.438,0.285 0.687,0.285c0.249,0 0.498,-0.096 0.688,-0.285l7.576,-7.577c0.011,-0.011 0.018,-0.023 0.028,-0.034c0.025,-0.028 0.049,-0.057 0.072,-0.088c0.017,-0.024 0.033,-0.049 0.048,-0.073c0.016,-0.028 0.031,-0.056 0.045,-0.085c0.014,-0.033 0.027,-0.065 0.038,-0.097c0.005,-0.016 0.013,-0.029 0.017,-0.046c0.004,-0.012 0.004,-0.024 0.007,-0.037c0.008,-0.034 0.014,-0.068 0.019,-0.103c0.004,-0.03 0.007,-0.06 0.008,-0.09" style="fill:#a3859e;fill-rule:nonzero;"/></svg>