<?xml version="1.0" encoding="UTF-8" standalone="no"?><!DOCTYPE svg PUBLIC "-//W3C//DTD SVG 1.1//EN" "http://www.w3.org/Graphics/SVG/1.1/DTD/svg11.dtd"><svg width="100%" height="100%" viewBox="0 0 116 116" version="1.1" xmlns="http://www.w3.org/2000/svg" xmlns:xlink="http://www.w3.org/1999/xlink" xml:space="preserve" xmlns:serif="http://www.serif.com/" style="fill-rule:evenodd;clip-rule:evenodd;stroke-linejoin:round;stroke-miterlimit:2;"><path d="M102.375,63.995c-3.094,0 -5.6,2.506 -5.6,5.6l0,26.512c0,4.6 -3.725,8.319 -8.331,8.332l-68.925,0c-4.594,-0.013 -8.319,-3.732 -8.332,-8.332l0,-68.9c0.013,-4.6 3.738,-8.325 8.332,-8.331l26.468,0c3.088,0 5.588,-2.506 5.588,-5.594c0,-3.093 -2.5,-5.593 -5.588,-5.593l-26.468,0c-10.782,0.006 -19.513,8.737 -19.519,19.518l0,68.9c0,10.782 8.737,19.519 19.519,19.519l68.925,0c10.787,0 19.525,-8.737 19.525,-19.519l0,-26.512c0,-3.094 -2.507,-5.6 -5.594,-5.6" style="fill:#a087a4;fill-rule:nonzero;"/><path d="M115.553,26.809l0.075,-0.356l-0.044,-0.212l-0.369,-1.869l-0.05,-0.119l-1.056,-1.581l-0.119,-0.175l-20.869,-20.856c-2.181,-2.188 -5.725,-2.188 -7.906,0c-2.187,2.181 -2.187,5.725 0,7.912l11.306,11.3l-4.8,0c-18.243,0 -34.8,7.394 -46.737,19.338c-11.95,11.931 -19.35,28.487 -19.344,46.725c0,3.087 2.506,5.593 5.594,5.593c3.087,0 5.594,-2.506 5.594,-5.593c0,-15.188 6.131,-28.869 16.068,-38.813c9.944,-9.931 23.632,-16.056 38.825,-16.062l4.8,0l-11.306,11.306c-1.044,1.044 -1.637,2.481 -1.637,3.956c0,1.475 0.593,2.919 1.637,3.956c1.056,1.063 2.463,1.638 3.956,1.644c1.5,0 2.9,-0.581 3.957,-1.637l20.862,-20.857l1.094,-1.631l0.194,-0.556l0.275,-1.413Z" style="fill:#a087a4;fill-rule:nonzero;"/></svg>