<?xml version="1.0" encoding="UTF-8" standalone="no"?><!DOCTYPE svg PUBLIC "-//W3C//DTD SVG 1.1//EN" "http://www.w3.org/Graphics/SVG/1.1/DTD/svg11.dtd"><svg width="100%" height="100%" viewBox="0 0 137 85" version="1.1" xmlns="http://www.w3.org/2000/svg" xmlns:xlink="http://www.w3.org/1999/xlink" xml:space="preserve" xmlns:serif="http://www.serif.com/" style="fill-rule:evenodd;clip-rule:evenodd;stroke-linejoin:round;stroke-miterlimit:2;"><g><rect x="0.031" y="0" width="136.494" height="84.306" style="fill:#fff;"/><rect x="0.031" y="0.006" width="64.012" height="45.244" style="fill:#383572;"/><path d="M5.262,1.776l0.6,1.837l1.938,0l-1.569,1.144l0.6,1.837l-1.569,-1.137l-1.562,1.137l0.6,-1.837l-1.569,-1.144l1.931,0l0.6,-1.837Z" style="fill:#fff;fill-rule:nonzero;"/><path d="M16.164,1.776l0.6,1.837l1.931,0l-1.569,1.144l0.6,1.837l-1.562,-1.137l-1.569,1.137l0.6,-1.837l-1.563,-1.144l1.932,0l0.6,-1.837Z" style="fill:#fff;fill-rule:nonzero;"/><path d="M26.759,1.776l0.6,1.837l1.932,0l-1.563,1.144l0.6,1.837l-1.569,-1.137l-1.562,1.137l0.6,-1.837l-1.569,-1.144l1.931,0l0.6,-1.837Z" style="fill:#fff;fill-rule:nonzero;"/><path d="M37.361,1.776l0.6,1.837l1.931,0l-1.568,1.144l0.6,1.837l-1.563,-1.137l-1.569,1.137l0.6,-1.837l-1.562,-1.144l1.931,0l0.6,-1.837Z" style="fill:#fff;fill-rule:nonzero;"/><path d="M47.957,1.776l0.6,1.837l1.937,0l-1.568,1.144l0.6,1.837l-1.569,-1.137l-1.563,1.137l0.6,-1.837l-1.568,-1.144l1.931,0l0.6,-1.837Z" style="fill:#fff;fill-rule:nonzero;"/><path d="M53.517,6.594l0.6,1.838l1.937,0l-1.568,1.144l0.6,1.837l-1.569,-1.137l-1.563,1.137l0.6,-1.837l-1.568,-1.144l1.931,0l0.6,-1.838Z" style="fill:#fff;fill-rule:nonzero;"/><path d="M42.891,6.594l0.6,1.838l1.931,0l-1.562,1.144l0.6,1.837l-1.569,-1.137l-1.562,1.137l0.6,-1.837l-1.569,-1.144l1.931,0l0.6,-1.838Z" style="fill:#fff;fill-rule:nonzero;"/><path d="M32.265,6.594l0.6,1.838l1.931,0l-1.569,1.144l0.6,1.837l-1.562,-1.137l-1.569,1.137l0.6,-1.837l-1.562,-1.144l1.931,0l0.6,-1.838Z" style="fill:#fff;fill-rule:nonzero;"/><path d="M21.339,6.594l0.6,1.838l1.932,0l-1.569,1.144l0.6,1.837l-1.563,-1.137l-1.568,1.137l0.6,-1.837l-1.563,-1.144l1.931,0l0.6,-1.838Z" style="fill:#fff;fill-rule:nonzero;"/><path d="M10.707,6.594l0.6,1.838l1.937,0l-1.568,1.144l0.6,1.837l-1.569,-1.137l-1.563,1.137l0.6,-1.837l-1.568,-1.144l1.931,0l0.6,-1.838Z" style="fill:#fff;fill-rule:nonzero;"/><path d="M58.857,1.776l0.6,1.837l1.932,0l-1.569,1.144l0.6,1.837l-1.563,-1.137l-1.568,1.137l0.6,-1.837l-1.563,-1.144l1.931,0l0.6,-1.837Z" style="fill:#fff;fill-rule:nonzero;"/><path d="M5.262,10.711l0.6,1.838l1.938,0l-1.569,1.143l0.6,1.838l-1.569,-1.138l-1.562,1.138l0.6,-1.838l-1.569,-1.143l1.931,0l0.6,-1.838Z" style="fill:#fff;fill-rule:nonzero;"/><path d="M16.164,10.711l0.6,1.838l1.931,0l-1.569,1.143l0.6,1.838l-1.562,-1.138l-1.569,1.138l0.6,-1.838l-1.563,-1.143l1.932,0l0.6,-1.838Z" style="fill:#fff;fill-rule:nonzero;"/><path d="M26.759,10.711l0.6,1.838l1.932,0l-1.563,1.143l0.6,1.838l-1.569,-1.138l-1.562,1.138l0.6,-1.838l-1.569,-1.143l1.931,0l0.6,-1.838Z" style="fill:#fff;fill-rule:nonzero;"/><path d="M37.361,10.711l0.6,1.838l1.931,0l-1.568,1.143l0.6,1.838l-1.563,-1.138l-1.569,1.138l0.6,-1.838l-1.562,-1.143l1.931,0l0.6,-1.838Z" style="fill:#fff;fill-rule:nonzero;"/><path d="M47.957,10.711l0.6,1.838l1.937,0l-1.568,1.143l0.6,1.838l-1.569,-1.138l-1.563,1.138l0.6,-1.838l-1.568,-1.143l1.931,0l0.6,-1.838Z" style="fill:#fff;fill-rule:nonzero;"/><path d="M53.517,15.53l0.6,1.844l1.937,0l-1.568,1.137l0.6,1.838l-1.569,-1.138l-1.563,1.138l0.6,-1.838l-1.568,-1.137l1.931,0l0.6,-1.844Z" style="fill:#fff;fill-rule:nonzero;"/><path d="M42.891,15.53l0.6,1.844l1.931,0l-1.562,1.137l0.6,1.838l-1.569,-1.138l-1.562,1.138l0.6,-1.838l-1.569,-1.137l1.931,0l0.6,-1.844Z" style="fill:#fff;fill-rule:nonzero;"/><path d="M32.265,15.53l0.6,1.844l1.931,0l-1.569,1.137l0.6,1.838l-1.562,-1.138l-1.569,1.138l0.6,-1.838l-1.562,-1.137l1.931,0l0.6,-1.844Z" style="fill:#fff;fill-rule:nonzero;"/><path d="M21.339,15.53l0.6,1.844l1.932,0l-1.569,1.137l0.6,1.838l-1.563,-1.138l-1.568,1.138l0.6,-1.838l-1.563,-1.137l1.931,0l0.6,-1.844Z" style="fill:#fff;fill-rule:nonzero;"/><path d="M10.707,15.53l0.6,1.844l1.937,0l-1.568,1.137l0.6,1.838l-1.569,-1.138l-1.563,1.138l0.6,-1.838l-1.568,-1.137l1.931,0l0.6,-1.844Z" style="fill:#fff;fill-rule:nonzero;"/><path d="M58.857,10.711l0.6,1.838l1.932,0l-1.569,1.143l0.6,1.838l-1.563,-1.138l-1.568,1.138l0.6,-1.838l-1.563,-1.143l1.931,0l0.6,-1.838Z" style="fill:#fff;fill-rule:nonzero;"/><path d="M5.262,19.647l0.6,1.844l1.938,0l-1.569,1.137l0.6,1.838l-1.569,-1.138l-1.562,1.138l0.6,-1.838l-1.569,-1.137l1.931,0l0.6,-1.844Z" style="fill:#fff;fill-rule:nonzero;"/><path d="M16.164,19.647l0.6,1.844l1.931,0l-1.569,1.137l0.6,1.838l-1.562,-1.138l-1.569,1.138l0.6,-1.838l-1.563,-1.137l1.932,0l0.6,-1.844Z" style="fill:#fff;fill-rule:nonzero;"/><path d="M26.759,19.647l0.6,1.844l1.932,0l-1.563,1.137l0.6,1.838l-1.569,-1.138l-1.562,1.138l0.6,-1.838l-1.569,-1.137l1.931,0l0.6,-1.844Z" style="fill:#fff;fill-rule:nonzero;"/><path d="M37.361,19.647l0.6,1.844l1.931,0l-1.568,1.137l0.6,1.838l-1.563,-1.138l-1.569,1.138l0.6,-1.838l-1.562,-1.137l1.931,0l0.6,-1.844Z" style="fill:#fff;fill-rule:nonzero;"/><path d="M47.957,19.647l0.6,1.844l1.937,0l-1.568,1.137l0.6,1.838l-1.569,-1.138l-1.563,1.138l0.6,-1.838l-1.568,-1.137l1.931,0l0.6,-1.844Z" style="fill:#fff;fill-rule:nonzero;"/><path d="M53.517,24.469l0.6,1.837l1.937,0l-1.568,1.144l0.6,1.837l-1.569,-1.137l-1.563,1.137l0.6,-1.837l-1.568,-1.144l1.931,0l0.6,-1.837Z" style="fill:#fff;fill-rule:nonzero;"/><path d="M42.891,24.469l0.6,1.837l1.931,0l-1.562,1.144l0.6,1.837l-1.569,-1.137l-1.562,1.137l0.6,-1.837l-1.569,-1.144l1.931,0l0.6,-1.837Z" style="fill:#fff;fill-rule:nonzero;"/><path d="M32.265,24.469l0.6,1.837l1.931,0l-1.569,1.144l0.6,1.837l-1.562,-1.137l-1.569,1.137l0.6,-1.837l-1.562,-1.144l1.931,0l0.6,-1.837Z" style="fill:#fff;fill-rule:nonzero;"/><path d="M21.339,24.469l0.6,1.837l1.932,0l-1.569,1.144l0.6,1.837l-1.563,-1.137l-1.568,1.137l0.6,-1.837l-1.563,-1.144l1.931,0l0.6,-1.837Z" style="fill:#fff;fill-rule:nonzero;"/><path d="M10.707,24.469l0.6,1.837l1.937,0l-1.568,1.144l0.6,1.837l-1.569,-1.137l-1.563,1.137l0.6,-1.837l-1.568,-1.144l1.931,0l0.6,-1.837Z" style="fill:#fff;fill-rule:nonzero;"/><path d="M58.857,19.647l0.6,1.844l1.932,0l-1.569,1.137l0.6,1.838l-1.563,-1.138l-1.568,1.138l0.6,-1.838l-1.563,-1.137l1.931,0l0.6,-1.844Z" style="fill:#fff;fill-rule:nonzero;"/><path d="M5.262,28.586l0.6,1.837l1.938,0l-1.569,1.144l0.6,1.837l-1.569,-1.137l-1.562,1.137l0.6,-1.837l-1.569,-1.144l1.931,0l0.6,-1.837Z" style="fill:#fff;fill-rule:nonzero;"/><path d="M16.164,28.586l0.6,1.837l1.931,0l-1.569,1.144l0.6,1.837l-1.562,-1.137l-1.569,1.137l0.6,-1.837l-1.563,-1.144l1.932,0l0.6,-1.837Z" style="fill:#fff;fill-rule:nonzero;"/><path d="M26.759,28.586l0.6,1.837l1.932,0l-1.563,1.144l0.6,1.837l-1.569,-1.137l-1.562,1.137l0.6,-1.837l-1.569,-1.144l1.931,0l0.6,-1.837Z" style="fill:#fff;fill-rule:nonzero;"/><path d="M37.361,28.586l0.6,1.837l1.931,0l-1.568,1.144l0.6,1.837l-1.563,-1.137l-1.569,1.137l0.6,-1.837l-1.562,-1.144l1.931,0l0.6,-1.837Z" style="fill:#fff;fill-rule:nonzero;"/><path d="M47.957,28.586l0.6,1.837l1.937,0l-1.568,1.144l0.6,1.837l-1.569,-1.137l-1.563,1.137l0.6,-1.837l-1.568,-1.144l1.931,0l0.6,-1.837Z" style="fill:#fff;fill-rule:nonzero;"/><path d="M53.517,33.404l0.6,1.838l1.937,0l-1.568,1.144l0.6,1.837l-1.569,-1.137l-1.563,1.137l0.6,-1.837l-1.568,-1.144l1.931,0l0.6,-1.838Z" style="fill:#fff;fill-rule:nonzero;"/><path d="M42.891,33.404l0.6,1.838l1.931,0l-1.562,1.144l0.6,1.837l-1.569,-1.137l-1.562,1.137l0.6,-1.837l-1.569,-1.144l1.931,0l0.6,-1.838Z" style="fill:#fff;fill-rule:nonzero;"/><path d="M32.265,33.404l0.6,1.838l1.931,0l-1.569,1.144l0.6,1.837l-1.562,-1.137l-1.569,1.137l0.6,-1.837l-1.562,-1.144l1.931,0l0.6,-1.838Z" style="fill:#fff;fill-rule:nonzero;"/><path d="M21.339,33.404l0.6,1.838l1.932,0l-1.569,1.144l0.6,1.837l-1.563,-1.137l-1.568,1.137l0.6,-1.837l-1.563,-1.144l1.931,0l0.6,-1.838Z" style="fill:#fff;fill-rule:nonzero;"/><path d="M10.707,33.404l0.6,1.838l1.937,0l-1.568,1.144l0.6,1.837l-1.569,-1.137l-1.563,1.137l0.6,-1.837l-1.568,-1.144l1.931,0l0.6,-1.838Z" style="fill:#fff;fill-rule:nonzero;"/><path d="M58.857,28.586l0.6,1.837l1.932,0l-1.569,1.144l0.6,1.837l-1.563,-1.137l-1.568,1.137l0.6,-1.837l-1.563,-1.144l1.931,0l0.6,-1.837Z" style="fill:#fff;fill-rule:nonzero;"/><path d="M5.262,37.521l0.6,1.838l1.938,0l-1.569,1.144l0.6,1.837l-1.569,-1.137l-1.562,1.137l0.6,-1.837l-1.569,-1.144l1.931,0l0.6,-1.838Z" style="fill:#fff;fill-rule:nonzero;"/><path d="M16.164,37.521l0.6,1.838l1.931,0l-1.569,1.144l0.6,1.837l-1.562,-1.137l-1.569,1.137l0.6,-1.837l-1.563,-1.144l1.932,0l0.6,-1.838Z" style="fill:#fff;fill-rule:nonzero;"/><path d="M26.759,37.521l0.6,1.838l1.932,0l-1.563,1.144l0.6,1.837l-1.569,-1.137l-1.562,1.137l0.6,-1.837l-1.569,-1.144l1.931,0l0.6,-1.838Z" style="fill:#fff;fill-rule:nonzero;"/><path d="M37.361,37.521l0.6,1.838l1.931,0l-1.568,1.144l0.6,1.837l-1.563,-1.137l-1.569,1.137l0.6,-1.837l-1.562,-1.144l1.931,0l0.6,-1.838Z" style="fill:#fff;fill-rule:nonzero;"/><path d="M47.957,37.521l0.6,1.838l1.937,0l-1.568,1.144l0.6,1.837l-1.569,-1.137l-1.563,1.137l0.6,-1.837l-1.568,-1.144l1.931,0l0.6,-1.838Z" style="fill:#fff;fill-rule:nonzero;"/><path d="M58.857,37.521l0.6,1.838l1.932,0l-1.569,1.144l0.6,1.837l-1.563,-1.137l-1.568,1.137l0.6,-1.837l-1.563,-1.144l1.931,0l0.6,-1.838Z" style="fill:#fff;fill-rule:nonzero;"/><rect x="64.044" y="0" width="72.481" height="6.594" style="fill:#d81228;"/><rect x="64.044" y="13.119" width="72.481" height="6.594" style="fill:#d81228;"/><rect x="64.044" y="25.988" width="72.481" height="6.594" style="fill:#d81228;"/><rect x="64.044" y="38.831" width="72.481" height="6.594" style="fill:#d81228;"/><rect x="0" y="51.675" width="136.525" height="6.594" style="fill:#d81228;"/><rect x="0" y="64.694" width="136.525" height="6.594" style="fill:#d81228;"/><rect x="0" y="77.713" width="136.525" height="6.594" style="fill:#d81228;"/></g></svg>