<?xml version="1.0" encoding="UTF-8" standalone="no"?><!DOCTYPE svg PUBLIC "-//W3C//DTD SVG 1.1//EN" "http://www.w3.org/Graphics/SVG/1.1/DTD/svg11.dtd"><svg width="100%" height="100%" viewBox="0 0 22 20" version="1.1" xmlns="http://www.w3.org/2000/svg" xmlns:xlink="http://www.w3.org/1999/xlink" xml:space="preserve" xmlns:serif="http://www.serif.com/" style="fill-rule:evenodd;clip-rule:evenodd;stroke-linejoin:round;stroke-miterlimit:2;"><path d="M16.175,0c-0.441,0 -0.932,0.049 -1.421,0.147c-1.861,0.441 -3.087,1.372 -3.871,2.351c-0.783,-0.979 -1.96,-1.91 -3.92,-2.351c-0.489,-0.098 -0.93,-0.147 -1.42,-0.147c-1.373,0 -2.646,0.441 -3.724,1.372c-1.078,0.979 -1.764,2.401 -1.813,3.919c-0.049,1.127 0.196,2.94 1.421,5.047c2.057,3.528 8.476,8.281 8.77,8.476l0.736,0.54l0.734,-0.54c1.127,-0.783 6.663,-4.948 8.722,-8.426c1.225,-2.107 1.47,-3.92 1.323,-5.097c-0.049,-1.518 -0.686,-2.94 -1.814,-3.919c-1.028,-0.882 -2.351,-1.372 -3.723,-1.372m0,1.32c1.054,0 2.072,0.374 2.858,1.047c0.839,0.73 1.321,1.783 1.36,2.967l0.002,0.061l0.008,0.06c0.07,0.566 0.098,2.112 -1.15,4.261c-1.828,3.09 -6.933,7.028 -8.32,8.003c-0.781,-0.54 -6.588,-4.997 -8.365,-8.044c-1.159,-1.993 -1.277,-3.566 -1.243,-4.341c0.036,-1.132 0.54,-2.221 1.356,-2.963c0.808,-0.698 1.771,-1.051 2.862,-1.051c0.384,0 0.742,0.037 1.131,0.114c1.387,0.312 2.398,0.912 3.178,1.889l1.031,1.288l1.031,-1.287c0.747,-0.935 1.797,-1.57 3.122,-1.887c0.389,-0.077 0.783,-0.117 1.139,-0.117" style="fill:#a087a4;fill-rule:nonzero;"/></svg>