<?xml version="1.0" encoding="UTF-8" standalone="no"?><!DOCTYPE svg PUBLIC "-//W3C//DTD SVG 1.1//EN" "http://www.w3.org/Graphics/SVG/1.1/DTD/svg11.dtd"><svg width="100%" height="100%" viewBox="0 0 172 175" version="1.1" xmlns="http://www.w3.org/2000/svg" xmlns:xlink="http://www.w3.org/1999/xlink" xml:space="preserve" xmlns:serif="http://www.serif.com/" style="fill-rule:evenodd;clip-rule:evenodd;stroke-linejoin:round;stroke-miterlimit:2;"><path d="M69.015,48.317l0,21.173l-21.173,0l0,6.052l21.173,0l0,21.174l6.048,0l0,-21.174l21.178,0l0,-6.052l-21.178,0l0,-21.173l-6.048,0Zm3.026,-21.174c25.096,0 45.373,20.277 45.373,45.373c0,25.096 -20.277,45.373 -45.373,45.373c-25.096,0 -45.373,-20.277 -45.373,-45.373c0,-25.096 20.277,-45.373 45.373,-45.373m0,-6.047c-28.373,0 -51.425,23.052 -51.425,51.42c0,28.369 23.052,51.421 51.425,51.421c11.222,0 21.596,-3.614 30.058,-9.733l39.795,39.7l8.509,-8.509l-39.326,-39.416c7.732,-9.002 12.385,-20.689 12.385,-33.463c0,-28.368 -23.052,-51.42 -51.421,-51.42" style="fill:#a087a4;fill-rule:nonzero;"/></svg>